<svg width="24" height="24" viewBox="0 0 24 24" fill="none" xmlns="http://www.w3.org/2000/svg">
<path d="M12.375 23.2227C18.1543 23.2227 22.9346 18.4424 22.9346 12.6631C22.9346 6.88379 18.1436 2.11426 12.3643 2.11426C6.58496 2.11426 1.81543 6.88379 1.81543 12.6631C1.81543 18.4424 6.5957 23.2227 12.375 23.2227ZM12.375 20.999C7.75586 20.999 4.0498 17.293 4.0498 12.6631C4.0498 8.04395 7.74512 4.32715 12.3643 4.32715C16.9941 4.32715 20.7002 8.04395 20.7109 12.6631C20.7217 17.293 16.9941 20.999 12.375 20.999ZM9.99023 8.28027C8.3252 8.28027 7.08984 9.54785 7.08984 11.3525C7.08984 14.1562 10.1514 16.541 11.8379 17.5938C12.0098 17.7012 12.2461 17.8408 12.3965 17.8408C12.5361 17.8408 12.751 17.7012 12.9121 17.5938C14.5879 16.5195 17.6602 14.1562 17.6602 11.3525C17.6602 9.54785 16.4248 8.28027 14.7598 8.28027C13.6748 8.28027 12.8477 8.91406 12.375 9.7627C11.9023 8.91406 11.0859 8.28027 9.99023 8.28027Z" fill="white"/>
</svg>
