<svg width="16" height="16" viewBox="0 0 16 16" fill="none" xmlns="http://www.w3.org/2000/svg">
<path d="M13 8L13.7115 8.23717L13.7906 8L13.7115 7.76283L13 8ZM3 8L2.28849 7.76283L2.20943 8L2.28849 8.23717L3 8ZM13 8C12.2885 7.76283 12.2886 7.76242 12.2888 7.76203C12.2888 7.76191 12.2889 7.76153 12.289 7.76129C12.2892 7.76083 12.2893 7.7604 12.2894 7.76002C12.2897 7.75926 12.2899 7.75867 12.29 7.75826C12.2903 7.75743 12.2904 7.75728 12.2902 7.7578C12.2898 7.75883 12.2885 7.7625 12.2862 7.76864C12.2815 7.78093 12.2729 7.803 12.2599 7.83347C12.2337 7.89452 12.1901 7.9885 12.1256 8.10452C11.9963 8.33734 11.7862 8.65312 11.4697 8.96967C10.8509 9.58849 9.78808 10.25 8 10.25V11.75C10.2119 11.75 11.6491 10.9115 12.5303 10.0303C12.9638 9.59688 13.2537 9.16266 13.4369 8.83298C13.5287 8.66775 13.5944 8.52736 13.6386 8.42435C13.6607 8.37278 13.6774 8.3304 13.6894 8.29874C13.6954 8.28291 13.7002 8.26973 13.7038 8.25941C13.7057 8.25425 13.7072 8.2498 13.7085 8.24609C13.7091 8.24423 13.7097 8.24256 13.7102 8.24107C13.7105 8.24033 13.7107 8.23963 13.7109 8.23898C13.711 8.23866 13.7112 8.2382 13.7112 8.23804C13.7114 8.2376 13.7115 8.23717 13 8ZM8 10.25C6.21192 10.25 5.14915 9.58849 4.53033 8.96967C4.21378 8.65312 4.00371 8.33734 3.87437 8.10452C3.80991 7.9885 3.7663 7.89452 3.74014 7.83347C3.72708 7.803 3.71845 7.78093 3.71381 7.76864C3.71149 7.7625 3.71018 7.75883 3.70981 7.7578C3.70963 7.75728 3.70968 7.75743 3.70997 7.75826C3.71011 7.75867 3.71031 7.75926 3.71057 7.76002C3.7107 7.7604 3.71084 7.76083 3.711 7.76129C3.71108 7.76153 3.71121 7.76191 3.71125 7.76203C3.71138 7.76242 3.71151 7.76283 3 8C2.28849 8.23717 2.28863 8.2376 2.28878 8.23804C2.28883 8.2382 2.28898 8.23866 2.28909 8.23898C2.28931 8.23963 2.28955 8.24033 2.2898 8.24107C2.2903 8.24256 2.29087 8.24423 2.29151 8.24609C2.29279 8.2498 2.29434 8.25425 2.29617 8.25941C2.29983 8.26973 2.30462 8.28291 2.3106 8.29874C2.32256 8.3304 2.33932 8.37278 2.36142 8.42435C2.40557 8.52736 2.47134 8.66775 2.56313 8.83298C2.74629 9.16266 3.03622 9.59688 3.46967 10.0303C4.35085 10.9115 5.78808 11.75 8 11.75V10.25ZM3 8C3.71151 8.23717 3.71138 8.23758 3.71125 8.23797C3.71121 8.23809 3.71108 8.23847 3.711 8.23871C3.71084 8.23917 3.7107 8.2396 3.71057 8.23998C3.71031 8.24074 3.71011 8.24133 3.70997 8.24174C3.70968 8.24257 3.70963 8.24272 3.70981 8.2422C3.71018 8.24117 3.71149 8.2375 3.71381 8.23136C3.71845 8.21907 3.72708 8.197 3.74014 8.16653C3.7663 8.10548 3.80991 8.0115 3.87437 7.89548C4.00371 7.66266 4.21378 7.34688 4.53033 7.03033C5.14915 6.41151 6.21192 5.75 8 5.75V4.25C5.78808 4.25 4.35085 5.08849 3.46967 5.96967C3.03622 6.40312 2.74629 6.83734 2.56313 7.16702C2.47134 7.33225 2.40557 7.47264 2.36142 7.57565C2.33932 7.62722 2.32256 7.6696 2.3106 7.70126C2.30462 7.71709 2.29983 7.73027 2.29617 7.74059C2.29434 7.74575 2.29279 7.7502 2.29151 7.75391C2.29087 7.75577 2.2903 7.75744 2.2898 7.75893C2.28955 7.75967 2.28931 7.76037 2.28909 7.76102C2.28898 7.76134 2.28883 7.7618 2.28878 7.76196C2.28863 7.7624 2.28849 7.76283 3 8ZM8 5.75C9.78808 5.75 10.8509 6.41151 11.4697 7.03033C11.7862 7.34688 11.9963 7.66266 12.1256 7.89548C12.1901 8.0115 12.2337 8.10548 12.2599 8.16653C12.2729 8.197 12.2815 8.21907 12.2862 8.23136C12.2885 8.2375 12.2898 8.24117 12.2902 8.2422C12.2904 8.24272 12.2903 8.24257 12.29 8.24174C12.2899 8.24133 12.2897 8.24074 12.2894 8.23998C12.2893 8.2396 12.2892 8.23917 12.289 8.23871C12.2889 8.23847 12.2888 8.23809 12.2888 8.23797C12.2886 8.23758 12.2885 8.23717 13 8C13.7115 7.76283 13.7114 7.7624 13.7112 7.76196C13.7112 7.7618 13.711 7.76134 13.7109 7.76102C13.7107 7.76037 13.7105 7.75967 13.7102 7.75893C13.7097 7.75744 13.7091 7.75577 13.7085 7.75391C13.7072 7.7502 13.7057 7.74575 13.7038 7.74059C13.7002 7.73027 13.6954 7.71709 13.6894 7.70126C13.6774 7.6696 13.6607 7.62722 13.6386 7.57565C13.5944 7.47264 13.5287 7.33225 13.4369 7.16702C13.2537 6.83734 12.9638 6.40312 12.5303 5.96967C11.6491 5.08849 10.2119 4.25 8 4.25V5.75Z" fill="#6EB0E6"/>
<circle cx="8" cy="7" r="2" fill="#6EB0E6"/>
</svg>
