<?xml version="1.0" standalone="no"?>
<!DOCTYPE svg PUBLIC "-//W3C//DTD SVG 20010904//EN"
 "http://www.w3.org/TR/2001/REC-SVG-20010904/DTD/svg10.dtd">
<svg version="1.0" xmlns="http://www.w3.org/2000/svg"
 width="350.000000pt" height="350.000000pt" viewBox="0 0 350.000000 350.000000"
 preserveAspectRatio="xMidYMid meet">
<metadata>
Created by potrace 1.11, written by Peter Selinger 2001-2013
</metadata>
<g transform="translate(0.000000,350.000000) scale(0.100000,-0.100000)"
fill="#000000" stroke="none">
<path d="M1658 3426 c-47 -29 -118 -74 -159 -99 -95 -57 -867 -534 -1111 -686
-103 -64 -196 -120 -207 -125 -19 -10 -19 -33 -18 -1050 l2 -1041 90 -17 c50
-9 104 -19 120 -22 17 -3 55 -10 85 -16 30 -6 66 -13 80 -15 88 -16 298 -56
310 -60 8 -2 33 -6 55 -9 38 -6 54 -9 115 -22 23 -4 61 -11 160 -29 72 -12
408 -76 469 -89 65 -14 139 -12 201 4 19 5 55 12 80 15 24 4 47 8 50 10 3 2
23 6 45 9 22 3 63 11 90 16 62 12 100 19 145 26 19 3 51 9 70 14 19 5 54 12
77 14 23 3 61 10 85 15 24 6 59 12 78 16 19 3 55 10 80 15 25 5 59 11 75 14
24 3 168 30 271 50 12 2 38 7 58 10 19 3 56 10 81 16 25 6 63 13 83 15 20 3
53 9 72 13 l35 8 3 1041 c2 952 1 1041 -14 1047 -9 3 -93 54 -187 113 -95 58
-184 113 -199 122 -15 9 -71 44 -125 77 -54 34 -224 139 -378 234 -154 95
-354 219 -445 275 -91 56 -181 111 -201 123 l-36 22 -85 -54z m377 -236 c127
-78 336 -208 465 -289 129 -80 244 -151 255 -157 17 -9 83 -50 262 -163 23
-14 80 -50 127 -80 47 -29 86 -58 87 -65 1 -14 1 -1917 0 -1932 -1 -9 -78 -29
-98 -26 -2 1 -17 -4 -35 -9 -18 -5 -49 -12 -68 -14 -19 -3 -109 -19 -200 -36
-91 -17 -174 -32 -185 -33 -11 -2 -33 -6 -50 -9 -16 -4 -41 -9 -55 -11 -14 -3
-50 -10 -80 -16 -30 -6 -64 -13 -75 -14 -19 -3 -124 -22 -175 -32 -14 -3 -61
-11 -104 -19 -43 -8 -86 -17 -95 -19 -9 -3 -33 -7 -53 -10 -59 -9 -98 -16
-163 -29 -47 -10 -72 -10 -120 0 -33 6 -73 14 -90 17 -65 12 -141 26 -165 31
-14 3 -50 9 -80 15 -60 11 -92 17 -130 25 -14 2 -38 7 -55 10 -16 3 -41 7 -55
10 -14 3 -38 7 -55 10 -16 3 -50 9 -75 15 -25 5 -97 19 -160 30 -63 12 -149
28 -190 35 -41 8 -86 16 -100 19 -161 28 -260 50 -261 60 -1 6 -2 444 -3 974
-1 845 1 965 14 976 8 7 179 114 380 238 201 124 529 327 730 452 l364 226 31
-19 c16 -10 134 -82 260 -161z"/>
<path d="M1459 3121 c-123 -76 -415 -256 -649 -401 -234 -144 -431 -268 -439
-276 -13 -11 -12 -14 5 -20 29 -11 568 -219 957 -371 192 -74 351 -132 355
-128 8 8 9 1335 1 1335 -3 0 -107 -62 -230 -139z"/>
<path d="M1799 3251 c-3 -34 -4 -1318 -1 -1328 3 -8 9 -9 20 -2 10 5 100 41
202 79 102 39 194 75 205 80 19 9 362 141 470 181 28 11 139 54 248 97 l197
78 -136 84 c-75 47 -152 94 -170 105 -19 11 -255 157 -526 325 -270 168 -495
307 -500 308 -4 2 -8 -1 -9 -7z"/>
<path d="M350 1490 c0 -836 1 -882 17 -875 25 9 82 28 740 244 319 106 583
197 585 204 5 17 3 786 -3 791 -2 2 -94 38 -204 80 -110 42 -209 81 -220 86
-25 12 -874 340 -897 347 -17 5 -18 -41 -18 -877z"/>
<path d="M2805 2244 c-176 -68 -473 -183 -660 -255 -187 -72 -342 -133 -344
-135 -6 -5 -8 -763 -3 -786 3 -13 74 -40 281 -108 439 -144 1025 -338 1044
-346 16 -6 17 48 17 875 0 485 -3 881 -7 881 -5 -1 -152 -57 -328 -126z"/>
<path d="M1480 904 c-140 -47 -433 -143 -650 -215 -217 -71 -402 -132 -410
-136 -15 -6 15 -15 85 -26 17 -3 107 -20 200 -37 94 -18 177 -34 185 -35 8 -1
40 -7 70 -13 30 -6 71 -14 90 -17 19 -3 42 -8 50 -10 8 -3 31 -7 50 -9 19 -3
69 -11 110 -19 41 -9 91 -18 110 -21 19 -3 46 -8 60 -11 53 -12 126 -26 155
-31 17 -2 57 -10 90 -17 48 -10 73 -10 125 0 99 19 121 23 180 33 60 11 80 15
155 30 28 5 66 12 85 15 19 3 80 14 135 24 55 11 150 29 210 40 61 11 124 23
140 26 17 3 77 15 135 25 207 39 245 47 230 53 -13 5 -372 124 -1110 366 -118
39 -217 71 -220 70 -3 0 -120 -39 -260 -85z"/>
</g>
</svg>
