<svg width="26" height="32" viewBox="0 0 26 32" fill="none" xmlns="http://www.w3.org/2000/svg">
<g filter="url(#filter0_d_317_9867)">
<path d="M13.0099 15.4786C13.5171 15.4786 13.9348 15.057 13.9348 14.555V4.45548L13.8652 2.96966L14.4718 3.70253L15.8641 5.19838C16.0232 5.37909 16.2519 5.46945 16.4807 5.46945C16.9381 5.46945 17.316 5.13815 17.316 4.6663C17.316 4.41532 17.2166 4.23461 17.0475 4.06395L13.716 0.821257C13.4773 0.580314 13.2486 0.5 13.0099 0.5C12.7613 0.5 12.5425 0.580314 12.3039 0.821257L8.96243 4.06395C8.79337 4.23461 8.69392 4.41532 8.69392 4.6663C8.69392 5.13815 9.06188 5.46945 9.51934 5.46945C9.74807 5.46945 9.98674 5.37909 10.1459 5.19838L11.5381 3.70253L12.1547 2.95962L12.0751 4.45548V14.555C12.0751 15.057 12.4928 15.4786 13.0099 15.4786ZM7.27182 23.5H18.7282C20.8862 23.5 22 22.3756 22 20.2272V10.3586C22 8.21017 20.8862 7.08577 18.7282 7.08577H16.0431V9.08359H18.5989C19.5039 9.08359 20.021 9.56547 20.021 10.5292V20.0465C20.021 21.0103 19.5039 21.4921 18.5989 21.4921H7.40111C6.48619 21.4921 5.97901 21.0103 5.97901 20.0465V10.5292C5.97901 9.56547 6.48619 9.08359 7.40111 9.08359H9.98674V7.08577H7.27182C5.12376 7.08577 4 8.20013 4 10.3586V20.2272C4 22.3756 5.12376 23.5 7.27182 23.5Z" fill="#B4C0D2"/>
</g>
<defs>
<filter id="filter0_d_317_9867" x="-3" y="0" width="32" height="32" filterUnits="userSpaceOnUse" color-interpolation-filters="sRGB">
<feFlood flood-opacity="0" result="BackgroundImageFix"/>
<feColorMatrix in="SourceAlpha" type="matrix" values="0 0 0 0 0 0 0 0 0 0 0 0 0 0 0 0 0 0 127 0" result="hardAlpha"/>
<feOffset dy="4"/>
<feGaussianBlur stdDeviation="2"/>
<feComposite in2="hardAlpha" operator="out"/>
<feColorMatrix type="matrix" values="0 0 0 0 0 0 0 0 0 0 0 0 0 0 0 0 0 0 0.25 0"/>
<feBlend mode="normal" in2="BackgroundImageFix" result="effect1_dropShadow_317_9867"/>
<feBlend mode="normal" in="SourceGraphic" in2="effect1_dropShadow_317_9867" result="shape"/>
</filter>
</defs>
</svg>
