<svg width="24" height="24" viewBox="0 0 24 24" fill="none" xmlns="http://www.w3.org/2000/svg">
<path d="M12 10.8C12.3956 10.8 12.7822 10.6827 13.1111 10.4629C13.44 10.2432 13.6964 9.93082 13.8478 9.56536C13.9991 9.19991 14.0387 8.79778 13.9616 8.40982C13.8844 8.02185 13.6939 7.66549 13.4142 7.38578C13.1345 7.10608 12.7781 6.9156 12.3902 6.83843C12.0022 6.76126 11.6001 6.80086 11.2346 6.95224C10.8692 7.10361 10.5568 7.35996 10.3371 7.68886C10.1173 8.01775 10 8.40443 10 8.8C10 9.33043 10.2107 9.83914 10.5858 10.2142C10.9609 10.5893 11.4696 10.8 12 10.8ZM11.29 17.71C11.383 17.8037 11.4936 17.8781 11.6154 17.9289C11.7373 17.9797 11.868 18.0058 12 18.0058C12.132 18.0058 12.2627 17.9797 12.3846 17.9289C12.5064 17.8781 12.617 17.8037 12.71 17.71L16.8 13.61C17.75 12.6605 18.397 11.4507 18.6593 10.1335C18.9216 8.81623 18.7873 7.4508 18.2735 6.20989C17.7597 4.96897 16.8894 3.90831 15.7727 3.16205C14.656 2.4158 13.3431 2.01749 12 2.01749C10.6569 2.01749 9.344 2.4158 8.22731 3.16205C7.11062 3.90831 6.24033 4.96897 5.72652 6.20989C5.2127 7.4508 5.07845 8.81623 5.34073 10.1335C5.60301 11.4507 6.25005 12.6605 7.2 13.61L11.29 17.71ZM7.23 8.34C7.29833 7.62701 7.52502 6.93829 7.89352 6.32411C8.26203 5.70993 8.76305 5.1858 9.36 4.79C10.1442 4.27509 11.0619 4.00076 12 4.00076C12.9381 4.00076 13.8558 4.27509 14.64 4.79C15.233 5.18445 15.7311 5.7054 16.0987 6.31538C16.4663 6.92537 16.6942 7.60923 16.7659 8.31778C16.8376 9.02634 16.7514 9.74198 16.5135 10.4133C16.2756 11.0845 15.8919 11.6947 15.39 12.2L12 15.59L8.61 12.2C8.10752 11.6996 7.72293 11.0935 7.48421 10.4258C7.24548 9.75807 7.15864 9.04552 7.23 8.34ZM19 20H5C4.73478 20 4.48043 20.1054 4.29289 20.2929C4.10536 20.4804 4 20.7348 4 21C4 21.2652 4.10536 21.5196 4.29289 21.7071C4.48043 21.8946 4.73478 22 5 22H19C19.2652 22 19.5196 21.8946 19.7071 21.7071C19.8946 21.5196 20 21.2652 20 21C20 20.7348 19.8946 20.4804 19.7071 20.2929C19.5196 20.1054 19.2652 20 19 20Z" fill="#6EB0E6"/>
</svg>
