<svg width="24" height="24" viewBox="0 0 24 24" fill="none" xmlns="http://www.w3.org/2000/svg">
<path d="M12.0099 15.4786C12.5171 15.4786 12.9348 15.057 12.9348 14.555V4.45548L12.8652 2.96966L13.4718 3.70253L14.8641 5.19838C15.0232 5.37909 15.2519 5.46945 15.4807 5.46945C15.9381 5.46945 16.316 5.13815 16.316 4.6663C16.316 4.41532 16.2166 4.23461 16.0475 4.06395L12.716 0.821257C12.4773 0.580314 12.2486 0.5 12.0099 0.5C11.7613 0.5 11.5425 0.580314 11.3039 0.821257L7.96243 4.06395C7.79337 4.23461 7.69392 4.41532 7.69392 4.6663C7.69392 5.13815 8.06188 5.46945 8.51934 5.46945C8.74807 5.46945 8.98674 5.37909 9.14586 5.19838L10.5381 3.70253L11.1547 2.95962L11.0751 4.45548V14.555C11.0751 15.057 11.4928 15.4786 12.0099 15.4786ZM6.27182 23.5H17.7282C19.8862 23.5 21 22.3756 21 20.2272V10.3586C21 8.21017 19.8862 7.08577 17.7282 7.08577H15.0431V9.08359H17.5989C18.5039 9.08359 19.021 9.56547 19.021 10.5292V20.0465C19.021 21.0103 18.5039 21.4921 17.5989 21.4921H6.40111C5.48619 21.4921 4.97901 21.0103 4.97901 20.0465V10.5292C4.97901 9.56547 5.48619 9.08359 6.40111 9.08359H8.98674V7.08577H6.27182C4.12376 7.08577 3 8.20013 3 10.3586V20.2272C3 22.3756 4.12376 23.5 6.27182 23.5Z" fill="#B4C0D2"/>
</svg>
