<svg class="media-icon media-icon--cast-enter" xmlns="http://www.w3.org/2000/svg" width="18"
	height="18" fill="none" aria-hidden="true" viewBox="0 0 18 18">
	<path fill="currentColor" d="M.75 13.25c1.38 0 2.5 1.085 2.5 2.5V16H.5v-2.75z" />
	<path fill="currentColor"
		d="M.75 10.25c3.04 0 5.5 2.46 5.5 5.5V16h-2v-.25c0-1.96-1.567-3.5-3.5-3.5H.5v-2z" />
	<path fill="currentColor"
		d="M.75 7.25a8.5 8.5 0 0 1 8.5 8.5V16h-2v-.25c0-3.611-2.91-6.5-6.5-6.5H.5v-2z" />
	<path fill="currentColor"
		d="M17.5 14.25c0 .963-.787 1.75-1.75 1.75h-5.5v-2h5.25V4h-13v2.25h-2v-2.5C.5 2.787 1.287 2 2.25 2h13.5c.963 0 1.75.787 1.75 1.75z" />
</svg>