<svg class="media-icon media-icon--pip-enter" xmlns="http://www.w3.org/2000/svg" width="18"
	height="18" fill="none" aria-hidden="true" viewBox="0 0 18 18">
	<path fill="currentColor"
		d="M13 2a4 4 0 0 1 4 4v2.035A3.5 3.5 0 0 0 16.5 8H15V6.273C15 5.018 13.96 4 12.679 4H4.32C3.04 4 2 5.018 2 6.273v5.454C2 12.982 3.04 14 4.321 14H6v1.5q0 .255.035.5H4a4 4 0 0 1-4-4V6a4 4 0 0 1 4-4z" />
	<rect width="10" height="7" x="8" y="10" fill="currentColor" rx="2" />
	<path fill="currentColor"
		d="M7.129 5.547a.6.6 0 0 0-.656.13L3.677 8.473A.6.6 0 0 0 4.102 9.5h2.796c.332 0 .602-.27.602-.602V6.103a.6.6 0 0 0-.371-.556" />
</svg>