<svg class="media-icon media-icon--pip-exit" xmlns="http://www.w3.org/2000/svg" width="18"
	height="18" fill="none" aria-hidden="true" viewBox="0 0 18 18">
	<path fill="currentColor"
		d="M13 2a4 4 0 0 1 4 4v2.036A3.5 3.5 0 0 0 16.5 8H15V6.273C15 5.018 13.96 4 12.679 4H4.32C3.04 4 2 5.018 2 6.273v5.454C2 12.982 3.04 14 4.321 14H6v1.5q0 .255.036.5H4a4 4 0 0 1-4-4V6a4 4 0 0 1 4-4z" />
	<rect width="10" height="7" x="8" y="10" fill="currentColor" rx="2" />
	<path fill="currentColor"
		d="M4.871 10.454a.6.6 0 0 0 .656-.131l2.796-2.796A.6.6 0 0 0 7.898 6.5H5.102a.603.603 0 0 0-.602.602v2.795a.6.6 0 0 0 .371.556" />
</svg>