<svg class="media-icon media-icon--restart" xmlns="http://www.w3.org/2000/svg" width="18"
	height="18" fill="none" aria-hidden="true" viewBox="0 0 18 18">
	<path fill="currentColor"
		d="M9 17a8 8 0 0 1-8-8h2a6 6 0 1 0 1.287-3.713l1.286 1.286A.25.25 0 0 1 5.396 7H1.25A.25.25 0 0 1 1 6.75V2.604a.25.25 0 0 1 .427-.177l1.438 1.438A8 8 0 1 1 9 17" />
	<path fill="currentColor"
		d="m11.61 9.639-3.331 2.07a.826.826 0 0 1-1.15-.266.86.86 0 0 1-.129-.452V6.849C7 6.38 7.374 6 7.834 6c.158 0 .312.045.445.13l3.331 2.071a.858.858 0 0 1 0 1.438" />
</svg>