<svg width="28" height="28" viewBox="0 0 28 28" fill="none" xmlns="http://www.w3.org/2000/svg">
<path d="M8 8H7C5.34315 8 4 9.34315 4 11V21C4 22.6569 5.34315 24 7 24H17C18.6569 24 20 22.6569 20 21V20H18V21C18 21.5523 17.5523 22 17 22H7C6.44772 22 6 21.5523 6 21V11C6 10.4477 6.44772 10 7 10H8V8Z" fill="#B4C0D2"/>
<path fill-rule="evenodd" clip-rule="evenodd" d="M21 6H11C10.4477 6 10 6.44772 10 7V17C10 17.5523 10.4477 18 11 18H21C21.5523 18 22 17.5523 22 17V7C22 6.44772 21.5523 6 21 6ZM11 4C9.34315 4 8 5.34315 8 7V17C8 18.6569 9.34315 20 11 20H21C22.6569 20 24 18.6569 24 17V7C24 5.34315 22.6569 4 21 4H11Z" fill="#B4C0D2"/>
<path fill-rule="evenodd" clip-rule="evenodd" d="M16.9913 8.73122C16.6646 7.75626 15.3354 7.75626 15.0087 8.73122L14.7593 9.47552C14.6152 9.90562 14.2283 10.1972 13.7894 10.2065L13.0299 10.2226C12.0351 10.2436 11.6244 11.5549 12.4173 12.1785L13.0226 12.6546C13.3724 12.9297 13.5202 13.4015 13.3931 13.8374L13.1731 14.5916C12.885 15.5795 13.9603 16.39 14.7771 15.8004L15.4006 15.3504C15.7609 15.0903 16.2391 15.0903 16.5994 15.3504L17.2229 15.8004C18.0397 16.39 19.115 15.5795 18.8269 14.5916L18.6069 13.8374C18.4798 13.4015 18.6276 12.9297 18.9774 12.6546L19.5827 12.1785C20.3756 11.5549 19.9649 10.2436 18.9701 10.2226L18.2106 10.2065C17.7717 10.1972 17.3848 9.90562 17.2407 9.47552L16.9913 8.73122Z" fill="#B4C0D2"/>
<circle cx="23" cy="5" r="4" fill="#E63C62"/>
</svg>
