<svg width="129" height="20" viewBox="0 0 129 20" fill="none" xmlns="http://www.w3.org/2000/svg">
<g clip-path="url(#clip0_421_9921)">
<path d="M46.7963 17.1263C45.3379 17.1263 44.0915 16.8677 43.0571 16.352C42.0227 15.8363 41.2303 15.032 40.6831 13.9359C40.1343 12.8414 39.8607 11.4296 39.8607 9.70058C39.8607 7.17771 40.4711 5.30887 41.6934 4.09554C42.9158 2.88222 44.6162 2.27631 46.7963 2.27631C47.9765 2.27631 49.0425 2.47929 49.9942 2.88222C50.9444 3.28666 51.7022 3.89708 52.2645 4.71198C52.8268 5.52687 53.108 6.56278 53.108 7.8182H50.337C50.337 7.12208 50.1867 6.53121 49.889 6.05009C49.5898 5.56897 49.1763 5.20362 48.6486 4.95254C48.1209 4.70145 47.5165 4.57516 46.8369 4.57516C45.8927 4.57516 45.1079 4.76009 44.4839 5.12995C43.8585 5.49981 43.3969 6.04708 43.0992 6.77177C42.8 7.49645 42.6511 8.39554 42.6511 9.47054V9.93061C42.6511 11.0176 42.8 11.9243 43.0992 12.6489C43.3969 13.3736 43.8554 13.9179 44.4734 14.2802C45.0913 14.6426 45.8807 14.8245 46.8384 14.8245C47.5601 14.8245 48.193 14.7027 48.7343 14.4591C49.2756 14.2156 49.695 13.8517 49.9942 13.3721C50.2919 12.891 50.4408 12.3016 50.4408 11.604H53.108C53.108 12.8594 52.8298 13.8953 52.275 14.7102C51.7202 15.5266 50.967 16.1325 50.0153 16.531C49.0636 16.9279 47.9901 17.1263 46.7963 17.1263Z" fill="white"/>
<path d="M61.8509 17.1263C60.3925 17.1263 59.1461 16.8677 58.1117 16.352C57.0773 15.8363 56.2849 15.032 55.7376 13.9359C55.1889 12.8414 54.9152 11.4296 54.9152 9.70058C54.9152 7.17771 55.5256 5.30887 56.748 4.09554C57.9703 2.88222 59.6708 2.27631 61.8509 2.27631C63.0311 2.27631 64.0971 2.47929 65.0488 2.88222C65.999 3.28666 66.7568 3.89708 67.3191 4.71198C67.8814 5.52687 68.1625 6.56278 68.1625 7.8182H65.3931C65.3931 7.12208 65.2427 6.53121 64.945 6.05009C64.6459 5.56897 64.2324 5.20362 63.7047 4.95254C63.1769 4.70145 62.5725 4.57516 61.893 4.57516C60.9488 4.57516 60.1639 4.76009 59.54 5.12995C58.9145 5.49981 58.453 6.04708 58.1538 6.77177C57.8561 7.49645 57.7057 8.39554 57.7057 9.47054V9.93061C57.7057 11.0176 57.8561 11.9243 58.1538 12.6489C58.4514 13.3736 58.91 13.9179 59.5279 14.2802C60.1459 14.6426 60.9352 14.8245 61.893 14.8245C62.6146 14.8245 63.2476 14.7027 63.7889 14.4591C64.3301 14.2156 64.7496 13.8517 65.0488 13.3721C65.3465 12.891 65.4953 12.3016 65.4953 11.604H68.1625C68.1625 12.8594 67.8844 13.8953 67.3296 14.7102C66.7748 15.5266 66.0216 16.1325 65.0698 16.531C64.1181 16.9279 63.0446 17.1263 61.8509 17.1263Z" fill="white"/>
<path d="M34.6121 14.0832C34.2422 14.3975 33.7731 14.5538 33.2018 14.5538H32.2771H31.8562H28.7123H28.5876H28.1846V10.6643H28.1861H28.7123H31.8562H33.0349C33.522 10.6643 33.9235 10.744 34.2347 10.9033C34.5489 11.0642 34.782 11.2912 34.9338 11.5844C35.0872 11.8761 35.1638 12.2189 35.1638 12.6083C35.1653 13.2774 34.9819 13.769 34.6121 14.0832ZM28.1846 4.84876H28.5876H28.7123H31.8562H32.2771H32.9943C33.5235 4.84876 33.9505 4.9961 34.2783 5.28928C34.6045 5.58096 34.7684 6.03502 34.7684 6.64844C34.7684 6.96869 34.6963 7.26187 34.5489 7.52648C34.4031 7.7926 34.1866 8.00009 33.9024 8.15495C33.6167 8.3083 33.2649 8.38498 32.847 8.38498H31.8562H28.7123H28.1861H28.1846V4.84876ZM37.6085 11.2597C37.3725 10.7785 37.0447 10.3801 36.6283 10.0674C36.2103 9.75316 35.7367 9.54117 35.2089 9.42991V9.34722C35.654 9.19386 36.0539 8.96683 36.4087 8.66764C36.7636 8.36694 37.0447 7.99558 37.2537 7.54753C37.4627 7.101 37.5679 6.60634 37.5679 6.06358C37.5679 5.35243 37.3935 4.73148 37.0447 4.20225C36.6959 3.67302 36.2208 3.26106 35.6149 2.96788C35.009 2.6762 34.3234 2.52886 33.5581 2.52886H32.2771H31.8562H28.7123H28.5876H25.4693V16.8767H28.5876H28.7123H31.8562H32.2771H33.5581C34.379 16.8767 35.1202 16.7339 35.7818 16.4482C36.4433 16.1626 36.9726 15.7266 37.3695 15.1402C37.7664 14.5553 37.9649 13.8171 37.9649 12.924C37.9649 12.2956 37.8461 11.7408 37.6085 11.2597Z" fill="white"/>
<path d="M14.5824 7.98206C14.5824 8.56993 14.1013 9.05255 13.5119 9.05255H12.8699C12.2821 9.05255 11.7994 8.56993 11.7994 7.98206V7.34157C11.7994 6.75371 12.2806 6.27108 12.8699 6.27108H13.5119C14.0998 6.27108 14.5824 6.75371 14.5824 7.34157V7.98206ZM11.2913 15.7597C11.2913 16.3475 10.8086 16.8301 10.2208 16.8301H9.57878C8.99091 16.8301 8.50829 16.349 8.50829 15.7597V15.1177C8.50829 14.5298 8.98941 14.0472 9.57878 14.0472H10.2208C10.8086 14.0472 11.2913 14.5283 11.2913 15.1177V15.7597ZM11.2913 12.467C11.2913 13.0549 10.8086 13.5375 10.2208 13.5375H9.57878C8.99091 13.5375 8.50829 13.0549 8.50829 12.467V12.1467V9.04353H8.39552H7.85878H7.68888H7.51748H7.46636H7.21979H6.93112H6.76122H6.28913C5.70126 9.04353 5.21864 8.56091 5.21864 7.97304V7.33255C5.21864 6.74469 5.69976 6.26206 6.28913 6.26206H6.76122H6.93112H7.21979H7.46636H7.51748H7.69189H7.86178H8.39853H9.58028H9.90052H10.2223C10.8101 6.26206 11.2928 6.74469 11.2928 7.33255V7.97304V7.97455V11.825V11.8265V12.467H11.2913ZM11.2913 4.68189C11.2913 5.26975 10.8086 5.75238 10.2208 5.75238H9.57878C8.99091 5.75238 8.50829 5.27126 8.50829 4.68189V4.0399C8.50829 3.45203 8.98941 2.96941 9.57878 2.96941H10.2208C10.8086 2.96941 11.2913 3.45052 11.2913 4.0399V4.68189ZM19.7995 9.89902C19.7995 4.43231 15.3672 0 9.89902 0C4.43231 0 0 4.43231 0 9.89902C0 15.3657 4.43231 19.798 9.89902 19.798C15.3672 19.7995 19.7995 15.3672 19.7995 9.89902Z" fill="white"/>
<path d="M121.436 15.1793C121.158 15.0681 120.949 14.9057 120.81 14.6892C120.672 14.4742 120.601 14.2066 120.601 13.8878C120.601 13.3601 120.803 12.9466 121.206 12.6474C121.609 12.3482 122.171 12.1438 122.894 12.0325C123.616 11.9212 124.456 11.8656 125.416 11.8656V12.5948C125.416 12.9977 125.339 13.3691 125.186 13.7104C125.032 14.0502 124.825 14.3419 124.56 14.5854C124.296 14.829 123.98 15.0169 123.613 15.1477C123.243 15.28 122.845 15.3462 122.415 15.3462C122.04 15.3462 121.714 15.2906 121.436 15.1793ZM123.353 16.9414C123.811 16.8091 124.217 16.6212 124.571 16.3776C124.926 16.1355 125.228 15.8544 125.477 15.5341H125.602C125.658 15.8393 125.766 16.113 125.925 16.3581C126.085 16.6001 126.294 16.7881 126.551 16.9204C126.808 17.0512 127.124 17.1188 127.5 17.1188C127.832 17.1188 128.125 17.0827 128.375 17.0151C128.624 16.9459 128.833 16.8753 129 16.8061V15.3462H128.25C128.069 15.3462 127.913 15.2906 127.782 15.1793C127.65 15.0681 127.584 14.8816 127.584 14.617V9.05257C127.584 8.34291 127.424 7.74001 127.104 7.23935C126.784 6.74019 126.309 6.35379 125.677 6.08316C125.044 5.81253 124.256 5.67722 123.312 5.67722C122.436 5.67722 121.666 5.79599 121 6.03054C120.332 6.26659 119.815 6.61089 119.447 7.06194C119.078 7.51449 118.895 8.06627 118.895 8.71879V8.96987C118.895 9.03903 118.903 9.10819 118.916 9.17886H121V8.86613C121 8.61505 121.066 8.38201 121.197 8.16701C121.329 7.95201 121.558 7.77159 121.884 7.62424C122.21 7.4784 122.666 7.40624 123.249 7.40624C123.833 7.40624 124.281 7.48291 124.593 7.63627C124.906 7.78963 125.121 8.00463 125.24 8.28277C125.357 8.56092 125.417 8.87966 125.417 9.2405V10.3245C124.389 10.3245 123.442 10.3802 122.573 10.4914C121.705 10.6027 120.958 10.7966 120.332 11.0748C119.707 11.3529 119.221 11.7348 118.874 12.2204C118.527 12.7076 118.354 13.3255 118.354 14.0757C118.354 14.7147 118.464 15.2319 118.686 15.6274C118.909 16.0243 119.197 16.3325 119.551 16.555C119.905 16.7775 120.284 16.9309 120.686 17.0136C121.089 17.0963 121.464 17.1384 121.812 17.1384C122.38 17.1384 122.894 17.0722 123.353 16.9414ZM116.246 5.9268H114.079V16.8888H116.246V5.9268ZM116.246 1.82225H114.079V4.03089H116.246V1.82225ZM104.858 14.8876C104.463 14.6381 104.168 14.2456 103.973 13.7104C103.779 13.1752 103.681 12.4775 103.681 11.616V11.2402C103.681 10.3786 103.776 9.67652 103.962 9.13526C104.15 8.594 104.445 8.19407 104.848 7.93847C105.251 7.68138 105.771 7.55208 106.41 7.55208C106.826 7.55208 107.202 7.62124 107.536 7.76106C107.87 7.90089 108.154 8.11889 108.39 8.41809C108.626 8.71578 108.807 9.10218 108.933 9.57428C109.058 10.0464 109.119 10.6162 109.119 11.2838V11.5754C109.119 12.3678 109.022 13.0383 108.828 13.5871C108.632 14.1359 108.337 14.5524 107.942 14.8365C107.545 15.1222 107.028 15.265 106.39 15.265C105.765 15.2635 105.255 15.1387 104.858 14.8876ZM107.735 16.7009C108.325 16.4092 108.801 15.9702 109.161 15.3868H109.309L109.518 16.8873H111.289V1.82225H109.122V7.2604H108.976C108.754 6.89956 108.48 6.60036 108.153 6.36431C107.826 6.12826 107.455 5.95536 107.038 5.8441C106.62 5.73284 106.169 5.67722 105.684 5.67722C104.851 5.67722 104.114 5.87868 103.475 6.28162C102.836 6.68456 102.336 7.3025 101.975 8.13694C101.614 8.97138 101.432 10.0479 101.432 11.3664C101.432 12.7151 101.609 13.8111 101.964 14.6591C102.317 15.5071 102.821 16.131 103.475 16.5355C104.128 16.9384 104.899 17.1399 105.788 17.1399C106.494 17.1384 107.144 16.9925 107.735 16.7009ZM92.5748 8.70977C92.7973 8.27225 93.1131 7.949 93.5235 7.74152C93.9325 7.53253 94.4301 7.42879 95.0135 7.42879C95.4014 7.42879 95.7502 7.47991 96.0554 7.58515C96.3606 7.68889 96.6252 7.86029 96.8477 8.09634C97.0703 8.33239 97.2402 8.6361 97.3589 9.00295C97.4777 9.37131 97.5363 9.82536 97.5363 10.3666H92.1598C92.2125 9.69907 92.3523 9.14729 92.5748 8.70977ZM96.95 16.8677C97.5333 16.6873 98.037 16.4272 98.461 16.0874C98.885 15.7461 99.2082 15.3267 99.4308 14.826C99.6518 14.3253 99.763 13.7495 99.763 13.097H97.6371C97.6371 13.4578 97.5754 13.7811 97.4506 14.0652C97.3259 14.3509 97.1515 14.5929 96.9304 14.7944C96.7079 14.9959 96.4373 15.1477 96.117 15.253C95.7968 15.3567 95.436 15.4093 95.0345 15.4093C94.3805 15.4093 93.8438 15.2876 93.4198 15.044C92.9958 14.8019 92.68 14.4185 92.4711 13.8983C92.2621 13.3781 92.1448 12.7286 92.1177 11.9498H99.8066V11.1169C99.8066 9.89452 99.6262 8.87966 99.2654 8.07529C98.903 7.26942 98.3723 6.66802 97.6702 6.2726C96.968 5.87718 96.0975 5.67872 95.0556 5.67872C93.9174 5.67872 92.9657 5.8847 92.2004 6.29365C91.4352 6.7026 90.8593 7.32805 90.4714 8.16851C90.082 9.01047 89.8881 10.09 89.8881 11.41C89.8881 12.7151 90.082 13.7931 90.4714 14.6396C90.8593 15.4875 91.4337 16.1145 92.1899 16.5249C92.9462 16.9339 93.8874 17.1399 95.0135 17.1399C95.7216 17.1384 96.3666 17.0482 96.95 16.8677ZM75.3823 16.8888V9.05257C75.3823 8.66466 75.3748 8.22263 75.3613 7.72949C75.3477 7.23634 75.3372 6.7462 75.3297 6.26057C75.3222 5.77344 75.3132 5.36449 75.2996 5.03071H75.465C75.5342 5.33592 75.6184 5.67722 75.7161 6.05159C75.8138 6.42746 75.9101 6.79431 76.0078 7.15666C76.1055 7.5175 76.1957 7.83022 76.2784 8.09484L79.1741 16.8888H81.2369L84.1342 8.07379C84.2319 7.76858 84.3356 7.40624 84.4469 6.98977C84.5582 6.5733 84.6649 6.18089 84.7702 5.81253C84.8739 5.44417 84.9401 5.18407 84.9686 5.03071H85.1355C85.1355 5.1555 85.128 5.43966 85.1145 5.8847C85.1009 6.32973 85.0859 6.83641 85.0724 7.40624C85.0588 7.97606 85.0513 8.52484 85.0513 9.05257V16.8888H87.3652V2.59354H83.7794L80.9874 11.2417C80.9047 11.5198 80.8235 11.8175 80.7483 12.1377C80.6716 12.458 80.598 12.7632 80.5303 13.0534C80.4611 13.345 80.4115 13.5961 80.3845 13.8036H80.2176C80.1755 13.5826 80.1168 13.324 80.0402 13.0323C79.9635 12.7406 79.8838 12.4339 79.8011 12.1152C79.7169 11.7949 79.6342 11.5108 79.55 11.2612L76.7791 2.59204H73.1316V16.8873H75.3823V16.8888Z" fill="white"/>
</g>
<defs>
<clipPath id="clip0_421_9921">
<rect width="129" height="19.7995" fill="white"/>
</clipPath>
</defs>
</svg>
