<svg id="hvit" xmlns="http://www.w3.org/2000/svg" viewBox="0 0 421.27 91.82"><defs><style>.cls-1{fill:#fff;}</style></defs><title>logo</title><path class="cls-1" d="M346.36,28.71h-7.91V45.88h-0.15q-2.3-5.34-8.6-5.6c-0.27,0-.54,0-0.8,0a10,10,0,0,0-7.47,3.54q-3.63,3.92-3.84,16.47-0.4,20.87,12.81,21.23,4-.11,5.82-1.9a10.79,10.79,0,0,0,2.52-3.85h0.15v4.61h7.47V28.71m74.91,0h-4.91L404.8,75.31h-0.1L393.2,28.75h-4.87l13.56,51.57h5.78l13.61-51.57m-37.77.14H352.18v3.82h13.27v47.7h4.72V32.71H383.5V28.89m-108.16,1.5h-7.83V41.48h-5.38v5.9h5.38V71.54q0,5.81,1.94,7.65a8.24,8.24,0,0,0,5.74,1.8h0.3a27,27,0,0,0,6.26-.62V74.54a17.23,17.23,0,0,1-2.82.18h-0.41q-3.35,0-3.18-4.15V47.38h6.41v-5.9h-6.41V30.39m-57.45,9.89h-0.13q-6.77.25-10,5.6h-0.22V41.48h-7.43V80.4H208V54.11a8.08,8.08,0,0,1,1.9-5.64,5.6,5.6,0,0,1,4.28-2h0.32q5.31,0,5.1,7.07V80.4h7.91V50.89q-0.07-5.86-2.67-8.24a9.92,9.92,0,0,0-7-2.38m81,0q-7.61.07-10.73,3.37t-3,9.63h7.58a11.21,11.21,0,0,1,1-5.24q1.13-2.23,4.83-2.38,5.67,0.29,5.27,5.89a4.51,4.51,0,0,1-1.21,3.52,7.12,7.12,0,0,1-3.26,1.53l-5.93,1.69a14.31,14.31,0,0,0-6.51,3.44q-2.49,2.49-2.64,8.75,0.43,11,9.92,11h0.25a9.84,9.84,0,0,0,9.48-5.82h0.18Q305,81,310.41,81h0.44a9.58,9.58,0,0,0,3.81-1V74.79a3.06,3.06,0,0,1-1.28.22q-1.9-.29-2-2.71V50q-0.18-5.16-3.66-7.47a16.34,16.34,0,0,0-8.79-2.23m-52.13,0q-6.08,0-9.66,2.63T233.43,51q-0.07,4.65,2,7.25a12.87,12.87,0,0,0,6.44,4l6.22,2.34a5.61,5.61,0,0,1,4.21,5.78q0,5.53-6.22,5.68-6.26,0-5.93-7V67.92H233.1v1.43q-0.11,5.79,2.71,8.9t10.06,3.26H246a16.13,16.13,0,0,0,9.76-2.82q4-2.82,4.1-9.08,0.08-8.82-8.64-11.31l-4.9-1.72q-5.71-1.72-5.38-5.78,0.43-5.13,5.22-5.13h0.27q2.89,0,4,1.87a7.7,7.7,0,0,1,1,4.17v1.06H259V51a10.61,10.61,0,0,0-2.38-7.14q-2.56-3.33-9.84-3.59m-87,0q-6.55.33-9,7.17h-0.15v-6h-7.91V80.4h7.91V57q0.15-5.31,2.6-7.1a7.61,7.61,0,0,1,4.8-1.73h0.4a14.29,14.29,0,0,1,3.26.44V40.61a6.72,6.72,0,0,0-1.87-.33m33,1.21h-7.87V68.8A6.86,6.86,0,0,1,183,73.7a6.57,6.57,0,0,1-4.43,1.61l-0.5,0q-4.6,0-4.73-5.87v-28h-7.91V68.8q0.07,7.35,2.71,10.07a8.52,8.52,0,0,0,6.53,2.64h0.54q6.74-.14,9.92-5.53h0.26v4.39h7.43V41.48M296.95,75.6q-4.8-.48-4.76-5.82-0.07-4.5,3.11-6.3a38,38,0,0,1,4.36-1.65,14.63,14.63,0,0,0,4.14-2v6.59q0,8.86-6.84,9.19M113,74.18V56.39h7.58q7.54,0.21,8,8.75-0.07,8.93-7.5,9H113m219.42,1.13a5.29,5.29,0,0,1-5.23-3.92A32.93,32.93,0,0,1,326,60.78q0-7.8,1.39-11.13a4.57,4.57,0,0,1,4.47-3.15H332a5.57,5.57,0,0,1,5.64,3.91q1.36,3.81,1.28,10.91a30.08,30.08,0,0,1-1.28,10.18,5.28,5.28,0,0,1-5.16,3.81M113,50.45V35h6.2a9.57,9.57,0,0,1,5.29,1.36q2.31,1.54,2.41,6-0.07,7.72-7.54,8.13H113m8.45-21.75H104.62V80.4H121q7.35,0,11.6-3.84T137,66.3q0-6.41-2.53-9.45a10.45,10.45,0,0,0-6.88-3.7V53q7.8-2.38,7.76-11.75-0.14-6.73-4.17-9.66a15.88,15.88,0,0,0-9.7-2.86"/><polygon class="cls-1" points="43.22 68.24 6.39 80.37 43.08 87.26 80.05 80.37 43.22 68.24"/><polygon class="cls-1" points="44.64 5.87 81.47 28.64 44.64 42.9 44.64 5.87"/><polygon class="cls-1" points="41.8 5.87 41.81 42.9 4.98 28.64 41.8 5.87"/><path class="cls-1" d="M43.22,3L84,28.28V81.83l-41,7.63L2.4,81.83V28.28ZM86.44,29.14V26.71l-2.06-1.27L45.5,1.41,43.22,0,40.94,1.41l-38.87,24L0,26.71v57l3.54,0.67,38.73,7.27,0.8,0.15,0.8-.15,39-7.27,3.55-.66V80.14"/><polygon class="cls-1" points="44.64 44.58 44.64 44.58 44.64 66.51 81.47 78.64 81.47 30.32 44.64 44.58"/><polygon class="cls-1" points="4.97 30.32 4.97 78.64 41.8 66.51 41.8 44.58 4.97 30.32"/></svg>