<svg width="107" height="26" viewBox="0 0 107 26" fill="none" xmlns="http://www.w3.org/2000/svg">
<mask id="mask0_201_5058" style="mask-type:alpha" maskUnits="userSpaceOnUse" x="28" y="8" width="79" height="14">
<path fill-rule="evenodd" clip-rule="evenodd" d="M28.3188 8.30473H106.031V21.2916H28.3188V8.30473Z" fill="white"/>
</mask>
<g mask="url(#mask0_201_5058)">
<path fill-rule="evenodd" clip-rule="evenodd" d="M32.4603 8.30473H32.4246H28.3188V21.0186H32.3439C33.5473 21.0128 34.4967 20.6977 35.1917 20.0737C35.8981 19.4611 36.2573 18.621 36.2697 17.5523C36.2697 16.502 36.0632 15.7277 35.65 15.2291C35.2364 14.7249 34.6735 14.4214 33.961 14.3198V14.2746C35.2364 13.8848 35.8711 12.9212 35.8649 11.3846C35.8414 10.2802 35.4999 9.48728 34.8413 9.00743C34.2079 8.53846 33.4145 8.30473 32.4603 8.30473ZM30.3854 13.6537V9.8449H31.7868C31.8274 9.84341 31.8676 9.84251 31.9076 9.84251C32.428 9.84251 32.8612 9.95446 33.2063 10.1784C33.5835 10.4301 33.7811 10.9227 33.7988 11.6549C33.7871 12.9212 33.1702 13.5874 31.9483 13.6537H30.3854ZM84.2334 19.7672C83.5927 19.7494 83.1642 19.4282 82.9488 18.8035C82.7331 18.1678 82.6311 17.297 82.6433 16.193C82.6372 14.914 82.7511 14.0017 82.9852 13.4555C83.2016 12.9388 83.5669 12.6809 84.0821 12.6809C84.0936 12.6809 84.1049 12.6809 84.117 12.6814C84.8117 12.6931 85.2729 13.0139 85.5002 13.6441C85.7219 14.2688 85.8268 15.1628 85.8149 16.3277C85.8268 17.3721 85.7219 18.2064 85.5002 18.831C85.279 19.437 84.8566 19.7494 84.2334 19.7672ZM30.3854 19.4883V15.1128H32.2449C33.4785 15.1482 34.1344 15.8658 34.2123 17.2643C34.2001 18.7286 33.5865 19.4702 32.3704 19.4883H30.3854ZM75.5196 19.8395C74.7349 19.7612 74.3459 19.2841 74.3513 18.4083C74.3399 17.6696 74.5942 17.1528 75.115 16.8592C75.4144 16.7208 75.771 16.5859 76.1838 16.4541C76.5917 16.3215 76.9297 16.1566 77.1992 15.9588V17.5795C77.1992 19.0317 76.6399 19.7852 75.5196 19.8395ZM49.9608 11.4475H48.0293V18.1651C48.0049 18.693 47.8468 19.095 47.5531 19.3711C47.2482 19.6348 46.8854 19.7672 46.4664 19.7672C46.424 19.77 46.3831 19.7715 46.3431 19.7715C45.591 19.7715 45.2043 19.2897 45.1814 18.3273V11.4475H43.2409V18.1651C43.2531 19.3711 43.4744 20.1962 43.906 20.641C44.3105 21.0744 44.8443 21.2916 45.5077 21.2916C45.5508 21.2916 45.5951 21.2907 45.6392 21.2887C46.7417 21.2649 47.5531 20.8123 48.0744 19.9295H48.1371V21.01H49.9608V11.4475ZM41.8575 11.1507C40.7851 11.2044 40.0458 11.7928 39.6385 12.9154H39.6024V11.4475H37.662V21.0186H39.6024V15.2738C39.6263 14.4039 39.839 13.8214 40.2405 13.5276C40.6019 13.2432 40.9944 13.1013 41.4181 13.1013C41.4506 13.1013 41.4834 13.1025 41.5163 13.1041C41.8755 13.1225 42.1417 13.1584 42.3156 13.2125V11.232C42.2017 11.1895 42.0489 11.163 41.8575 11.1507ZM63.2117 11.1507C62.2172 11.1507 61.4272 11.3663 60.8398 11.7984C60.2409 12.2312 59.9388 12.8975 59.9325 13.7977C59.9208 14.5598 60.0856 15.1543 60.4268 15.5802C60.7565 16.0066 61.2835 16.3367 62.0081 16.5707L63.5352 17.1472C64.2183 17.3694 64.5623 17.8441 64.5684 18.57C64.5684 19.4769 64.0591 19.9414 63.0411 19.9659C62.0169 19.9595 61.5319 19.3896 61.586 18.2552V17.9486H59.8516V18.2993C59.8339 19.2484 60.0554 19.9777 60.5169 20.4881C60.9897 21.0158 61.8134 21.2829 62.9872 21.2887H63.0274C63.9918 21.2887 64.7905 21.0571 65.4218 20.5959C66.0684 20.1328 66.4042 19.3896 66.4279 18.363C66.4401 16.916 65.7331 15.9888 64.3078 15.5802L63.1043 15.1569C62.1692 14.8754 61.7297 14.4009 61.7832 13.735C61.8533 12.8941 62.28 12.4736 63.064 12.4736C63.0858 12.4736 63.1084 12.4739 63.1305 12.4743C63.604 12.4804 63.9306 12.6334 64.1103 12.933C64.284 13.2213 64.3673 13.5637 64.3617 13.9599V14.2209H66.2122V13.7887C66.2363 13.1471 66.0417 12.5614 65.6278 12.0328C65.2091 11.4873 64.4033 11.1925 63.2117 11.1507ZM76.0042 11.1507C74.759 11.163 73.8818 11.4389 73.3723 11.9791C72.8574 12.5189 72.6089 13.3084 72.6264 14.3471H74.4866C74.4684 13.8604 74.5463 13.4313 74.72 13.0593C74.905 12.6931 75.3014 12.498 75.9056 12.4743C76.834 12.5219 77.2656 13.0051 77.1992 13.9231C77.1934 14.3375 77.095 14.6258 76.9028 14.7883C76.7114 14.9624 76.4447 15.0879 76.1028 15.1654L74.648 15.5802C73.9833 15.7538 73.4503 16.0368 73.0496 16.4269C72.6419 16.835 72.4261 17.5523 72.402 18.579C72.4728 20.3857 73.2847 21.289 74.8369 21.289C74.8576 21.289 74.8784 21.289 74.8997 21.2887C75.9777 21.2887 76.7529 20.8123 77.2265 19.8574H77.2717C77.4149 20.729 77.9332 21.1648 78.825 21.1648C78.8603 21.1648 78.8969 21.1644 78.9333 21.1629C79.3227 21.1264 79.6338 21.0431 79.8675 20.9108V19.6403C79.7896 19.6773 79.6849 19.6953 79.5531 19.6953C79.2419 19.6472 79.077 19.4254 79.059 19.0293V13.5364C79.0292 12.6902 78.7294 12.0784 78.1608 11.6996C77.5737 11.3339 76.8555 11.1507 76.0042 11.1507ZM56.119 11.1507H56.0877C54.9797 11.1925 54.1651 11.6518 53.6447 12.528H53.5903V11.4475H51.7665V21.0186H53.6981V14.554C53.7097 13.9416 53.866 13.4796 54.1651 13.1673C54.4584 12.8434 54.8087 12.6814 55.2165 12.6814C55.2431 12.6802 55.2692 12.6793 55.2952 12.6793C56.1634 12.6793 56.5806 13.2589 56.5457 14.4188V21.0186H58.4863V13.7618C58.4741 12.8014 58.256 12.1259 57.8308 11.7357C57.4054 11.3454 56.8352 11.1507 56.119 11.1507ZM70.2188 8.71914H68.2965V11.4475H66.9764V12.8975H68.2965V18.8401C68.2965 19.7934 68.4557 20.4217 68.7731 20.7217C69.0951 21.0158 69.5643 21.1638 70.1805 21.1638C70.2054 21.1638 70.2302 21.1634 70.2555 21.1629C70.8596 21.1629 71.3722 21.1116 71.7913 21.01V19.5783C71.6176 19.6083 71.3866 19.6227 71.0996 19.6227C71.065 19.6251 71.032 19.6263 71.0001 19.6263C70.4512 19.6263 70.1911 19.2863 70.2188 18.6062V12.8975H71.7913V11.4475H70.2188V8.71914ZM96.7622 8.35049H89.0751V9.29022H92.3328V21.0231H93.4923V9.29022H96.7622V8.35049ZM106.031 8.31516H104.825L101.989 19.7666H101.964L99.1409 8.31516H97.9455L101.274 20.9992H102.692L106.031 8.31516ZM87.6476 8.30473H85.7071V12.528H85.6709C85.2939 11.6518 84.5904 11.1925 83.5597 11.1507C83.4939 11.1458 83.4282 11.1431 83.3632 11.1431C82.6769 11.1431 82.0658 11.434 81.5297 12.0147C80.9364 12.6571 80.6217 14.0075 80.5868 16.0666C80.5207 19.4883 81.5678 21.2291 83.7304 21.2887C84.3772 21.2707 84.8539 21.1151 85.159 20.8211C85.4527 20.5207 85.6592 20.2053 85.7784 19.8753H85.8149V21.01H87.6476V8.30473Z" fill="#FEFEFE"/>
</g>
<path fill-rule="evenodd" clip-rule="evenodd" d="M11.1651 0.649117L10.5751 1.01478L0.532315 7.2357L0 7.56574V8.19272V21.3979V22.3313L0.915302 22.5037L10.9195 24.3851L11.1255 24.4237L11.3318 24.3851L21.4132 22.5042L22.33 22.3329V21.3979V8.19272V7.56574L21.7978 7.2357L11.7552 1.01478L11.1651 0.649117Z" fill="#C6E0F4"/>
<path fill-rule="evenodd" clip-rule="evenodd" d="M11.1651 18.0825L1.1225 21.3979L11.1263 23.2803L21.2081 21.3979L11.1651 18.0825Z" fill="#A7D2F0"/>
<path fill-rule="evenodd" clip-rule="evenodd" d="M11.1651 1.97107L21.2081 8.19273L11.167 12.0898L11.1651 1.97107Z" fill="#A7D2F0"/>
<path fill-rule="evenodd" clip-rule="evenodd" d="M11.1651 1.97107L11.167 12.0898L1.1225 8.19273L11.1651 1.97107Z" fill="#B9DAF2"/>
<path fill-rule="evenodd" clip-rule="evenodd" d="M11.1672 12.0898L11.1653 12.0891V18.0825L21.2083 21.3979V8.19272L11.1672 12.0898Z" fill="#B9DAF2"/>
<path fill-rule="evenodd" clip-rule="evenodd" d="M1.1225 8.19278V21.3978L11.1651 18.0824V12.0891L1.1225 8.19278Z" fill="#C6E0F4"/>
</svg>
