<svg width="24" height="24" viewBox="0 0 24 24" fill="none" xmlns="http://www.w3.org/2000/svg">
<rect x="2" y="6" width="12" height="12" rx="2" stroke="#6EB0E6" stroke-width="2" stroke-linejoin="round"/>
<path d="M21 6.75736H22C22 6.3529 21.7564 5.98826 21.3827 5.83348C21.009 5.6787 20.5789 5.76426 20.2929 6.05026L21 6.75736ZM21 16.6569L20.2929 17.364C20.5789 17.65 21.009 17.7355 21.3827 17.5807C21.7564 17.426 22 17.0613 22 16.6569H21ZM20 6.75736L20 16.6569H22L22 6.75736H20ZM21.7071 15.9498L18.1716 12.4142L16.7574 13.8284L20.2929 17.364L21.7071 15.9498ZM18.1716 11L21.7071 7.46447L20.2929 6.05026L16.7574 9.58579L18.1716 11ZM18.1716 12.4142C17.781 12.0237 17.781 11.3905 18.1716 11L16.7574 9.58579C15.5858 10.7574 15.5858 12.6569 16.7574 13.8284L18.1716 12.4142Z" fill="#6EB0E6"/>
</svg>
