<svg width="24" height="24" viewBox="0 0 24 24" fill="none" xmlns="http://www.w3.org/2000/svg">
<path d="M7 8V8.75C7.14807 8.75 7.29282 8.70617 7.41603 8.62404L7 8ZM13 4H13.75C13.75 3.7234 13.5978 3.46926 13.3539 3.33874C13.11 3.20823 12.8141 3.22253 12.584 3.37596L13 4ZM3 8V7.25C2.58579 7.25 2.25 7.58579 2.25 8H3ZM3 16H2.25C2.25 16.4142 2.58579 16.75 3 16.75V16ZM7 16L7.41603 15.376C7.29282 15.2938 7.14807 15.25 7 15.25V16ZM13 20L12.584 20.624C12.8141 20.7775 13.11 20.7918 13.3539 20.6613C13.5978 20.5307 13.75 20.2766 13.75 20H13ZM7.41603 8.62404L13.416 4.62404L12.584 3.37596L6.58397 7.37596L7.41603 8.62404ZM3 8.75H7V7.25H3V8.75ZM3.75 16V8H2.25V16H3.75ZM7 15.25H3V16.75H7V15.25ZM13.416 19.376L7.41603 15.376L6.58397 16.624L12.584 20.624L13.416 19.376ZM12.25 4V20H13.75V4H12.25Z" fill="white"/>
<path d="M18.6568 17.6568C21.781 14.5327 21.781 9.46733 18.6568 6.34314" stroke="white" stroke-width="1.5" stroke-linejoin="round"/>
</svg>
