<svg width="32" height="32" viewBox="0 0 32 32" fill="none" xmlns="http://www.w3.org/2000/svg">
<path d="M4 17.3333C4 23.9608 9.37258 29.3333 16 29.3333C22.6274 29.3333 28 23.9608 28 17.3333C28 10.7059 22.6274 5.33333 16 5.33333" stroke="white" stroke-width="2"/>
<path d="M11.6677 13.1107C11.7166 13.0813 11.7899 13.0667 11.8877 13.0667H13.6623C13.7112 13.0667 13.7503 13.0862 13.7797 13.1253C13.8188 13.1547 13.8383 13.1938 13.8383 13.2427V23.1573C13.8383 23.2062 13.8188 23.2502 13.7797 23.2893C13.7503 23.3187 13.7112 23.3333 13.6623 23.3333H11.9463C11.8975 23.3333 11.8535 23.3187 11.8143 23.2893C11.785 23.2502 11.7703 23.2062 11.7703 23.1573V15.12C11.7703 15.1004 11.7606 15.0809 11.741 15.0613C11.7215 15.0418 11.7019 15.0369 11.6823 15.0467L10.2303 15.4427L10.1717 15.4573C10.0837 15.4573 10.0397 15.4036 10.0397 15.296L9.99568 14.0347C9.99568 13.9369 10.0397 13.8684 10.1277 13.8293L11.6677 13.1107ZM21.4939 18.6547C21.6406 19.1338 21.7139 19.5982 21.7139 20.048C21.7139 20.5467 21.6357 20.9964 21.4792 21.3973C21.2544 22.0231 20.8584 22.5218 20.2912 22.8933C19.7241 23.2551 19.0592 23.436 18.2966 23.436C17.5535 23.436 16.8984 23.26 16.3312 22.908C15.7739 22.5462 15.3779 22.0573 15.1432 21.4413C15.0455 21.1871 14.9721 20.9182 14.9232 20.6347V20.6053C14.9232 20.4978 14.9819 20.444 15.0992 20.444H16.8739C16.9717 20.444 17.0352 20.4978 17.0646 20.6053C17.0744 20.664 17.089 20.7129 17.1086 20.752C17.1281 20.7911 17.1428 20.8253 17.1526 20.8547C17.2504 21.1089 17.397 21.3044 17.5926 21.4413C17.7881 21.5782 18.0179 21.6467 18.2819 21.6467C18.5557 21.6467 18.7952 21.5733 19.0006 21.4267C19.2059 21.28 19.3575 21.0747 19.4552 20.8107C19.553 20.6151 19.6019 20.3609 19.6019 20.048C19.6019 19.7644 19.5579 19.5102 19.4699 19.2853C19.4015 19.0311 19.2646 18.8356 19.0592 18.6987C18.8539 18.5618 18.6144 18.4933 18.3406 18.4933C18.0668 18.4933 17.8126 18.5569 17.5779 18.684C17.3432 18.8111 17.1868 18.9773 17.1086 19.1827C17.0792 19.2804 17.0157 19.3293 16.9179 19.3293H15.1139C15.065 19.3293 15.021 19.3147 14.9819 19.2853C14.9526 19.2462 14.9379 19.2022 14.9379 19.1533V13.2427C14.9379 13.1938 14.9526 13.1547 14.9819 13.1253C15.021 13.0862 15.065 13.0667 15.1139 13.0667H21.1712C21.2201 13.0667 21.2592 13.0862 21.2886 13.1253C21.3277 13.1547 21.3472 13.1938 21.3472 13.2427V14.6653C21.3472 14.7142 21.3277 14.7582 21.2886 14.7973C21.2592 14.8267 21.2201 14.8413 21.1712 14.8413H17.0792C17.0304 14.8413 17.0059 14.8658 17.0059 14.9147L16.9912 17.0853C16.9912 17.1538 17.0206 17.1684 17.0792 17.1293C17.5192 16.8458 18.0277 16.704 18.6046 16.704C19.289 16.704 19.8855 16.88 20.3939 17.232C20.9121 17.5742 21.2788 18.0484 21.4939 18.6547Z" fill="white"/>
<path fill-rule="evenodd" clip-rule="evenodd" d="M11.5069 6.66634C10.3867 6.06837 10.3867 4.59829 11.5069 4.00033L16.0985 1.5492C16.6734 1.24233 17.3241 1.28107 17.8266 1.5492C18.3173 1.81096 18.6667 2.29134 18.6667 2.88221V7.78446C18.6667 8.98057 17.2346 9.72392 16.0985 9.11746L11.5069 6.66634Z" fill="white"/>
</svg>
