<svg width="24" height="24" viewBox="0 0 24 24" fill="none" xmlns="http://www.w3.org/2000/svg">
<rect width="24" height="24" fill="black"/>
<circle opacity="0.5" cx="12.4474" cy="11.5" r="8.5" stroke="white" stroke-width="2" stroke-linejoin="round"/>
<circle cx="5.97766" cy="17.8912" r="1.12598" fill="white"/>
<circle cx="2.2276" cy="16.1881" r="1.12598" fill="white"/>
<path fill-rule="evenodd" clip-rule="evenodd" d="M2.95158 11.2168C2.94883 11.3108 2.94744 11.4053 2.94744 11.5C2.94744 12.171 3.01701 12.8257 3.14932 13.4574C3.13487 13.458 3.12036 13.4582 3.10577 13.4582C2.48391 13.4582 1.9798 12.9541 1.9798 12.3323C1.9798 11.7627 2.40268 11.2919 2.95158 11.2168Z" fill="white"/>
<path fill-rule="evenodd" clip-rule="evenodd" d="M10.3276 18.5088C11.6124 18.2839 12.955 17.9245 14.3069 17.4316C20.44 15.1953 24.6642 10.9778 23.4453 7.62299C22.8855 6.08253 21.33 5.13053 19.1673 4.78479C20.0013 5.61934 20.6808 6.6083 21.1592 7.70509C21.3506 7.88822 21.487 8.08987 21.5655 8.30598C22.265 10.2311 18.8413 13.6495 13.6218 15.5526C12.2995 16.0347 11.0032 16.3681 9.79316 16.5658L10.3276 18.5088ZM18.1882 6.67888L18.1886 6.67403L18.1931 6.67937L18.1882 6.67888Z" fill="white"/>
<path d="M11.1634 13.1817L12.891 14.1894L11.0978 17.2624L13.9355 19.185L12.8139 20.8409L9.20246 18.3947C8.80031 18.1223 8.65652 17.6053 8.8453 17.1699L8.89947 17.0629L11.1634 13.1817Z" fill="white"/>
</svg>
