<svg width="24" height="24" viewBox="0 0 24 24" fill="none" xmlns="http://www.w3.org/2000/svg">
<path d="M20 12C20 16.4183 16.4183 20 12 20C7.58172 20 4 16.4183 4 12C4 7.58172 7.58172 4 12 4C16.4183 4 20 7.58172 20 12Z" fill="#CCDDFF" fill-opacity="0.1"/>
<path d="M12 3C14.125 3 16.1815 3.75193 17.8054 5.12265C19.4292 6.49338 20.5156 8.39448 20.8723 10.4894C21.229 12.5842 20.8329 14.7378 19.7542 16.5686C18.6755 18.3995 16.9837 19.7896 14.9784 20.4929" stroke="white" stroke-width="2"/>
<path d="M15.75 12L16.4615 12.2372L16.5406 12L16.4615 11.7628L15.75 12ZM8.25 12L7.53849 11.7628L7.45943 12L7.53849 12.2372L8.25 12ZM15.75 12C15.0385 11.7628 15.0386 11.7624 15.0388 11.762C15.0388 11.7619 15.0389 11.7615 15.039 11.7613C15.0392 11.7608 15.0393 11.7603 15.0395 11.7599C15.0398 11.759 15.04 11.7583 15.0402 11.7577C15.0406 11.7565 15.0409 11.7558 15.0409 11.7556C15.0411 11.7553 15.0405 11.7568 15.0392 11.7602C15.0367 11.767 15.0312 11.781 15.0226 11.8012C15.0052 11.8418 14.9752 11.9065 14.9303 11.9873C14.84 12.1498 14.6925 12.3719 14.4697 12.5947C14.0384 13.026 13.2881 13.5 12 13.5V15C13.7119 15 14.8366 14.349 15.5303 13.6553C15.87 13.3156 16.0975 12.9752 16.2416 12.7158C16.3138 12.5857 16.3659 12.4746 16.4013 12.3921C16.419 12.3508 16.4326 12.3165 16.4424 12.2903C16.4474 12.2772 16.4514 12.2662 16.4546 12.2573C16.4562 12.2528 16.4575 12.2489 16.4587 12.2455C16.4593 12.2439 16.4598 12.2423 16.4602 12.2409C16.4605 12.2402 16.4607 12.2396 16.4609 12.2389C16.461 12.2386 16.4612 12.2382 16.4612 12.238C16.4614 12.2376 16.4615 12.2372 15.75 12ZM12 13.5C10.7119 13.5 9.96165 13.026 9.53033 12.5947C9.30753 12.3719 9.15996 12.1498 9.06968 11.9873C9.02476 11.9065 8.99482 11.8418 8.97744 11.8012C8.96878 11.781 8.96333 11.767 8.96076 11.7602C8.95948 11.7568 8.95893 11.7553 8.95906 11.7556C8.95913 11.7558 8.95937 11.7565 8.95978 11.7577C8.95999 11.7583 8.96024 11.759 8.96052 11.7599C8.96067 11.7603 8.96082 11.7608 8.96099 11.7613C8.96107 11.7615 8.9612 11.7619 8.96124 11.762C8.96138 11.7624 8.96151 11.7628 8.25 12C7.53849 12.2372 7.53863 12.2376 7.53877 12.238C7.53883 12.2382 7.53898 12.2386 7.53908 12.2389C7.53929 12.2396 7.53952 12.2402 7.53975 12.2409C7.54023 12.2423 7.54075 12.2439 7.54133 12.2455C7.54248 12.2489 7.54384 12.2528 7.54542 12.2573C7.54858 12.2662 7.55261 12.2772 7.55755 12.2903C7.56744 12.3165 7.58102 12.3508 7.59873 12.3921C7.63409 12.4746 7.68618 12.5857 7.75844 12.7158C7.90254 12.9752 8.12997 13.3156 8.46967 13.6553C9.16335 14.349 10.2881 15 12 15V13.5ZM8.25 12C8.96151 12.2372 8.96138 12.2376 8.96124 12.238C8.9612 12.2381 8.96107 12.2385 8.96099 12.2387C8.96082 12.2392 8.96067 12.2397 8.96052 12.2401C8.96024 12.241 8.95999 12.2417 8.95978 12.2423C8.95937 12.2435 8.95913 12.2442 8.95906 12.2444C8.95893 12.2447 8.95948 12.2432 8.96076 12.2398C8.96333 12.233 8.96878 12.219 8.97744 12.1988C8.99482 12.1582 9.02476 12.0935 9.06968 12.0127C9.15996 11.8502 9.30753 11.6281 9.53033 11.4053C9.96165 10.974 10.7119 10.5 12 10.5V9C10.2881 9 9.16335 9.65099 8.46967 10.3447C8.12997 10.6844 7.90254 11.0248 7.75844 11.2842C7.68618 11.4143 7.63409 11.5254 7.59873 11.6079C7.58102 11.6492 7.56744 11.6835 7.55755 11.7097C7.55261 11.7228 7.54858 11.7338 7.54542 11.7427C7.54384 11.7472 7.54248 11.7511 7.54133 11.7545C7.54075 11.7561 7.54023 11.7577 7.53975 11.7591C7.53952 11.7598 7.53929 11.7604 7.53908 11.7611C7.53898 11.7614 7.53883 11.7618 7.53877 11.762C7.53863 11.7624 7.53849 11.7628 8.25 12ZM12 10.5C13.2881 10.5 14.0384 10.974 14.4697 11.4053C14.6925 11.6281 14.84 11.8502 14.9303 12.0127C14.9752 12.0935 15.0052 12.1582 15.0226 12.1988C15.0312 12.219 15.0367 12.233 15.0392 12.2398C15.0405 12.2432 15.0411 12.2447 15.0409 12.2444C15.0409 12.2442 15.0406 12.2435 15.0402 12.2423C15.04 12.2417 15.0398 12.241 15.0395 12.2401C15.0393 12.2397 15.0392 12.2392 15.039 12.2387C15.0389 12.2385 15.0388 12.2381 15.0388 12.238C15.0386 12.2376 15.0385 12.2372 15.75 12C16.4615 11.7628 16.4614 11.7624 16.4612 11.762C16.4612 11.7618 16.461 11.7614 16.4609 11.7611C16.4607 11.7604 16.4605 11.7598 16.4602 11.7591C16.4598 11.7577 16.4593 11.7561 16.4587 11.7545C16.4575 11.7511 16.4562 11.7472 16.4546 11.7427C16.4514 11.7338 16.4474 11.7228 16.4424 11.7097C16.4326 11.6835 16.419 11.6492 16.4013 11.6079C16.3659 11.5254 16.3138 11.4143 16.2416 11.2842C16.0975 11.0248 15.87 10.6844 15.5303 10.3447C14.8366 9.65099 13.7119 9 12 9V10.5Z" fill="white"/>
<circle cx="12" cy="11.25" r="1.5" fill="white"/>
</svg>
