<svg width="28" height="28" viewBox="0 0 28 28" fill="none" xmlns="http://www.w3.org/2000/svg">
<path fill-rule="evenodd" clip-rule="evenodd" d="M8 3C10.7614 3 13 5.23858 13 8C13 10.7614 10.7614 13 8 13C5.23858 13 3 10.7614 3 8C3 5.23858 5.23858 3 8 3ZM13 20C13 17.2386 10.7614 15 8 15C5.23858 15 3 17.2386 3 20C3 22.7614 5.23858 25 8 25C10.7614 25 13 22.7614 13 20ZM25 20C25 17.2386 22.7614 15 20 15C17.2386 15 15 17.2386 15 20C15 22.7614 17.2386 25 20 25C22.7614 25 25 22.7614 25 20ZM25 8C25 5.23858 22.7614 3 20 3C17.2386 3 15 5.23858 15 8C15 10.7614 17.2386 13 20 13C22.7614 13 25 10.7614 25 8Z" fill="url(#paint0_linear_0_1169)"/>
<defs>
<linearGradient id="paint0_linear_0_1169" x1="3" y1="3" x2="3" y2="25" gradientUnits="userSpaceOnUse">
<stop stop-color="#A071A5"/>
<stop offset="1" stop-color="#57A7E9"/>
</linearGradient>
</defs>
</svg>
