<svg width="24" height="24" viewBox="0 0 24 24" fill="none" xmlns="http://www.w3.org/2000/svg">
<path d="M16.5434 17.04L17.3014 16.3878C17.0474 16.0925 16.6449 15.9716 16.2702 16.078L16.5434 17.04ZM16.9438 17.5572L16.1226 18.1279H16.1226L16.9438 17.5572ZM17.8422 19.4667L16.8787 19.7344C16.9683 20.057 17.2135 20.3133 17.5317 20.4173C17.85 20.5212 18.1992 20.459 18.4619 20.2515L17.8422 19.4667ZM20.9953 11.3786L19.9961 11.3399C19.9947 11.375 19.9952 11.4103 19.9975 11.4454L20.9953 11.3786ZM4 11.1364C4 8.29963 6.29963 6 9.13636 6V4C5.19506 4 2 7.19506 2 11.1364H4ZM9.13636 16.2727C6.29963 16.2727 4 13.9731 4 11.1364H2C2 15.0777 5.19506 18.2727 9.13636 18.2727V16.2727ZM14.8636 16.2727H9.13636V18.2727H14.8636V16.2727ZM16.2702 16.078C15.8244 16.2046 15.3528 16.2727 14.8636 16.2727V18.2727C15.5394 18.2727 16.1947 18.1785 16.8166 18.002L16.2702 16.078ZM17.7649 16.9865C17.6193 16.7771 17.4646 16.5774 17.3014 16.3878L15.7853 17.6922C15.9036 17.8297 16.0163 17.975 16.1226 18.1279L17.7649 16.9865ZM18.8057 19.1989C18.5912 18.4271 18.2458 17.6785 17.7649 16.9865L16.1226 18.1279C16.4731 18.6323 16.7233 19.1755 16.8787 19.7344L18.8057 19.1989ZM20 11.5238C20 13.4107 19.8563 14.7396 19.4542 15.8186C19.0649 16.8635 18.4041 17.7487 17.2224 18.6819L18.4619 20.2515C19.8675 19.1415 20.7856 17.9734 21.3284 16.5169C21.8584 15.0942 22 13.4733 22 11.5238H20ZM19.9975 11.4454C19.9991 11.4685 20 11.4945 20 11.5238H22C22 11.4526 21.9978 11.382 21.9931 11.3119L19.9975 11.4454ZM20 11.1364C20 11.2046 19.9987 11.2724 19.9961 11.3399L21.9946 11.4174C21.9982 11.3242 22 11.2304 22 11.1364H20ZM14.8636 6C17.7004 6 20 8.29963 20 11.1364H22C22 7.19506 18.8049 4 14.8636 4V6ZM9.13636 6H14.8636V4H9.13636V6Z" fill="white"/>
</svg>
