<svg width="24" height="24" viewBox="0 0 24 24" fill="none" xmlns="http://www.w3.org/2000/svg">
<path d="M17.8202 5H18V3H17.8202V5ZM18 5C18.5523 5 19 5.44772 19 6H21C21 4.34315 19.6569 3 18 3V5ZM19 6V18H21V6H19ZM19 18C19 18.5523 18.5523 19 18 19V21C19.6569 21 21 19.6569 21 18H19ZM18 19C17.9946 19 17.9893 19 17.9839 19C17.9785 19 17.9732 19 17.9678 19C17.9625 19 17.9571 19 17.9518 19C17.9464 19 17.9411 19 17.9357 19C17.9304 19 17.9251 19 17.9197 19C17.9144 19 17.9091 19 17.9037 19C17.8984 19 17.8931 19 17.8878 19C17.8825 19 17.8771 19 17.8718 19C17.8665 19 17.8612 19 17.8559 19C17.8506 19 17.8453 19 17.84 19C17.8347 19 17.8294 19 17.8241 19C17.8188 19 17.8135 19 17.8082 19C17.803 19 17.7977 19 17.7924 19C17.7871 19 17.7818 19 17.7766 19C17.7713 19 17.766 19 17.7608 19C17.7555 19 17.7503 19 17.745 19C17.7397 19 17.7345 19 17.7292 19C17.724 19 17.7187 19 17.7135 19C17.7083 19 17.703 19 17.6978 19C17.6925 19 17.6873 19 17.6821 19C17.6769 19 17.6716 19 17.6664 19C17.6612 19 17.656 19 17.6508 19C17.6455 19 17.6403 19 17.6351 19C17.6299 19 17.6247 19 17.6195 19C17.6143 19 17.6091 19 17.6039 19C17.5987 19 17.5935 19 17.5883 19C17.5832 19 17.578 19 17.5728 19C17.5676 19 17.5624 19 17.5573 19C17.5521 19 17.5469 19 17.5418 19C17.5366 19 17.5314 19 17.5263 19C17.5211 19 17.516 19 17.5108 19C17.5057 19 17.5005 19 17.4954 19C17.4902 19 17.4851 19 17.4799 19C17.4748 19 17.4697 19 17.4645 19C17.4594 19 17.4543 19 17.4491 19C17.444 19 17.4389 19 17.4338 19C17.4287 19 17.4236 19 17.4184 19C17.4133 19 17.4082 19 17.4031 19C17.398 19 17.3929 19 17.3878 19C17.3827 19 17.3776 19 17.3725 19C17.3675 19 17.3624 19 17.3573 19C17.3522 19 17.3471 19 17.3421 19C17.337 19 17.3319 19 17.3268 19C17.3218 19 17.3167 19 17.3116 19C17.3066 19 17.3015 19 17.2965 19C17.2914 19 17.2864 19 17.2813 19C17.2763 19 17.2712 19 17.2662 19C17.2612 19 17.2561 19 17.2511 19C17.246 19 17.241 19 17.236 19C17.231 19 17.2259 19 17.2209 19C17.2159 19 17.2109 19 17.2059 19C17.2009 19 17.1959 19 17.1908 19C17.1858 19 17.1808 19 17.1758 19C17.1708 19 17.1659 19 17.1609 19C17.1559 19 17.1509 19 17.1459 19C17.1409 19 17.1359 19 17.131 19C17.126 19 17.121 19 17.116 19C17.1111 19 17.1061 19 17.1011 19C17.0962 19 17.0912 19 17.0863 19C17.0813 19 17.0763 19 17.0714 19C17.0664 19 17.0615 19 17.0566 19C17.0516 19 17.0467 19 17.0417 19C17.0368 19 17.0319 19 17.0269 19C17.022 19 17.0171 19 17.0122 19C17.0072 19 17.0023 19 16.9974 19C16.9925 19 16.9876 19 16.9827 19C16.9778 19 16.9729 19 16.968 19C16.9631 19 16.9582 19 16.9533 19C16.9484 19 16.9435 19 16.9386 19C16.9337 19 16.9288 19 16.924 19C16.9191 19 16.9142 19 16.9093 19C16.9045 19 16.8996 19 16.8947 19C16.8899 19 16.885 19 16.8801 19C16.8753 19 16.8704 19 16.8656 19C16.8607 19 16.8559 19 16.851 19C16.8462 19 16.8413 19 16.8365 19C16.8317 19 16.8268 19 16.822 19C16.8172 19 16.8123 19 16.8075 19C16.8027 19 16.7979 19 16.7931 19C16.7882 19 16.7834 19 16.7786 19C16.7738 19 16.769 19 16.7642 19C16.7594 19 16.7546 19 16.7498 19C16.745 19 16.7402 19 16.7354 19C16.7306 19 16.7258 19 16.7211 19C16.7163 19 16.7115 19 16.7067 19C16.702 19 16.6972 19 16.6924 19C16.6876 19 16.6829 19 16.6781 19C16.6734 19 16.6686 19 16.6639 19C16.6591 19 16.6543 19 16.6496 19C16.6449 19 16.6401 19 16.6354 19C16.6306 19 16.6259 19 16.6212 19C16.6164 19 16.6117 19 16.607 19C16.6022 19 16.5975 19 16.5928 19C16.5881 19 16.5834 19 16.5787 19C16.5739 19 16.5692 19 16.5645 19C16.5598 19 16.5551 19 16.5504 19C16.5457 19 16.541 19 16.5363 19C16.5317 19 16.527 19 16.5223 19C16.5176 19 16.5129 19 16.5082 19C16.5036 19 16.4989 19 16.4942 19C16.4896 19 16.4849 19 16.4802 19C16.4756 19 16.4709 19 16.4662 19C16.4616 19 16.4569 19 16.4523 19C16.4476 19 16.443 19 16.4383 19C16.4337 19 16.4291 19 16.4244 19C16.4198 19 16.4152 19 16.4105 19C16.4059 19 16.4013 19 16.3967 19C16.392 19 16.3874 19 16.3828 19C16.3782 19 16.3736 19 16.369 19C16.3644 19 16.3598 19 16.3552 19C16.3506 19 16.346 19 16.3414 19C16.3368 19 16.3322 19 16.3276 19C16.323 19 16.3184 19 16.3139 19C16.3093 19 16.3047 19 16.3001 19C16.2956 19 16.291 19 16.2864 19C16.2819 19 16.2773 19 16.2727 19C16.2682 19 16.2636 19 16.2591 19C16.2545 19 16.25 19 16.2454 19C16.2409 19 16.2363 19 16.2318 19C16.2273 19 16.2227 19 16.2182 19C16.2137 19 16.2091 19 16.2046 19C16.2001 19 16.1956 19 16.1911 19C16.1865 19 16.182 19 16.1775 19C16.173 19 16.1685 19 16.164 19C16.1595 19 16.155 19 16.1505 19C16.146 19 16.1415 19 16.137 19C16.1325 19 16.1281 19 16.1236 19C16.1191 19 16.1146 19 16.1101 19C16.1057 19 16.1012 19 16.0967 19C16.0923 19 16.0878 19 16.0833 19C16.0789 19 16.0744 19 16.07 19C16.0655 19 16.0611 19 16.0566 19C16.0522 19 16.0477 19 16.0433 19C16.0388 19 16.0344 19 16.03 19C16.0255 19 16.0211 19 16.0167 19C16.0123 19 16.0078 19 16.0034 19C15.999 19 15.9946 19 15.9902 19C15.9858 19 15.9814 19 15.977 19C15.9725 19 15.9681 19 15.9637 19C15.9594 19 15.955 19 15.9506 19C15.9462 19 15.9418 19 15.9374 19C15.933 19 15.9286 19 15.9243 19C15.9199 19 15.9155 19 15.9111 19C15.9068 19 15.9024 19 15.898 19C15.8937 19 15.8893 19 15.885 19C15.8806 19 15.8763 19 15.8719 19C15.8676 19 15.8632 19 15.8589 19C15.8545 19 15.8502 19 15.8459 19C15.8415 19 15.8372 19 15.8329 19C15.8285 19 15.8242 19 15.8199 19C15.8156 19 15.8113 19 15.8069 19C15.8026 19 15.7983 19 15.794 19C15.7897 19 15.7854 19 15.7811 19C15.7768 19 15.7725 19 15.7682 19C15.7639 19 15.7596 19 15.7553 19C15.7511 19 15.7468 19 15.7425 19C15.7382 19 15.7339 19 15.7297 19C15.7254 19 15.7211 19 15.7169 19C15.7126 19 15.7083 19 15.7041 19C15.6998 19 15.6956 19 15.6913 19C15.6871 19 15.6828 19 15.6786 19C15.6743 19 15.6701 19 15.6658 19C15.6616 19 15.6574 19 15.6531 19C15.6489 19 15.6447 19 15.6405 19C15.6362 19 15.632 19 15.6278 19C15.6236 19 15.6194 19 15.6152 19C15.611 19 15.6068 19 15.6026 19C15.5983 19 15.5941 19 15.59 19C15.5858 19 15.5816 19 15.5774 19C15.5732 19 15.569 19 15.5648 19C15.5606 19 15.5565 19 15.5523 19C15.5481 19 15.5439 19 15.5398 19C15.5356 19 15.5314 19 15.5273 19C15.5231 19 15.519 19 15.5148 19C15.5107 19 15.5065 19 15.5024 19C15.4982 19 15.4941 19 15.4899 19C15.4858 19 15.4817 19 15.4775 19C15.4734 19 15.4693 19 15.4651 19C15.461 19 15.4569 19 15.4528 19C15.4487 19 15.4445 19 15.4404 19C15.4363 19 15.4322 19 15.4281 19C15.424 19 15.4199 19 15.4158 19C15.4117 19 15.4076 19 15.4035 19C15.3994 19 15.3953 19 15.3913 19C15.3872 19 15.3831 19 15.379 19C15.3749 19 15.3709 19 15.3668 19C15.3627 19 15.3587 19 15.3546 19C15.3505 19 15.3465 19 15.3424 19C15.3384 19 15.3343 19 15.3303 19C15.3262 19 15.3222 19 15.3181 19C15.3141 19 15.3101 19 15.306 19C15.302 19 15.298 19 15.2939 19C15.2899 19 15.2859 19 15.2819 19C15.2778 19 15.2738 19 15.2698 19C15.2658 19 15.2618 19 15.2578 19C15.2538 19 15.2498 19 15.2458 19C15.2418 19 15.2378 19 15.2338 19C15.2298 19 15.2258 19 15.2218 19C15.2178 19 15.2138 19 15.2099 19C15.2059 19 15.2019 19 15.1979 19C15.194 19 15.19 19 15.186 19C15.1821 19 15.1781 19 15.1741 19C15.1702 19 15.1662 19 15.1623 19C15.1583 19 15.1544 19 15.1504 19C15.1465 19 15.1426 19 15.1386 19C15.1347 19 15.1308 19 15.1268 19C15.1229 19 15.119 19 15.115 19C15.1111 19 15.1072 19 15.1033 19C15.0994 19 15.0955 19 15.0915 19C15.0876 19 15.0837 19 15.0798 19C15.0759 19 15.072 19 15.0681 19C15.0642 19 15.0603 19 15.0565 19C15.0526 19 15.0487 19 15.0448 19C15.0409 19 15.037 19 15.0332 19C15.0293 19 15.0254 19 15.0216 19C15.0177 19 15.0138 19 15.01 19C15.0061 19 15.0023 19 14.9984 19C14.9945 19 14.9907 19 14.9869 19C14.983 19 14.9792 19 14.9753 19C14.9715 19 14.9677 19 14.9638 19C14.96 19 14.9562 19 14.9523 19C14.9485 19 14.9447 19 14.9409 19C14.937 19 14.9332 19 14.9294 19C14.9256 19 14.9218 19 14.918 19C14.9142 19 14.9104 19 14.9066 19C14.9028 19 14.899 19 14.8952 19C14.8914 19 14.8876 19 14.8839 19C14.8801 19 14.8763 19 14.8725 19C14.8687 19 14.865 19 14.8612 19C14.8574 19 14.8537 19 14.8499 19C14.8461 19 14.8424 19 14.8386 19C14.8349 19 14.8311 19 14.8274 19C14.8236 19 14.8199 19 14.8161 19C14.8124 19 14.8087 19 14.8049 19C14.8012 19 14.7975 19 14.7937 19C14.79 19 14.7863 19 14.7826 19C14.7788 19 14.7751 19 14.7714 19C14.7677 19 14.764 19 14.7603 19C14.7566 19 14.7529 19 14.7492 19C14.7455 19 14.7418 19 14.7381 19C14.7344 19 14.7307 19 14.727 19C14.7233 19 14.7196 19 14.716 19C14.7123 19 14.7086 19 14.7049 19C14.7013 19 14.6976 19 14.6939 19C14.6903 19 14.6866 19 14.683 19C14.6793 19 14.6756 19 14.672 19C14.6683 19 14.6647 19 14.6611 19C14.6574 19 14.6538 19 14.6501 19C14.6465 19 14.6429 19 14.6392 19C14.6356 19 14.632 19 14.6284 19C14.6247 19 14.6211 19 14.6175 19C14.6139 19 14.6103 19 14.6067 19C14.6031 19 14.5994 19 14.5958 19C14.5922 19 14.5886 19 14.5851 19C14.5815 19 14.5779 19 14.5743 19C14.5707 19 14.5671 19 14.5635 19C14.5599 19 14.5564 19 14.5528 19C14.5492 19 14.5456 19 14.5421 19C14.5385 19 14.535 19 14.5314 19C14.5278 19 14.5243 19 14.5207 19C14.5172 19 14.5136 19 14.5101 19C14.5065 19 14.503 19 14.4994 19C14.4959 19 14.4924 19 14.4888 19C14.4853 19 14.4818 19 14.4783 19C14.4747 19 14.4712 19 14.4677 19C14.4642 19 14.4607 19 14.4572 19C14.4536 19 14.4501 19 14.4466 19C14.4431 19 14.4396 19 14.4361 19C14.4326 19 14.4291 19 14.4256 19C14.4222 19 14.4187 19 14.4152 19C14.4117 19 14.4082 19 14.4047 19C14.4013 19 14.3978 19 14.3943 19C14.3909 19 14.3874 19 14.3839 19C14.3805 19 14.377 19 14.3736 19C14.3701 19 14.3667 19 14.3632 19C14.3598 19 14.3563 19 14.3529 19C14.3494 19 14.346 19 14.3426 19C14.3391 19 14.3357 19 14.3323 19C14.3288 19 14.3254 19 14.322 19C14.3186 19 14.3152 19 14.3117 19C14.3083 19 14.3049 19 14.3015 19C14.2981 19 14.2947 19 14.2913 19C14.2879 19 14.2845 19 14.2811 19C14.2777 19 14.2743 19 14.271 19C14.2676 19 14.2642 19 14.2608 19C14.2574 19 14.2541 19 14.2507 19C14.2473 19 14.2439 19 14.2406 19C14.2372 19 14.2339 19 14.2305 19C14.2271 19 14.2238 19 14.2204 19C14.2171 19 14.2137 19 14.2104 19C14.2071 19 14.2037 19 14.2004 19C14.197 19 14.1937 19 14.1904 19C14.1871 19 14.1837 19 14.1804 19C14.1771 19 14.1738 19 14.1704 19C14.1671 19 14.1638 19 14.1605 19C14.1572 19 14.1539 19 14.1506 19C14.1473 19 14.144 19 14.1407 19C14.1374 19 14.1341 19 14.1308 19C14.1275 19 14.1243 19 14.121 19C14.1177 19 14.1144 19 14.1111 19C14.1079 19 14.1046 19 14.1013 19C14.0981 19 14.0948 19 14.0915 19C14.0883 19 14.085 19 14.0818 19C14.0785 19 14.0753 19 14.072 19C14.0688 19 14.0655 19 14.0623 19C14.0591 19 14.0558 19 14.0526 19C14.0494 19 14.0461 19 14.0429 19C14.0397 19 14.0365 19 14.0333 19C14.03 19 14.0268 19 14.0236 19C14.0204 19 14.0172 19 14.014 19C14.0108 19 14.0076 19 14.0044 19C14.0012 19 13.998 19 13.9948 19C13.9916 19 13.9884 19 13.9853 19C13.9821 19 13.9789 19 13.9757 19C13.9725 19 13.9694 19 13.9662 19C13.963 19 13.9599 19 13.9567 19C13.9535 19 13.9504 19 13.9472 19C13.9441 19 13.9409 19 13.9378 19C13.9346 19 13.9315 19 13.9283 19C13.9252 19 13.9221 19 13.9189 19C13.9158 19 13.9127 19 13.9095 19C13.9064 19 13.9033 19 13.9002 19C13.897 19 13.8939 19 13.8908 19C13.8877 19 13.8846 19 13.8815 19C13.8784 19 13.8753 19 13.8722 19C13.8691 19 13.866 19 13.8629 19C13.8598 19 13.8567 19 13.8536 19C13.8505 19 13.8475 19 13.8444 19C13.8413 19 13.8382 19 13.8352 19C13.8321 19 13.829 19 13.826 19C13.8229 19 13.8198 19 13.8168 19C13.8137 19 13.8107 19 13.8076 19C13.8046 19 13.8015 19 13.7985 19C13.7954 19 13.7924 19 13.7894 19C13.7863 19 13.7833 19 13.7803 19C13.7772 19 13.7742 19 13.7712 19C13.7682 19 13.7651 19 13.7621 19C13.7591 19 13.7561 19 13.7531 19C13.7501 19 13.7471 19 13.7441 19C13.7411 19 13.7381 19 13.7351 19C13.7321 19 13.7291 19 13.7261 19C13.7231 19 13.7201 19 13.7172 19C13.7142 19 13.7112 19 13.7082 19C13.7053 19 13.7023 19 13.6993 19C13.6964 19 13.6934 19 13.6904 19C13.6875 19 13.6845 19 13.6816 19C13.6786 19 13.6757 19 13.6727 19C13.6698 19 13.6668 19 13.6639 19C13.661 19 13.658 19 13.6551 19C13.6522 19 13.6492 19 13.6463 19C13.6434 19 13.6405 19 13.6376 19C13.6346 19 13.6317 19 13.6288 19C13.6259 19 13.623 19 13.6201 19C13.6172 19 13.6143 19 13.6114 19C13.6085 19 13.6056 19 13.6027 19C13.5998 19 13.5969 19 13.5941 19C13.5912 19 13.5883 19 13.5854 19C13.5825 19 13.5797 19 13.5768 19C13.5739 19 13.5711 19 13.5682 19C13.5653 19 13.5625 19 13.5596 19C13.5568 19 13.5539 19 13.5511 19C13.5482 19 13.5454 19 13.5425 19C13.5397 19 13.5369 19 13.534 19C13.5312 19 13.5284 19 13.5255 19C13.5227 19 13.5199 19 13.5171 19C13.5143 19 13.5114 19 13.5086 19C13.5058 19 13.503 19 13.5002 19C13.4974 19 13.4946 19 13.4918 19C13.489 19 13.4862 19 13.4834 19C13.4806 19 13.4778 19 13.475 19C13.4723 19 13.4695 19 13.4667 19C13.4639 19 13.4612 19 13.4584 19C13.4556 19 13.4528 19 13.4501 19C13.4473 19 13.4446 19 13.4418 19C13.439 19 13.4363 19 13.4335 19C13.4308 19 13.428 19 13.4253 19C13.4226 19 13.4198 19 13.4171 19C13.4143 19 13.4116 19 13.4089 19C13.4062 19 13.4034 19 13.4007 19C13.398 19 13.3953 19 13.3926 19C13.3898 19 13.3871 19 13.3844 19C13.3817 19 13.379 19 13.3763 19C13.3736 19 13.3709 19 13.3682 19C13.3655 19 13.3628 19 13.3601 19C13.3575 19 13.3548 19 13.3521 19C13.3494 19 13.3467 19 13.3441 19C13.3414 19 13.3387 19 13.3361 19C13.3334 19 13.3307 19 13.3281 19C13.3254 19 13.3228 19 13.3201 19C13.3175 19 13.3148 19 13.3122 19C13.3095 19 13.3069 19 13.3042 19C13.3016 19 13.299 19 13.2963 19C13.2937 19 13.2911 19 13.2884 19C13.2858 19 13.2832 19 13.2806 19C13.278 19 13.2754 19 13.2727 19C13.2701 19 13.2675 19 13.2649 19C13.2623 19 13.2597 19 13.2571 19C13.2545 19 13.2519 19 13.2493 19C13.2468 19 13.2442 19 13.2416 19C13.239 19 13.2364 19 13.2339 19C13.2313 19 13.2287 19 13.2261 19C13.2236 19 13.221 19 13.2184 19C13.2159 19 13.2133 19 13.2108 19C13.2082 19 13.2057 19 13.2031 19C13.2006 19 13.198 19 13.1955 19C13.1929 19 13.1904 19 13.1879 19C13.1853 19 13.1828 19 13.1803 19C13.1778 19 13.1752 19 13.1727 19C13.1702 19 13.1677 19 13.1652 19C13.1627 19 13.1602 19 13.1576 19C13.1551 19 13.1526 19 13.1501 19C13.1476 19 13.1451 19 13.1427 19C13.1402 19 13.1377 19 13.1352 19C13.1327 19 13.1302 19 13.1278 19C13.1253 19 13.1228 19 13.1203 19C13.1179 19 13.1154 19 13.1129 19C13.1105 19 13.108 19 13.1055 19C13.1031 19 13.1006 19 13.0982 19C13.0957 19 13.0933 19 13.0909 19C13.0884 19 13.086 19 13.0835 19C13.0811 19 13.0787 19 13.0762 19C13.0738 19 13.0714 19 13.069 19C13.0665 19 13.0641 19 13.0617 19C13.0593 19 13.0569 19 13.0545 19C13.0521 19 13.0497 19 13.0473 19C13.0449 19 13.0425 19 13.0401 19C13.0377 19 13.0353 19 13.0329 19C13.0305 19 13.0281 19 13.0258 19C13.0234 19 13.021 19 13.0186 19C13.0163 19 13.0139 19 13.0115 19C13.0092 19 13.0068 19 13.0044 19C13.0021 19 12.9997 19 12.9974 19C12.995 19 12.9927 19 12.9903 19C12.988 19 12.9856 19 12.9833 19C12.981 19 12.9786 19 12.9763 19C12.974 19 12.9716 19 12.9693 19C12.967 19 12.9647 19 12.9624 19C12.96 19 12.9577 19 12.9554 19C12.9531 19 12.9508 19 12.9485 19C12.9462 19 12.9439 19 12.9416 19C12.9393 19 12.937 19 12.9347 19C12.9324 19 12.9301 19 12.9279 19C12.9256 19 12.9233 19 12.921 19C12.9188 19 12.9165 19 12.9142 19C12.9119 19 12.9097 19 12.9074 19C12.9052 19 12.9029 19 12.9006 19C12.8984 19 12.8961 19 12.8939 19C12.8917 19 12.8894 19 12.8872 19C12.8849 19 12.8827 19 12.8805 19C12.8782 19 12.876 19 12.8738 19C12.8715 19 12.8693 19 12.8671 19C12.8649 19 12.8627 19 12.8605 19C12.8582 19 12.856 19 12.8538 19C12.8516 19 12.8494 19 12.8472 19C12.845 19 12.8428 19 12.8406 19C12.8385 19 12.8363 19 12.8341 19C12.8319 19 12.8297 19 12.8275 19C12.8254 19 12.8232 19 12.821 19C12.8188 19 12.8167 19 12.8145 19C12.8124 19 12.8102 19 12.808 19C12.8059 19 12.8037 19 12.8016 19C12.7994 19 12.7973 19 12.7951 19C12.793 19 12.7909 19 12.7887 19C12.7866 19 12.7845 19 12.7823 19C12.7802 19 12.7781 19 12.776 19C12.7738 19 12.7717 19 12.7696 19C12.7675 19 12.7654 19 12.7633 19C12.7612 19 12.7591 19 12.757 19C12.7549 19 12.7528 19 12.7507 19C12.7486 19 12.7465 19 12.7444 19C12.7423 19 12.7402 19 12.7382 19C12.7361 19 12.734 19 12.7319 19C12.7299 19 12.7278 19 12.7257 19C12.7237 19 12.7216 19 12.7195 19C12.7175 19 12.7154 19 12.7134 19C12.7113 19 12.7093 19 12.7072 19C12.7052 19 12.7031 19 12.7011 19C12.6991 19 12.697 19 12.695 19C12.693 19 12.6909 19 12.6889 19C12.6869 19 12.6849 19 12.6829 19C12.6808 19 12.6788 19 12.6768 19C12.6748 19 12.6728 19 12.6708 19C12.6688 19 12.6668 19 12.6648 19C12.6628 19 12.6608 19 12.6588 19C12.6568 19 12.6549 19 12.6529 19C12.6509 19 12.6489 19 12.6469 19C12.645 19 12.643 19 12.641 19C12.6391 19 12.6371 19 12.6351 19C12.6332 19 12.6312 19 12.6293 19C12.6273 19 12.6254 19 12.6234 19C12.6215 19 12.6195 19 12.6176 19C12.6156 19 12.6137 19 12.6118 19C12.6098 19 12.6079 19 12.606 19C12.6041 19 12.6021 19 12.6002 19C12.5983 19 12.5964 19 12.5945 19C12.5926 19 12.5907 19 12.5887 19C12.5868 19 12.5849 19 12.583 19C12.5811 19 12.5793 19 12.5774 19C12.5755 19 12.5736 19 12.5717 19C12.5698 19 12.5679 19 12.5661 19C12.5642 19 12.5623 19 12.5604 19C12.5586 19 12.5567 19 12.5548 19C12.553 19 12.5511 19 12.5493 19C12.5474 19 12.5456 19 12.5437 19C12.5419 19 12.54 19 12.5382 19C12.5363 19 12.5345 19 12.5327 19C12.5308 19 12.529 19 12.5272 19C12.5253 19 12.5235 19 12.5217 19C12.5199 19 12.518 19 12.5162 19C12.5144 19 12.5126 19 12.5108 19C12.509 19 12.5072 19 12.5054 19C12.5036 19 12.5018 19 12.5 19V21C12.5018 21 12.5036 21 12.5054 21C12.5072 21 12.509 21 12.5108 21C12.5126 21 12.5144 21 12.5162 21C12.518 21 12.5199 21 12.5217 21C12.5235 21 12.5253 21 12.5272 21C12.529 21 12.5308 21 12.5327 21C12.5345 21 12.5363 21 12.5382 21C12.54 21 12.5419 21 12.5437 21C12.5456 21 12.5474 21 12.5493 21C12.5511 21 12.553 21 12.5548 21C12.5567 21 12.5586 21 12.5604 21C12.5623 21 12.5642 21 12.5661 21C12.5679 21 12.5698 21 12.5717 21C12.5736 21 12.5755 21 12.5774 21C12.5793 21 12.5811 21 12.583 21C12.5849 21 12.5868 21 12.5887 21C12.5907 21 12.5926 21 12.5945 21C12.5964 21 12.5983 21 12.6002 21C12.6021 21 12.6041 21 12.606 21C12.6079 21 12.6098 21 12.6118 21C12.6137 21 12.6156 21 12.6176 21C12.6195 21 12.6215 21 12.6234 21C12.6254 21 12.6273 21 12.6293 21C12.6312 21 12.6332 21 12.6351 21C12.6371 21 12.6391 21 12.641 21C12.643 21 12.645 21 12.6469 21C12.6489 21 12.6509 21 12.6529 21C12.6549 21 12.6568 21 12.6588 21C12.6608 21 12.6628 21 12.6648 21C12.6668 21 12.6688 21 12.6708 21C12.6728 21 12.6748 21 12.6768 21C12.6788 21 12.6808 21 12.6829 21C12.6849 21 12.6869 21 12.6889 21C12.6909 21 12.693 21 12.695 21C12.697 21 12.6991 21 12.7011 21C12.7031 21 12.7052 21 12.7072 21C12.7093 21 12.7113 21 12.7134 21C12.7154 21 12.7175 21 12.7195 21C12.7216 21 12.7237 21 12.7257 21C12.7278 21 12.7299 21 12.7319 21C12.734 21 12.7361 21 12.7382 21C12.7402 21 12.7423 21 12.7444 21C12.7465 21 12.7486 21 12.7507 21C12.7528 21 12.7549 21 12.757 21C12.7591 21 12.7612 21 12.7633 21C12.7654 21 12.7675 21 12.7696 21C12.7717 21 12.7738 21 12.776 21C12.7781 21 12.7802 21 12.7823 21C12.7845 21 12.7866 21 12.7887 21C12.7909 21 12.793 21 12.7951 21C12.7973 21 12.7994 21 12.8016 21C12.8037 21 12.8059 21 12.808 21C12.8102 21 12.8124 21 12.8145 21C12.8167 21 12.8188 21 12.821 21C12.8232 21 12.8254 21 12.8275 21C12.8297 21 12.8319 21 12.8341 21C12.8363 21 12.8385 21 12.8406 21C12.8428 21 12.845 21 12.8472 21C12.8494 21 12.8516 21 12.8538 21C12.856 21 12.8582 21 12.8605 21C12.8627 21 12.8649 21 12.8671 21C12.8693 21 12.8715 21 12.8738 21C12.876 21 12.8782 21 12.8805 21C12.8827 21 12.8849 21 12.8872 21C12.8894 21 12.8917 21 12.8939 21C12.8961 21 12.8984 21 12.9006 21C12.9029 21 12.9052 21 12.9074 21C12.9097 21 12.9119 21 12.9142 21C12.9165 21 12.9188 21 12.921 21C12.9233 21 12.9256 21 12.9279 21C12.9301 21 12.9324 21 12.9347 21C12.937 21 12.9393 21 12.9416 21C12.9439 21 12.9462 21 12.9485 21C12.9508 21 12.9531 21 12.9554 21C12.9577 21 12.96 21 12.9624 21C12.9647 21 12.967 21 12.9693 21C12.9716 21 12.974 21 12.9763 21C12.9786 21 12.981 21 12.9833 21C12.9856 21 12.988 21 12.9903 21C12.9927 21 12.995 21 12.9974 21C12.9997 21 13.0021 21 13.0044 21C13.0068 21 13.0092 21 13.0115 21C13.0139 21 13.0163 21 13.0186 21C13.021 21 13.0234 21 13.0258 21C13.0281 21 13.0305 21 13.0329 21C13.0353 21 13.0377 21 13.0401 21C13.0425 21 13.0449 21 13.0473 21C13.0497 21 13.0521 21 13.0545 21C13.0569 21 13.0593 21 13.0617 21C13.0641 21 13.0665 21 13.069 21C13.0714 21 13.0738 21 13.0762 21C13.0787 21 13.0811 21 13.0835 21C13.086 21 13.0884 21 13.0909 21C13.0933 21 13.0957 21 13.0982 21C13.1006 21 13.1031 21 13.1055 21C13.108 21 13.1105 21 13.1129 21C13.1154 21 13.1179 21 13.1203 21C13.1228 21 13.1253 21 13.1278 21C13.1302 21 13.1327 21 13.1352 21C13.1377 21 13.1402 21 13.1427 21C13.1451 21 13.1476 21 13.1501 21C13.1526 21 13.1551 21 13.1576 21C13.1602 21 13.1627 21 13.1652 21C13.1677 21 13.1702 21 13.1727 21C13.1752 21 13.1778 21 13.1803 21C13.1828 21 13.1853 21 13.1879 21C13.1904 21 13.1929 21 13.1955 21C13.198 21 13.2006 21 13.2031 21C13.2057 21 13.2082 21 13.2108 21C13.2133 21 13.2159 21 13.2184 21C13.221 21 13.2236 21 13.2261 21C13.2287 21 13.2313 21 13.2339 21C13.2364 21 13.239 21 13.2416 21C13.2442 21 13.2468 21 13.2493 21C13.2519 21 13.2545 21 13.2571 21C13.2597 21 13.2623 21 13.2649 21C13.2675 21 13.2701 21 13.2727 21C13.2754 21 13.278 21 13.2806 21C13.2832 21 13.2858 21 13.2884 21C13.2911 21 13.2937 21 13.2963 21C13.299 21 13.3016 21 13.3042 21C13.3069 21 13.3095 21 13.3122 21C13.3148 21 13.3175 21 13.3201 21C13.3228 21 13.3254 21 13.3281 21C13.3307 21 13.3334 21 13.3361 21C13.3387 21 13.3414 21 13.3441 21C13.3467 21 13.3494 21 13.3521 21C13.3548 21 13.3575 21 13.3601 21C13.3628 21 13.3655 21 13.3682 21C13.3709 21 13.3736 21 13.3763 21C13.379 21 13.3817 21 13.3844 21C13.3871 21 13.3898 21 13.3926 21C13.3953 21 13.398 21 13.4007 21C13.4034 21 13.4062 21 13.4089 21C13.4116 21 13.4143 21 13.4171 21C13.4198 21 13.4226 21 13.4253 21C13.428 21 13.4308 21 13.4335 21C13.4363 21 13.439 21 13.4418 21C13.4446 21 13.4473 21 13.4501 21C13.4528 21 13.4556 21 13.4584 21C13.4612 21 13.4639 21 13.4667 21C13.4695 21 13.4723 21 13.475 21C13.4778 21 13.4806 21 13.4834 21C13.4862 21 13.489 21 13.4918 21C13.4946 21 13.4974 21 13.5002 21C13.503 21 13.5058 21 13.5086 21C13.5114 21 13.5143 21 13.5171 21C13.5199 21 13.5227 21 13.5255 21C13.5284 21 13.5312 21 13.534 21C13.5369 21 13.5397 21 13.5425 21C13.5454 21 13.5482 21 13.5511 21C13.5539 21 13.5568 21 13.5596 21C13.5625 21 13.5653 21 13.5682 21C13.5711 21 13.5739 21 13.5768 21C13.5797 21 13.5825 21 13.5854 21C13.5883 21 13.5912 21 13.5941 21C13.5969 21 13.5998 21 13.6027 21C13.6056 21 13.6085 21 13.6114 21C13.6143 21 13.6172 21 13.6201 21C13.623 21 13.6259 21 13.6288 21C13.6317 21 13.6346 21 13.6376 21C13.6405 21 13.6434 21 13.6463 21C13.6492 21 13.6522 21 13.6551 21C13.658 21 13.661 21 13.6639 21C13.6668 21 13.6698 21 13.6727 21C13.6757 21 13.6786 21 13.6816 21C13.6845 21 13.6875 21 13.6904 21C13.6934 21 13.6964 21 13.6993 21C13.7023 21 13.7053 21 13.7082 21C13.7112 21 13.7142 21 13.7172 21C13.7201 21 13.7231 21 13.7261 21C13.7291 21 13.7321 21 13.7351 21C13.7381 21 13.7411 21 13.7441 21C13.7471 21 13.7501 21 13.7531 21C13.7561 21 13.7591 21 13.7621 21C13.7651 21 13.7682 21 13.7712 21C13.7742 21 13.7772 21 13.7803 21C13.7833 21 13.7863 21 13.7894 21C13.7924 21 13.7954 21 13.7985 21C13.8015 21 13.8046 21 13.8076 21C13.8107 21 13.8137 21 13.8168 21C13.8198 21 13.8229 21 13.826 21C13.829 21 13.8321 21 13.8352 21C13.8382 21 13.8413 21 13.8444 21C13.8475 21 13.8505 21 13.8536 21C13.8567 21 13.8598 21 13.8629 21C13.866 21 13.8691 21 13.8722 21C13.8753 21 13.8784 21 13.8815 21C13.8846 21 13.8877 21 13.8908 21C13.8939 21 13.897 21 13.9002 21C13.9033 21 13.9064 21 13.9095 21C13.9127 21 13.9158 21 13.9189 21C13.9221 21 13.9252 21 13.9283 21C13.9315 21 13.9346 21 13.9378 21C13.9409 21 13.9441 21 13.9472 21C13.9504 21 13.9535 21 13.9567 21C13.9599 21 13.963 21 13.9662 21C13.9694 21 13.9725 21 13.9757 21C13.9789 21 13.9821 21 13.9853 21C13.9884 21 13.9916 21 13.9948 21C13.998 21 14.0012 21 14.0044 21C14.0076 21 14.0108 21 14.014 21C14.0172 21 14.0204 21 14.0236 21C14.0268 21 14.03 21 14.0333 21C14.0365 21 14.0397 21 14.0429 21C14.0461 21 14.0494 21 14.0526 21C14.0558 21 14.0591 21 14.0623 21C14.0655 21 14.0688 21 14.072 21C14.0753 21 14.0785 21 14.0818 21C14.085 21 14.0883 21 14.0915 21C14.0948 21 14.0981 21 14.1013 21C14.1046 21 14.1079 21 14.1111 21C14.1144 21 14.1177 21 14.121 21C14.1243 21 14.1275 21 14.1308 21C14.1341 21 14.1374 21 14.1407 21C14.144 21 14.1473 21 14.1506 21C14.1539 21 14.1572 21 14.1605 21C14.1638 21 14.1671 21 14.1704 21C14.1738 21 14.1771 21 14.1804 21C14.1837 21 14.1871 21 14.1904 21C14.1937 21 14.197 21 14.2004 21C14.2037 21 14.2071 21 14.2104 21C14.2137 21 14.2171 21 14.2204 21C14.2238 21 14.2271 21 14.2305 21C14.2339 21 14.2372 21 14.2406 21C14.2439 21 14.2473 21 14.2507 21C14.2541 21 14.2574 21 14.2608 21C14.2642 21 14.2676 21 14.271 21C14.2743 21 14.2777 21 14.2811 21C14.2845 21 14.2879 21 14.2913 21C14.2947 21 14.2981 21 14.3015 21C14.3049 21 14.3083 21 14.3117 21C14.3152 21 14.3186 21 14.322 21C14.3254 21 14.3288 21 14.3323 21C14.3357 21 14.3391 21 14.3426 21C14.346 21 14.3494 21 14.3529 21C14.3563 21 14.3598 21 14.3632 21C14.3667 21 14.3701 21 14.3736 21C14.377 21 14.3805 21 14.3839 21C14.3874 21 14.3909 21 14.3943 21C14.3978 21 14.4013 21 14.4047 21C14.4082 21 14.4117 21 14.4152 21C14.4187 21 14.4222 21 14.4256 21C14.4291 21 14.4326 21 14.4361 21C14.4396 21 14.4431 21 14.4466 21C14.4501 21 14.4536 21 14.4572 21C14.4607 21 14.4642 21 14.4677 21C14.4712 21 14.4747 21 14.4783 21C14.4818 21 14.4853 21 14.4888 21C14.4924 21 14.4959 21 14.4994 21C14.503 21 14.5065 21 14.5101 21C14.5136 21 14.5172 21 14.5207 21C14.5243 21 14.5278 21 14.5314 21C14.535 21 14.5385 21 14.5421 21C14.5456 21 14.5492 21 14.5528 21C14.5564 21 14.5599 21 14.5635 21C14.5671 21 14.5707 21 14.5743 21C14.5779 21 14.5815 21 14.5851 21C14.5886 21 14.5922 21 14.5958 21C14.5994 21 14.6031 21 14.6067 21C14.6103 21 14.6139 21 14.6175 21C14.6211 21 14.6247 21 14.6284 21C14.632 21 14.6356 21 14.6392 21C14.6429 21 14.6465 21 14.6501 21C14.6538 21 14.6574 21 14.6611 21C14.6647 21 14.6683 21 14.672 21C14.6756 21 14.6793 21 14.683 21C14.6866 21 14.6903 21 14.6939 21C14.6976 21 14.7013 21 14.7049 21C14.7086 21 14.7123 21 14.716 21C14.7196 21 14.7233 21 14.727 21C14.7307 21 14.7344 21 14.7381 21C14.7418 21 14.7455 21 14.7492 21C14.7529 21 14.7566 21 14.7603 21C14.764 21 14.7677 21 14.7714 21C14.7751 21 14.7788 21 14.7826 21C14.7863 21 14.79 21 14.7937 21C14.7975 21 14.8012 21 14.8049 21C14.8087 21 14.8124 21 14.8161 21C14.8199 21 14.8236 21 14.8274 21C14.8311 21 14.8349 21 14.8386 21C14.8424 21 14.8461 21 14.8499 21C14.8537 21 14.8574 21 14.8612 21C14.865 21 14.8687 21 14.8725 21C14.8763 21 14.8801 21 14.8839 21C14.8876 21 14.8914 21 14.8952 21C14.899 21 14.9028 21 14.9066 21C14.9104 21 14.9142 21 14.918 21C14.9218 21 14.9256 21 14.9294 21C14.9332 21 14.937 21 14.9409 21C14.9447 21 14.9485 21 14.9523 21C14.9562 21 14.96 21 14.9638 21C14.9677 21 14.9715 21 14.9753 21C14.9792 21 14.983 21 14.9869 21C14.9907 21 14.9945 21 14.9984 21C15.0023 21 15.0061 21 15.01 21C15.0138 21 15.0177 21 15.0216 21C15.0254 21 15.0293 21 15.0332 21C15.037 21 15.0409 21 15.0448 21C15.0487 21 15.0526 21 15.0565 21C15.0603 21 15.0642 21 15.0681 21C15.072 21 15.0759 21 15.0798 21C15.0837 21 15.0876 21 15.0915 21C15.0955 21 15.0994 21 15.1033 21C15.1072 21 15.1111 21 15.115 21C15.119 21 15.1229 21 15.1268 21C15.1308 21 15.1347 21 15.1386 21C15.1426 21 15.1465 21 15.1504 21C15.1544 21 15.1583 21 15.1623 21C15.1662 21 15.1702 21 15.1741 21C15.1781 21 15.1821 21 15.186 21C15.19 21 15.194 21 15.1979 21C15.2019 21 15.2059 21 15.2099 21C15.2138 21 15.2178 21 15.2218 21C15.2258 21 15.2298 21 15.2338 21C15.2378 21 15.2418 21 15.2458 21C15.2498 21 15.2538 21 15.2578 21C15.2618 21 15.2658 21 15.2698 21C15.2738 21 15.2778 21 15.2819 21C15.2859 21 15.2899 21 15.2939 21C15.298 21 15.302 21 15.306 21C15.3101 21 15.3141 21 15.3181 21C15.3222 21 15.3262 21 15.3303 21C15.3343 21 15.3384 21 15.3424 21C15.3465 21 15.3505 21 15.3546 21C15.3587 21 15.3627 21 15.3668 21C15.3709 21 15.3749 21 15.379 21C15.3831 21 15.3872 21 15.3913 21C15.3953 21 15.3994 21 15.4035 21C15.4076 21 15.4117 21 15.4158 21C15.4199 21 15.424 21 15.4281 21C15.4322 21 15.4363 21 15.4404 21C15.4445 21 15.4487 21 15.4528 21C15.4569 21 15.461 21 15.4651 21C15.4693 21 15.4734 21 15.4775 21C15.4817 21 15.4858 21 15.4899 21C15.4941 21 15.4982 21 15.5024 21C15.5065 21 15.5107 21 15.5148 21C15.519 21 15.5231 21 15.5273 21C15.5314 21 15.5356 21 15.5398 21C15.5439 21 15.5481 21 15.5523 21C15.5565 21 15.5606 21 15.5648 21C15.569 21 15.5732 21 15.5774 21C15.5816 21 15.5858 21 15.59 21C15.5941 21 15.5983 21 15.6026 21C15.6068 21 15.611 21 15.6152 21C15.6194 21 15.6236 21 15.6278 21C15.632 21 15.6362 21 15.6405 21C15.6447 21 15.6489 21 15.6531 21C15.6574 21 15.6616 21 15.6658 21C15.6701 21 15.6743 21 15.6786 21C15.6828 21 15.6871 21 15.6913 21C15.6956 21 15.6998 21 15.7041 21C15.7083 21 15.7126 21 15.7169 21C15.7211 21 15.7254 21 15.7297 21C15.7339 21 15.7382 21 15.7425 21C15.7468 21 15.7511 21 15.7553 21C15.7596 21 15.7639 21 15.7682 21C15.7725 21 15.7768 21 15.7811 21C15.7854 21 15.7897 21 15.794 21C15.7983 21 15.8026 21 15.8069 21C15.8113 21 15.8156 21 15.8199 21C15.8242 21 15.8285 21 15.8329 21C15.8372 21 15.8415 21 15.8459 21C15.8502 21 15.8545 21 15.8589 21C15.8632 21 15.8676 21 15.8719 21C15.8763 21 15.8806 21 15.885 21C15.8893 21 15.8937 21 15.898 21C15.9024 21 15.9068 21 15.9111 21C15.9155 21 15.9199 21 15.9243 21C15.9286 21 15.933 21 15.9374 21C15.9418 21 15.9462 21 15.9506 21C15.955 21 15.9594 21 15.9637 21C15.9681 21 15.9725 21 15.977 21C15.9814 21 15.9858 21 15.9902 21C15.9946 21 15.999 21 16.0034 21C16.0078 21 16.0123 21 16.0167 21C16.0211 21 16.0255 21 16.03 21C16.0344 21 16.0388 21 16.0433 21C16.0477 21 16.0522 21 16.0566 21C16.0611 21 16.0655 21 16.07 21C16.0744 21 16.0789 21 16.0833 21C16.0878 21 16.0923 21 16.0967 21C16.1012 21 16.1057 21 16.1101 21C16.1146 21 16.1191 21 16.1236 21C16.1281 21 16.1325 21 16.137 21C16.1415 21 16.146 21 16.1505 21C16.155 21 16.1595 21 16.164 21C16.1685 21 16.173 21 16.1775 21C16.182 21 16.1865 21 16.1911 21C16.1956 21 16.2001 21 16.2046 21C16.2091 21 16.2137 21 16.2182 21C16.2227 21 16.2273 21 16.2318 21C16.2363 21 16.2409 21 16.2454 21C16.25 21 16.2545 21 16.2591 21C16.2636 21 16.2682 21 16.2727 21C16.2773 21 16.2819 21 16.2864 21C16.291 21 16.2956 21 16.3001 21C16.3047 21 16.3093 21 16.3139 21C16.3184 21 16.323 21 16.3276 21C16.3322 21 16.3368 21 16.3414 21C16.346 21 16.3506 21 16.3552 21C16.3598 21 16.3644 21 16.369 21C16.3736 21 16.3782 21 16.3828 21C16.3874 21 16.392 21 16.3967 21C16.4013 21 16.4059 21 16.4105 21C16.4152 21 16.4198 21 16.4244 21C16.4291 21 16.4337 21 16.4383 21C16.443 21 16.4476 21 16.4523 21C16.4569 21 16.4616 21 16.4662 21C16.4709 21 16.4756 21 16.4802 21C16.4849 21 16.4896 21 16.4942 21C16.4989 21 16.5036 21 16.5082 21C16.5129 21 16.5176 21 16.5223 21C16.527 21 16.5317 21 16.5363 21C16.541 21 16.5457 21 16.5504 21C16.5551 21 16.5598 21 16.5645 21C16.5692 21 16.5739 21 16.5787 21C16.5834 21 16.5881 21 16.5928 21C16.5975 21 16.6022 21 16.607 21C16.6117 21 16.6164 21 16.6212 21C16.6259 21 16.6306 21 16.6354 21C16.6401 21 16.6449 21 16.6496 21C16.6543 21 16.6591 21 16.6639 21C16.6686 21 16.6734 21 16.6781 21C16.6829 21 16.6876 21 16.6924 21C16.6972 21 16.702 21 16.7067 21C16.7115 21 16.7163 21 16.7211 21C16.7258 21 16.7306 21 16.7354 21C16.7402 21 16.745 21 16.7498 21C16.7546 21 16.7594 21 16.7642 21C16.769 21 16.7738 21 16.7786 21C16.7834 21 16.7882 21 16.7931 21C16.7979 21 16.8027 21 16.8075 21C16.8123 21 16.8172 21 16.822 21C16.8268 21 16.8317 21 16.8365 21C16.8413 21 16.8462 21 16.851 21C16.8559 21 16.8607 21 16.8656 21C16.8704 21 16.8753 21 16.8801 21C16.885 21 16.8899 21 16.8947 21C16.8996 21 16.9045 21 16.9093 21C16.9142 21 16.9191 21 16.924 21C16.9288 21 16.9337 21 16.9386 21C16.9435 21 16.9484 21 16.9533 21C16.9582 21 16.9631 21 16.968 21C16.9729 21 16.9778 21 16.9827 21C16.9876 21 16.9925 21 16.9974 21C17.0023 21 17.0072 21 17.0122 21C17.0171 21 17.022 21 17.0269 21C17.0319 21 17.0368 21 17.0417 21C17.0467 21 17.0516 21 17.0566 21C17.0615 21 17.0664 21 17.0714 21C17.0763 21 17.0813 21 17.0863 21C17.0912 21 17.0962 21 17.1011 21C17.1061 21 17.1111 21 17.116 21C17.121 21 17.126 21 17.131 21C17.1359 21 17.1409 21 17.1459 21C17.1509 21 17.1559 21 17.1609 21C17.1659 21 17.1708 21 17.1758 21C17.1808 21 17.1858 21 17.1908 21C17.1959 21 17.2009 21 17.2059 21C17.2109 21 17.2159 21 17.2209 21C17.2259 21 17.231 21 17.236 21C17.241 21 17.246 21 17.2511 21C17.2561 21 17.2612 21 17.2662 21C17.2712 21 17.2763 21 17.2813 21C17.2864 21 17.2914 21 17.2965 21C17.3015 21 17.3066 21 17.3116 21C17.3167 21 17.3218 21 17.3268 21C17.3319 21 17.337 21 17.3421 21C17.3471 21 17.3522 21 17.3573 21C17.3624 21 17.3675 21 17.3725 21C17.3776 21 17.3827 21 17.3878 21C17.3929 21 17.398 21 17.4031 21C17.4082 21 17.4133 21 17.4184 21C17.4236 21 17.4287 21 17.4338 21C17.4389 21 17.444 21 17.4491 21C17.4543 21 17.4594 21 17.4645 21C17.4697 21 17.4748 21 17.4799 21C17.4851 21 17.4902 21 17.4954 21C17.5005 21 17.5057 21 17.5108 21C17.516 21 17.5211 21 17.5263 21C17.5314 21 17.5366 21 17.5418 21C17.5469 21 17.5521 21 17.5573 21C17.5624 21 17.5676 21 17.5728 21C17.578 21 17.5832 21 17.5883 21C17.5935 21 17.5987 21 17.6039 21C17.6091 21 17.6143 21 17.6195 21C17.6247 21 17.6299 21 17.6351 21C17.6403 21 17.6455 21 17.6508 21C17.656 21 17.6612 21 17.6664 21C17.6716 21 17.6769 21 17.6821 21C17.6873 21 17.6925 21 17.6978 21C17.703 21 17.7083 21 17.7135 21C17.7187 21 17.724 21 17.7292 21C17.7345 21 17.7397 21 17.745 21C17.7503 21 17.7555 21 17.7608 21C17.766 21 17.7713 21 17.7766 21C17.7818 21 17.7871 21 17.7924 21C17.7977 21 17.803 21 17.8082 21C17.8135 21 17.8188 21 17.8241 21C17.8294 21 17.8347 21 17.84 21C17.8453 21 17.8506 21 17.8559 21C17.8612 21 17.8665 21 17.8718 21C17.8771 21 17.8825 21 17.8878 21C17.8931 21 17.8984 21 17.9037 21C17.9091 21 17.9144 21 17.9197 21C17.9251 21 17.9304 21 17.9357 21C17.9411 21 17.9464 21 17.9518 21C17.9571 21 17.9625 21 17.9678 21C17.9732 21 17.9785 21 17.9839 21C17.9893 21 17.9946 21 18 21V19ZM9.98573 19C9.984 19 9.98227 19 9.98053 19C9.9788 19 9.97707 19 9.97533 19C9.97359 19 9.97185 19 9.97011 19C9.96837 19 9.96663 19 9.96489 19C9.96315 19 9.9614 19 9.95965 19C9.95791 19 9.95616 19 9.95441 19C9.95266 19 9.95091 19 9.94915 19C9.9474 19 9.94564 19 9.94389 19C9.94213 19 9.94037 19 9.93861 19C9.93685 19 9.93509 19 9.93332 19C9.93156 19 9.9298 19 9.92803 19C9.92626 19 9.92449 19 9.92272 19C9.92095 19 9.91918 19 9.91741 19C9.91563 19 9.91386 19 9.91208 19C9.9103 19 9.90852 19 9.90674 19C9.90496 19 9.90318 19 9.9014 19C9.89961 19 9.89783 19 9.89604 19C9.89425 19 9.89246 19 9.89067 19C9.88888 19 9.88709 19 9.88529 19C9.8835 19 9.8817 19 9.87991 19C9.87811 19 9.87631 19 9.87451 19C9.87271 19 9.87091 19 9.8691 19C9.8673 19 9.86549 19 9.86368 19C9.86188 19 9.86007 19 9.85826 19C9.85644 19 9.85463 19 9.85282 19C9.851 19 9.84919 19 9.84737 19C9.84555 19 9.84373 19 9.84191 19C9.84009 19 9.83827 19 9.83644 19C9.83462 19 9.83279 19 9.83096 19C9.82914 19 9.82731 19 9.82548 19C9.82364 19 9.82181 19 9.81998 19C9.81814 19 9.81631 19 9.81447 19C9.81263 19 9.81079 19 9.80895 19C9.80711 19 9.80526 19 9.80342 19C9.80157 19 9.79973 19 9.79788 19C9.79603 19 9.79418 19 9.79233 19C9.79048 19 9.78863 19 9.78677 19C9.78492 19 9.78306 19 9.7812 19C9.77934 19 9.77748 19 9.77562 19C9.77376 19 9.7719 19 9.77003 19C9.76817 19 9.7663 19 9.76443 19C9.76256 19 9.76069 19 9.75882 19C9.75695 19 9.75507 19 9.7532 19C9.75132 19 9.74945 19 9.74757 19C9.74569 19 9.74381 19 9.74193 19C9.74005 19 9.73816 19 9.73628 19C9.73439 19 9.7325 19 9.73062 19C9.72873 19 9.72684 19 9.72494 19C9.72305 19 9.72116 19 9.71926 19C9.71737 19 9.71547 19 9.71357 19C9.71167 19 9.70977 19 9.70787 19C9.70597 19 9.70406 19 9.70216 19C9.70025 19 9.69835 19 9.69644 19C9.69453 19 9.69262 19 9.6907 19C9.68879 19 9.68688 19 9.68496 19C9.68305 19 9.68113 19 9.67921 19C9.67729 19 9.67537 19 9.67345 19C9.67152 19 9.6696 19 9.66767 19C9.66575 19 9.66382 19 9.66189 19C9.65996 19 9.65803 19 9.6561 19C9.65417 19 9.65223 19 9.6503 19C9.64836 19 9.64642 19 9.64448 19C9.64254 19 9.6406 19 9.63866 19C9.63672 19 9.63477 19 9.63283 19C9.63088 19 9.62893 19 9.62698 19C9.62503 19 9.62308 19 9.62113 19C9.61918 19 9.61722 19 9.61527 19C9.61331 19 9.61135 19 9.60939 19C9.60743 19 9.60547 19 9.60351 19C9.60154 19 9.59958 19 9.59761 19C9.59565 19 9.59368 19 9.59171 19C9.58974 19 9.58777 19 9.58579 19C9.58382 19 9.58185 19 9.57987 19C9.57789 19 9.57591 19 9.57393 19C9.57195 19 9.56997 19 9.56799 19C9.56601 19 9.56402 19 9.56203 19C9.56005 19 9.55806 19 9.55607 19C9.55408 19 9.55209 19 9.55009 19C9.5481 19 9.54611 19 9.54411 19C9.54211 19 9.54011 19 9.53811 19C9.53611 19 9.53411 19 9.53211 19C9.5301 19 9.5281 19 9.52609 19C9.52408 19 9.52208 19 9.52007 19C9.51806 19 9.51604 19 9.51403 19C9.51202 19 9.51 19 9.50798 19C9.50597 19 9.50395 19 9.50193 19C9.49991 19 9.49788 19 9.49586 19C9.49384 19 9.49181 19 9.48978 19C9.48776 19 9.48573 19 9.4837 19C9.48167 19 9.47963 19 9.4776 19C9.47557 19 9.47353 19 9.47149 19C9.46946 19 9.46742 19 9.46538 19C9.46334 19 9.46129 19 9.45925 19C9.4572 19 9.45516 19 9.45311 19C9.45106 19 9.44901 19 9.44696 19C9.44491 19 9.44286 19 9.44081 19C9.43875 19 9.4367 19 9.43464 19C9.43258 19 9.43052 19 9.42846 19C9.4264 19 9.42434 19 9.42227 19C9.42021 19 9.41814 19 9.41607 19C9.41401 19 9.41194 19 9.40986 19C9.40779 19 9.40572 19 9.40365 19C9.40157 19 9.3995 19 9.39742 19C9.39534 19 9.39326 19 9.39118 19C9.3891 19 9.38701 19 9.38493 19C9.38284 19 9.38076 19 9.37867 19C9.37658 19 9.37449 19 9.3724 19C9.37031 19 9.36822 19 9.36612 19C9.36403 19 9.36193 19 9.35983 19C9.35773 19 9.35563 19 9.35353 19C9.35143 19 9.34933 19 9.34722 19C9.34512 19 9.34301 19 9.3409 19C9.33879 19 9.33668 19 9.33457 19C9.33246 19 9.33035 19 9.32823 19C9.32612 19 9.324 19 9.32188 19C9.31976 19 9.31764 19 9.31552 19C9.3134 19 9.31128 19 9.30915 19C9.30703 19 9.3049 19 9.30277 19C9.30064 19 9.29851 19 9.29638 19C9.29425 19 9.29211 19 9.28998 19C9.28784 19 9.28571 19 9.28357 19C9.28143 19 9.27929 19 9.27715 19C9.275 19 9.27286 19 9.27071 19C9.26857 19 9.26642 19 9.26427 19C9.26212 19 9.25997 19 9.25782 19C9.25567 19 9.25351 19 9.25136 19C9.2492 19 9.24705 19 9.24489 19C9.24273 19 9.24057 19 9.23841 19C9.23624 19 9.23408 19 9.23191 19C9.22975 19 9.22758 19 9.22541 19C9.22324 19 9.22107 19 9.2189 19C9.21673 19 9.21455 19 9.21238 19C9.2102 19 9.20802 19 9.20584 19C9.20366 19 9.20148 19 9.1993 19C9.19712 19 9.19493 19 9.19275 19C9.19056 19 9.18837 19 9.18618 19C9.18399 19 9.1818 19 9.17961 19C9.17742 19 9.17522 19 9.17303 19C9.17083 19 9.16863 19 9.16643 19C9.16423 19 9.16203 19 9.15983 19C9.15763 19 9.15542 19 9.15321 19C9.15101 19 9.1488 19 9.14659 19C9.14438 19 9.14217 19 9.13996 19C9.13774 19 9.13553 19 9.13331 19C9.1311 19 9.12888 19 9.12666 19C9.12444 19 9.12222 19 9.11999 19C9.11777 19 9.11555 19 9.11332 19C9.11109 19 9.10886 19 9.10663 19C9.1044 19 9.10217 19 9.09994 19C9.09771 19 9.09547 19 9.09323 19C9.091 19 9.08876 19 9.08652 19C9.08428 19 9.08204 19 9.07979 19C9.07755 19 9.0753 19 9.07306 19C9.07081 19 9.06856 19 9.06631 19C9.06406 19 9.06181 19 9.05956 19C9.0573 19 9.05505 19 9.05279 19C9.05053 19 9.04827 19 9.04601 19C9.04375 19 9.04149 19 9.03923 19C9.03696 19 9.0347 19 9.03243 19C9.03016 19 9.0279 19 9.02563 19C9.02335 19 9.02108 19 9.01881 19C9.01653 19 9.01426 19 9.01198 19C9.0097 19 9.00743 19 9.00515 19C9.00286 19 9.00058 19 8.9983 19C8.99601 19 8.99373 19 8.99144 19C8.98915 19 8.98686 19 8.98457 19C8.98228 19 8.97999 19 8.9777 19C8.9754 19 8.97311 19 8.97081 19C8.96851 19 8.96621 19 8.96391 19C8.96161 19 8.95931 19 8.957 19C8.9547 19 8.95239 19 8.95009 19C8.94778 19 8.94547 19 8.94316 19C8.94085 19 8.93853 19 8.93622 19C8.9339 19 8.93159 19 8.92927 19C8.92695 19 8.92463 19 8.92231 19C8.91999 19 8.91767 19 8.91534 19C8.91302 19 8.91069 19 8.90836 19C8.90604 19 8.90371 19 8.90138 19C8.89904 19 8.89671 19 8.89438 19C8.89204 19 8.88971 19 8.88737 19C8.88503 19 8.88269 19 8.88035 19C8.87801 19 8.87566 19 8.87332 19C8.87097 19 8.86863 19 8.86628 19C8.86393 19 8.86158 19 8.85923 19C8.85688 19 8.85452 19 8.85217 19C8.84981 19 8.84746 19 8.8451 19C8.84274 19 8.84038 19 8.83802 19C8.83566 19 8.83329 19 8.83093 19C8.82856 19 8.8262 19 8.82383 19C8.82146 19 8.81909 19 8.81672 19C8.81435 19 8.81197 19 8.8096 19C8.80722 19 8.80484 19 8.80247 19C8.80009 19 8.79771 19 8.79532 19C8.79294 19 8.79056 19 8.78817 19C8.78579 19 8.7834 19 8.78101 19C8.77862 19 8.77623 19 8.77384 19C8.77145 19 8.76906 19 8.76666 19C8.76426 19 8.76187 19 8.75947 19C8.75707 19 8.75467 19 8.75227 19C8.74986 19 8.74746 19 8.74505 19C8.74265 19 8.74024 19 8.73783 19C8.73542 19 8.73301 19 8.7306 19C8.72819 19 8.72577 19 8.72336 19C8.72094 19 8.71852 19 8.71611 19C8.71369 19 8.71127 19 8.70884 19C8.70642 19 8.704 19 8.70157 19C8.69914 19 8.69672 19 8.69429 19C8.69186 19 8.68943 19 8.68699 19C8.68456 19 8.68213 19 8.67969 19C8.67725 19 8.67482 19 8.67238 19C8.66994 19 8.6675 19 8.66505 19C8.66261 19 8.66017 19 8.65772 19C8.65527 19 8.65283 19 8.65038 19C8.64793 19 8.64548 19 8.64302 19C8.64057 19 8.63812 19 8.63566 19C8.6332 19 8.63074 19 8.62828 19C8.62583 19 8.62336 19 8.6209 19C8.61844 19 8.61597 19 8.61351 19C8.61104 19 8.60857 19 8.6061 19C8.60363 19 8.60116 19 8.59869 19C8.59621 19 8.59374 19 8.59126 19C8.58879 19 8.58631 19 8.58383 19C8.58135 19 8.57887 19 8.57638 19C8.5739 19 8.57141 19 8.56893 19C8.56644 19 8.56395 19 8.56146 19C8.55897 19 8.55648 19 8.55399 19C8.55149 19 8.549 19 8.5465 19C8.544 19 8.54151 19 8.539 19C8.5365 19 8.534 19 8.5315 19C8.529 19 8.52649 19 8.52398 19C8.52148 19 8.51897 19 8.51646 19C8.51395 19 8.51143 19 8.50892 19C8.50641 19 8.50389 19 8.50137 19C8.49886 19 8.49634 19 8.49382 19C8.4913 19 8.48877 19 8.48625 19C8.48373 19 8.4812 19 8.47867 19C8.47615 19 8.47362 19 8.47109 19C8.46856 19 8.46602 19 8.46349 19C8.46096 19 8.45842 19 8.45588 19C8.45335 19 8.45081 19 8.44827 19C8.44572 19 8.44318 19 8.44064 19C8.43809 19 8.43555 19 8.433 19C8.43045 19 8.4279 19 8.42535 19C8.4228 19 8.42025 19 8.41769 19C8.41514 19 8.41258 19 8.41003 19C8.40747 19 8.40491 19 8.40235 19C8.39979 19 8.39722 19 8.39466 19C8.3921 19 8.38953 19 8.38696 19C8.38439 19 8.38182 19 8.37925 19C8.37668 19 8.37411 19 8.37153 19C8.36896 19 8.36638 19 8.36381 19C8.36123 19 8.35865 19 8.35607 19C8.35349 19 8.3509 19 8.34832 19C8.34573 19 8.34315 19 8.34056 19C8.33797 19 8.33538 19 8.33279 19C8.3302 19 8.3276 19 8.32501 19C8.32241 19 8.31982 19 8.31722 19C8.31462 19 8.31202 19 8.30942 19C8.30682 19 8.30421 19 8.30161 19C8.299 19 8.2964 19 8.29379 19C8.29118 19 8.28857 19 8.28596 19C8.28335 19 8.28073 19 8.27812 19C8.2755 19 8.27289 19 8.27027 19C8.26765 19 8.26503 19 8.26241 19C8.25979 19 8.25716 19 8.25454 19C8.25191 19 8.24928 19 8.24666 19C8.24403 19 8.2414 19 8.23876 19C8.23613 19 8.2335 19 8.23086 19C8.22823 19 8.22559 19 8.22295 19C8.22031 19 8.21767 19 8.21503 19C8.21239 19 8.20974 19 8.2071 19C8.20445 19 8.20181 19 8.19916 19C8.19651 19 8.19386 19 8.19121 19C8.18855 19 8.1859 19 8.18324 19C8.18059 19 8.17793 19 8.17527 19C8.17261 19 8.16995 19 8.16729 19C8.16463 19 8.16196 19 8.1593 19C8.15663 19 8.15396 19 8.15129 19C8.14862 19 8.14595 19 8.14328 19C8.14061 19 8.13793 19 8.13526 19C8.13258 19 8.1299 19 8.12723 19C8.12455 19 8.12187 19 8.11918 19C8.1165 19 8.11382 19 8.11113 19C8.10844 19 8.10576 19 8.10307 19C8.10038 19 8.09769 19 8.09499 19C8.0923 19 8.0896 19 8.08691 19C8.08421 19 8.08151 19 8.07881 19C8.07612 19 8.07341 19 8.07071 19C8.06801 19 8.0653 19 8.0626 19C8.05989 19 8.05718 19 8.05447 19C8.05176 19 8.04905 19 8.04634 19C8.04363 19 8.04091 19 8.03819 19C8.03548 19 8.03276 19 8.03004 19C8.02732 19 8.0246 19 8.02187 19C8.01915 19 8.01643 19 8.0137 19C8.01097 19 8.00824 19 8.00551 19C8.00278 19 8.00005 19 7.99732 19C7.99459 19 7.99185 19 7.98911 19C7.98638 19 7.98364 19 7.9809 19C7.97816 19 7.97542 19 7.97267 19C7.96993 19 7.96718 19 7.96444 19C7.96169 19 7.95894 19 7.95619 19C7.95344 19 7.95069 19 7.94794 19C7.94518 19 7.94243 19 7.93967 19C7.93691 19 7.93415 19 7.93139 19C7.92863 19 7.92587 19 7.92311 19C7.92034 19 7.91758 19 7.91481 19C7.91204 19 7.90927 19 7.9065 19C7.90373 19 7.90096 19 7.89819 19C7.89541 19 7.89264 19 7.88986 19C7.88708 19 7.8843 19 7.88152 19C7.87874 19 7.87596 19 7.87318 19C7.87039 19 7.86761 19 7.86482 19C7.86203 19 7.85924 19 7.85645 19C7.85366 19 7.85087 19 7.84807 19C7.84528 19 7.84248 19 7.83969 19C7.83689 19 7.83409 19 7.83129 19C7.82849 19 7.82568 19 7.82288 19C7.82008 19 7.81727 19 7.81446 19C7.81165 19 7.80884 19 7.80603 19C7.80322 19 7.80041 19 7.7976 19C7.79478 19 7.79196 19 7.78915 19C7.78633 19 7.78351 19 7.78069 19C7.77787 19 7.77504 19 7.77222 19C7.76939 19 7.76657 19 7.76374 19C7.76091 19 7.75808 19 7.75525 19C7.75242 19 7.74959 19 7.74675 19C7.74392 19 7.74108 19 7.73824 19C7.7354 19 7.73256 19 7.72972 19C7.72688 19 7.72404 19 7.72119 19C7.71835 19 7.7155 19 7.71265 19C7.70981 19 7.70696 19 7.7041 19C7.70125 19 7.6984 19 7.69554 19C7.69269 19 7.68983 19 7.68697 19C7.68411 19 7.68125 19 7.67839 19C7.67553 19 7.67267 19 7.6698 19C7.66694 19 7.66407 19 7.6612 19C7.65833 19 7.65546 19 7.65259 19C7.64972 19 7.64685 19 7.64397 19C7.6411 19 7.63822 19 7.63534 19C7.63246 19 7.62958 19 7.6267 19C7.62382 19 7.62093 19 7.61805 19C7.61516 19 7.61227 19 7.60939 19C7.6065 19 7.60361 19 7.60071 19C7.59782 19 7.59493 19 7.59203 19C7.58914 19 7.58624 19 7.58334 19C7.58044 19 7.57754 19 7.57464 19C7.57174 19 7.56883 19 7.56593 19C7.56302 19 7.56011 19 7.5572 19C7.5543 19 7.55138 19 7.54847 19C7.54556 19 7.54265 19 7.53973 19C7.53681 19 7.5339 19 7.53098 19C7.52806 19 7.52514 19 7.52221 19C7.51929 19 7.51637 19 7.51344 19C7.51052 19 7.50759 19 7.50466 19C7.50173 19 7.4988 19 7.49586 19C7.49293 19 7.49 19 7.48706 19C7.48413 19 7.48119 19 7.47825 19C7.47531 19 7.47237 19 7.46942 19C7.46648 19 7.46354 19 7.46059 19C7.45764 19 7.4547 19 7.45175 19C7.4488 19 7.44585 19 7.44289 19C7.43994 19 7.43699 19 7.43403 19C7.43107 19 7.42811 19 7.42515 19C7.42219 19 7.41923 19 7.41627 19C7.41331 19 7.41034 19 7.40738 19C7.40441 19 7.40144 19 7.39847 19C7.3955 19 7.39253 19 7.38956 19C7.38658 19 7.38361 19 7.38063 19C7.37765 19 7.37468 19 7.3717 19C7.36872 19 7.36573 19 7.36275 19C7.35977 19 7.35678 19 7.3538 19C7.35081 19 7.34782 19 7.34483 19C7.34184 19 7.33885 19 7.33585 19C7.33286 19 7.32987 19 7.32687 19C7.32387 19 7.32087 19 7.31787 19C7.31487 19 7.31187 19 7.30887 19C7.30586 19 7.30286 19 7.29985 19C7.29684 19 7.29383 19 7.29082 19C7.28781 19 7.2848 19 7.28179 19C7.27877 19 7.27576 19 7.27274 19C7.26972 19 7.2667 19 7.26368 19C7.26066 19 7.25764 19 7.25462 19C7.25159 19 7.24857 19 7.24554 19C7.24251 19 7.23948 19 7.23645 19C7.23342 19 7.23039 19 7.22736 19C7.22432 19 7.22129 19 7.21825 19C7.21521 19 7.21217 19 7.20913 19C7.20609 19 7.20305 19 7.2 19C7.19696 19 7.19391 19 7.19087 19C7.18782 19 7.18477 19 7.18172 19C7.17867 19 7.17561 19 7.17256 19C7.16951 19 7.16645 19 7.16339 19C7.16033 19 7.15727 19 7.15421 19C7.15115 19 7.14809 19 7.14502 19C7.14196 19 7.13889 19 7.13583 19C7.13276 19 7.12969 19 7.12662 19C7.12355 19 7.12047 19 7.1174 19C7.11432 19 7.11125 19 7.10817 19C7.10509 19 7.10201 19 7.09893 19C7.09585 19 7.09277 19 7.08968 19C7.0866 19 7.08351 19 7.08042 19C7.07733 19 7.07424 19 7.07115 19C7.06806 19 7.06497 19 7.06187 19C7.05878 19 7.05568 19 7.05258 19C7.04948 19 7.04638 19 7.04328 19C7.04018 19 7.03708 19 7.03397 19C7.03087 19 7.02776 19 7.02465 19C7.02154 19 7.01843 19 7.01532 19C7.01221 19 7.0091 19 7.00598 19C7.00287 19 6.99975 19 6.99663 19C6.99351 19 6.99039 19 6.98727 19C6.98415 19 6.98102 19 6.9779 19C6.97477 19 6.97165 19 6.96852 19C6.96539 19 6.96226 19 6.95913 19C6.95599 19 6.95286 19 6.94972 19C6.94659 19 6.94345 19 6.94031 19C6.93717 19 6.93403 19 6.93089 19C6.92775 19 6.92461 19 6.92146 19C6.91831 19 6.91517 19 6.91202 19C6.90887 19 6.90572 19 6.90257 19C6.89941 19 6.89626 19 6.8931 19C6.88995 19 6.88679 19 6.88363 19C6.88047 19 6.87731 19 6.87415 19C6.87099 19 6.86782 19 6.86466 19C6.86149 19 6.85832 19 6.85515 19C6.85198 19 6.84881 19 6.84564 19C6.84247 19 6.83929 19 6.83612 19C6.83294 19 6.82976 19 6.82658 19C6.82341 19 6.82022 19 6.81704 19C6.81386 19 6.81067 19 6.80749 19C6.8043 19 6.80111 19 6.79792 19C6.79473 19 6.79154 19 6.78835 19C6.78516 19 6.78196 19 6.77877 19C6.77557 19 6.77237 19 6.76917 19C6.76597 19 6.76277 19 6.75957 19C6.75637 19 6.75316 19 6.74995 19C6.74675 19 6.74354 19 6.74033 19C6.73712 19 6.73391 19 6.7307 19C6.72748 19 6.72427 19 6.72105 19C6.71783 19 6.71462 19 6.7114 19C6.70818 19 6.70495 19 6.70173 19C6.69851 19 6.69528 19 6.69206 19C6.68883 19 6.6856 19 6.68237 19C6.67914 19 6.67591 19 6.67268 19C6.66944 19 6.66621 19 6.66297 19C6.65973 19 6.6565 19 6.65325 19C6.65001 19 6.64677 19 6.64353 19C6.64029 19 6.63704 19 6.63379 19C6.63055 19 6.6273 19 6.62405 19C6.6208 19 6.61754 19 6.61429 19C6.61104 19 6.60778 19 6.60453 19C6.60127 19 6.59801 19 6.59475 19C6.59149 19 6.58823 19 6.58496 19C6.5817 19 6.57843 19 6.57517 19C6.5719 19 6.56863 19 6.56536 19C6.56209 19 6.55882 19 6.55554 19C6.55227 19 6.54899 19 6.54571 19C6.54244 19 6.53916 19 6.53588 19C6.5326 19 6.52931 19 6.52603 19C6.52275 19 6.51946 19 6.51617 19C6.51289 19 6.5096 19 6.5063 19C6.50301 19 6.49972 19 6.49643 19C6.49313 19 6.48984 19 6.48654 19C6.48324 19 6.47994 19 6.47664 19C6.47334 19 6.47004 19 6.46673 19C6.46343 19 6.46012 19 6.45681 19C6.45351 19 6.4502 19 6.44689 19C6.44358 19 6.44026 19 6.43695 19C6.43363 19 6.43032 19 6.427 19C6.42368 19 6.42036 19 6.41704 19C6.41372 19 6.4104 19 6.40707 19C6.40375 19 6.40042 19 6.39709 19C6.39376 19 6.39043 19 6.3871 19C6.38377 19 6.38044 19 6.3771 19C6.37377 19 6.37043 19 6.36709 19C6.36376 19 6.36042 19 6.35707 19C6.35373 19 6.35039 19 6.34704 19C6.3437 19 6.34035 19 6.337 19C6.33366 19 6.33031 19 6.32695 19C6.3236 19 6.32025 19 6.31689 19C6.31354 19 6.31018 19 6.30682 19C6.30347 19 6.30011 19 6.29674 19C6.29338 19 6.29002 19 6.28665 19C6.28329 19 6.27992 19 6.27655 19C6.27318 19 6.26981 19 6.26644 19C6.26307 19 6.2597 19 6.25632 19C6.25294 19 6.24957 19 6.24619 19C6.24281 19 6.23943 19 6.23605 19C6.23267 19 6.22928 19 6.2259 19C6.22251 19 6.21912 19 6.21573 19C6.21235 19 6.20896 19 6.20556 19C6.20217 19 6.19878 19 6.19538 19C6.19199 19 6.18859 19 6.18519 19C6.18179 19 6.17839 19 6.17499 19C6.17158 19 6.16818 19 6.16477 19C6.16137 19 6.15796 19 6.15455 19C6.15114 19 6.14773 19 6.14432 19C6.14091 19 6.13749 19 6.13408 19C6.13066 19 6.12724 19 6.12382 19C6.1204 19 6.11698 19 6.11356 19C6.11014 19 6.10671 19 6.10329 19C6.09986 19 6.09643 19 6.093 19C6.08958 19 6.08614 19 6.08271 19C6.07928 19 6.07584 19 6.07241 19C6.06897 19 6.06553 19 6.06209 19C6.05866 19 6.05521 19 6.05177 19C6.04833 19 6.04488 19 6.04144 19C6.03799 19 6.03454 19 6.03109 19C6.02764 19 6.02419 19 6.02074 19C6.01729 19 6.01383 19 6.01037 19C6.00692 19 6.00346 19 6 19V21C6.00346 21 6.00692 21 6.01037 21C6.01383 21 6.01729 21 6.02074 21C6.02419 21 6.02764 21 6.03109 21C6.03454 21 6.03799 21 6.04144 21C6.04488 21 6.04833 21 6.05177 21C6.05521 21 6.05866 21 6.06209 21C6.06553 21 6.06897 21 6.07241 21C6.07584 21 6.07928 21 6.08271 21C6.08614 21 6.08958 21 6.093 21C6.09643 21 6.09986 21 6.10329 21C6.10671 21 6.11014 21 6.11356 21C6.11698 21 6.1204 21 6.12382 21C6.12724 21 6.13066 21 6.13408 21C6.13749 21 6.14091 21 6.14432 21C6.14773 21 6.15114 21 6.15455 21C6.15796 21 6.16137 21 6.16477 21C6.16818 21 6.17158 21 6.17499 21C6.17839 21 6.18179 21 6.18519 21C6.18859 21 6.19199 21 6.19538 21C6.19878 21 6.20217 21 6.20556 21C6.20896 21 6.21235 21 6.21573 21C6.21912 21 6.22251 21 6.2259 21C6.22928 21 6.23267 21 6.23605 21C6.23943 21 6.24281 21 6.24619 21C6.24957 21 6.25294 21 6.25632 21C6.2597 21 6.26307 21 6.26644 21C6.26981 21 6.27318 21 6.27655 21C6.27992 21 6.28329 21 6.28665 21C6.29002 21 6.29338 21 6.29674 21C6.30011 21 6.30347 21 6.30682 21C6.31018 21 6.31354 21 6.31689 21C6.32025 21 6.3236 21 6.32695 21C6.33031 21 6.33366 21 6.337 21C6.34035 21 6.3437 21 6.34704 21C6.35039 21 6.35373 21 6.35707 21C6.36042 21 6.36376 21 6.36709 21C6.37043 21 6.37377 21 6.3771 21C6.38044 21 6.38377 21 6.3871 21C6.39043 21 6.39376 21 6.39709 21C6.40042 21 6.40375 21 6.40707 21C6.4104 21 6.41372 21 6.41704 21C6.42036 21 6.42368 21 6.427 21C6.43032 21 6.43363 21 6.43695 21C6.44026 21 6.44358 21 6.44689 21C6.4502 21 6.45351 21 6.45681 21C6.46012 21 6.46343 21 6.46673 21C6.47004 21 6.47334 21 6.47664 21C6.47994 21 6.48324 21 6.48654 21C6.48984 21 6.49313 21 6.49643 21C6.49972 21 6.50301 21 6.5063 21C6.5096 21 6.51289 21 6.51617 21C6.51946 21 6.52275 21 6.52603 21C6.52931 21 6.5326 21 6.53588 21C6.53916 21 6.54244 21 6.54571 21C6.54899 21 6.55227 21 6.55554 21C6.55882 21 6.56209 21 6.56536 21C6.56863 21 6.5719 21 6.57517 21C6.57843 21 6.5817 21 6.58496 21C6.58823 21 6.59149 21 6.59475 21C6.59801 21 6.60127 21 6.60453 21C6.60778 21 6.61104 21 6.61429 21C6.61754 21 6.6208 21 6.62405 21C6.6273 21 6.63055 21 6.63379 21C6.63704 21 6.64029 21 6.64353 21C6.64677 21 6.65001 21 6.65325 21C6.6565 21 6.65973 21 6.66297 21C6.66621 21 6.66944 21 6.67268 21C6.67591 21 6.67914 21 6.68237 21C6.6856 21 6.68883 21 6.69206 21C6.69528 21 6.69851 21 6.70173 21C6.70495 21 6.70818 21 6.7114 21C6.71462 21 6.71783 21 6.72105 21C6.72427 21 6.72748 21 6.7307 21C6.73391 21 6.73712 21 6.74033 21C6.74354 21 6.74675 21 6.74995 21C6.75316 21 6.75637 21 6.75957 21C6.76277 21 6.76597 21 6.76917 21C6.77237 21 6.77557 21 6.77877 21C6.78196 21 6.78516 21 6.78835 21C6.79154 21 6.79473 21 6.79792 21C6.80111 21 6.8043 21 6.80749 21C6.81067 21 6.81386 21 6.81704 21C6.82022 21 6.82341 21 6.82658 21C6.82976 21 6.83294 21 6.83612 21C6.83929 21 6.84247 21 6.84564 21C6.84881 21 6.85198 21 6.85515 21C6.85832 21 6.86149 21 6.86466 21C6.86782 21 6.87099 21 6.87415 21C6.87731 21 6.88047 21 6.88363 21C6.88679 21 6.88995 21 6.8931 21C6.89626 21 6.89941 21 6.90257 21C6.90572 21 6.90887 21 6.91202 21C6.91517 21 6.91831 21 6.92146 21C6.92461 21 6.92775 21 6.93089 21C6.93403 21 6.93717 21 6.94031 21C6.94345 21 6.94659 21 6.94972 21C6.95286 21 6.95599 21 6.95913 21C6.96226 21 6.96539 21 6.96852 21C6.97165 21 6.97477 21 6.9779 21C6.98102 21 6.98415 21 6.98727 21C6.99039 21 6.99351 21 6.99663 21C6.99975 21 7.00287 21 7.00598 21C7.0091 21 7.01221 21 7.01532 21C7.01843 21 7.02154 21 7.02465 21C7.02776 21 7.03087 21 7.03397 21C7.03708 21 7.04018 21 7.04328 21C7.04638 21 7.04948 21 7.05258 21C7.05568 21 7.05878 21 7.06187 21C7.06497 21 7.06806 21 7.07115 21C7.07424 21 7.07733 21 7.08042 21C7.08351 21 7.0866 21 7.08968 21C7.09277 21 7.09585 21 7.09893 21C7.10201 21 7.10509 21 7.10817 21C7.11125 21 7.11432 21 7.1174 21C7.12047 21 7.12355 21 7.12662 21C7.12969 21 7.13276 21 7.13583 21C7.13889 21 7.14196 21 7.14502 21C7.14809 21 7.15115 21 7.15421 21C7.15727 21 7.16033 21 7.16339 21C7.16645 21 7.16951 21 7.17256 21C7.17561 21 7.17867 21 7.18172 21C7.18477 21 7.18782 21 7.19087 21C7.19391 21 7.19696 21 7.2 21C7.20305 21 7.20609 21 7.20913 21C7.21217 21 7.21521 21 7.21825 21C7.22129 21 7.22432 21 7.22736 21C7.23039 21 7.23342 21 7.23645 21C7.23948 21 7.24251 21 7.24554 21C7.24857 21 7.25159 21 7.25462 21C7.25764 21 7.26066 21 7.26368 21C7.2667 21 7.26972 21 7.27274 21C7.27576 21 7.27877 21 7.28179 21C7.2848 21 7.28781 21 7.29082 21C7.29383 21 7.29684 21 7.29985 21C7.30286 21 7.30586 21 7.30887 21C7.31187 21 7.31487 21 7.31787 21C7.32087 21 7.32387 21 7.32687 21C7.32987 21 7.33286 21 7.33585 21C7.33885 21 7.34184 21 7.34483 21C7.34782 21 7.35081 21 7.3538 21C7.35678 21 7.35977 21 7.36275 21C7.36573 21 7.36872 21 7.3717 21C7.37468 21 7.37765 21 7.38063 21C7.38361 21 7.38658 21 7.38956 21C7.39253 21 7.3955 21 7.39847 21C7.40144 21 7.40441 21 7.40738 21C7.41034 21 7.41331 21 7.41627 21C7.41923 21 7.42219 21 7.42515 21C7.42811 21 7.43107 21 7.43403 21C7.43699 21 7.43994 21 7.44289 21C7.44585 21 7.4488 21 7.45175 21C7.4547 21 7.45764 21 7.46059 21C7.46354 21 7.46648 21 7.46942 21C7.47237 21 7.47531 21 7.47825 21C7.48119 21 7.48413 21 7.48706 21C7.49 21 7.49293 21 7.49586 21C7.4988 21 7.50173 21 7.50466 21C7.50759 21 7.51052 21 7.51344 21C7.51637 21 7.51929 21 7.52221 21C7.52514 21 7.52806 21 7.53098 21C7.5339 21 7.53681 21 7.53973 21C7.54265 21 7.54556 21 7.54847 21C7.55138 21 7.5543 21 7.5572 21C7.56011 21 7.56302 21 7.56593 21C7.56883 21 7.57174 21 7.57464 21C7.57754 21 7.58044 21 7.58334 21C7.58624 21 7.58914 21 7.59203 21C7.59493 21 7.59782 21 7.60071 21C7.60361 21 7.6065 21 7.60939 21C7.61227 21 7.61516 21 7.61805 21C7.62093 21 7.62382 21 7.6267 21C7.62958 21 7.63246 21 7.63534 21C7.63822 21 7.6411 21 7.64397 21C7.64685 21 7.64972 21 7.65259 21C7.65546 21 7.65833 21 7.6612 21C7.66407 21 7.66694 21 7.6698 21C7.67267 21 7.67553 21 7.67839 21C7.68125 21 7.68411 21 7.68697 21C7.68983 21 7.69269 21 7.69554 21C7.6984 21 7.70125 21 7.7041 21C7.70696 21 7.70981 21 7.71265 21C7.7155 21 7.71835 21 7.72119 21C7.72404 21 7.72688 21 7.72972 21C7.73256 21 7.7354 21 7.73824 21C7.74108 21 7.74392 21 7.74675 21C7.74959 21 7.75242 21 7.75525 21C7.75808 21 7.76091 21 7.76374 21C7.76657 21 7.76939 21 7.77222 21C7.77504 21 7.77787 21 7.78069 21C7.78351 21 7.78633 21 7.78915 21C7.79196 21 7.79478 21 7.7976 21C7.80041 21 7.80322 21 7.80603 21C7.80884 21 7.81165 21 7.81446 21C7.81727 21 7.82008 21 7.82288 21C7.82568 21 7.82849 21 7.83129 21C7.83409 21 7.83689 21 7.83969 21C7.84248 21 7.84528 21 7.84807 21C7.85087 21 7.85366 21 7.85645 21C7.85924 21 7.86203 21 7.86482 21C7.86761 21 7.87039 21 7.87318 21C7.87596 21 7.87874 21 7.88152 21C7.8843 21 7.88708 21 7.88986 21C7.89264 21 7.89541 21 7.89819 21C7.90096 21 7.90373 21 7.9065 21C7.90927 21 7.91204 21 7.91481 21C7.91758 21 7.92034 21 7.92311 21C7.92587 21 7.92863 21 7.93139 21C7.93415 21 7.93691 21 7.93967 21C7.94243 21 7.94518 21 7.94794 21C7.95069 21 7.95344 21 7.95619 21C7.95894 21 7.96169 21 7.96444 21C7.96718 21 7.96993 21 7.97267 21C7.97542 21 7.97816 21 7.9809 21C7.98364 21 7.98638 21 7.98911 21C7.99185 21 7.99459 21 7.99732 21C8.00005 21 8.00278 21 8.00551 21C8.00824 21 8.01097 21 8.0137 21C8.01643 21 8.01915 21 8.02187 21C8.0246 21 8.02732 21 8.03004 21C8.03276 21 8.03548 21 8.03819 21C8.04091 21 8.04363 21 8.04634 21C8.04905 21 8.05176 21 8.05447 21C8.05718 21 8.05989 21 8.0626 21C8.0653 21 8.06801 21 8.07071 21C8.07341 21 8.07612 21 8.07881 21C8.08151 21 8.08421 21 8.08691 21C8.0896 21 8.0923 21 8.09499 21C8.09769 21 8.10038 21 8.10307 21C8.10576 21 8.10844 21 8.11113 21C8.11382 21 8.1165 21 8.11918 21C8.12187 21 8.12455 21 8.12723 21C8.1299 21 8.13258 21 8.13526 21C8.13793 21 8.14061 21 8.14328 21C8.14595 21 8.14862 21 8.15129 21C8.15396 21 8.15663 21 8.1593 21C8.16196 21 8.16463 21 8.16729 21C8.16995 21 8.17261 21 8.17527 21C8.17793 21 8.18059 21 8.18324 21C8.1859 21 8.18855 21 8.19121 21C8.19386 21 8.19651 21 8.19916 21C8.20181 21 8.20445 21 8.2071 21C8.20974 21 8.21239 21 8.21503 21C8.21767 21 8.22031 21 8.22295 21C8.22559 21 8.22823 21 8.23086 21C8.2335 21 8.23613 21 8.23876 21C8.2414 21 8.24403 21 8.24666 21C8.24928 21 8.25191 21 8.25454 21C8.25716 21 8.25979 21 8.26241 21C8.26503 21 8.26765 21 8.27027 21C8.27289 21 8.2755 21 8.27812 21C8.28073 21 8.28335 21 8.28596 21C8.28857 21 8.29118 21 8.29379 21C8.2964 21 8.299 21 8.30161 21C8.30421 21 8.30682 21 8.30942 21C8.31202 21 8.31462 21 8.31722 21C8.31982 21 8.32241 21 8.32501 21C8.3276 21 8.3302 21 8.33279 21C8.33538 21 8.33797 21 8.34056 21C8.34315 21 8.34573 21 8.34832 21C8.3509 21 8.35349 21 8.35607 21C8.35865 21 8.36123 21 8.36381 21C8.36638 21 8.36896 21 8.37153 21C8.37411 21 8.37668 21 8.37925 21C8.38182 21 8.38439 21 8.38696 21C8.38953 21 8.3921 21 8.39466 21C8.39722 21 8.39979 21 8.40235 21C8.40491 21 8.40747 21 8.41003 21C8.41258 21 8.41514 21 8.41769 21C8.42025 21 8.4228 21 8.42535 21C8.4279 21 8.43045 21 8.433 21C8.43555 21 8.43809 21 8.44064 21C8.44318 21 8.44572 21 8.44827 21C8.45081 21 8.45335 21 8.45588 21C8.45842 21 8.46096 21 8.46349 21C8.46602 21 8.46856 21 8.47109 21C8.47362 21 8.47615 21 8.47867 21C8.4812 21 8.48373 21 8.48625 21C8.48877 21 8.4913 21 8.49382 21C8.49634 21 8.49886 21 8.50137 21C8.50389 21 8.50641 21 8.50892 21C8.51143 21 8.51395 21 8.51646 21C8.51897 21 8.52148 21 8.52398 21C8.52649 21 8.529 21 8.5315 21C8.534 21 8.5365 21 8.539 21C8.54151 21 8.544 21 8.5465 21C8.549 21 8.55149 21 8.55399 21C8.55648 21 8.55897 21 8.56146 21C8.56395 21 8.56644 21 8.56893 21C8.57141 21 8.5739 21 8.57638 21C8.57887 21 8.58135 21 8.58383 21C8.58631 21 8.58879 21 8.59126 21C8.59374 21 8.59621 21 8.59869 21C8.60116 21 8.60363 21 8.6061 21C8.60857 21 8.61104 21 8.61351 21C8.61597 21 8.61844 21 8.6209 21C8.62336 21 8.62583 21 8.62828 21C8.63074 21 8.6332 21 8.63566 21C8.63812 21 8.64057 21 8.64302 21C8.64548 21 8.64793 21 8.65038 21C8.65283 21 8.65527 21 8.65772 21C8.66017 21 8.66261 21 8.66505 21C8.6675 21 8.66994 21 8.67238 21C8.67482 21 8.67725 21 8.67969 21C8.68213 21 8.68456 21 8.68699 21C8.68943 21 8.69186 21 8.69429 21C8.69672 21 8.69914 21 8.70157 21C8.704 21 8.70642 21 8.70884 21C8.71127 21 8.71369 21 8.71611 21C8.71852 21 8.72094 21 8.72336 21C8.72577 21 8.72819 21 8.7306 21C8.73301 21 8.73542 21 8.73783 21C8.74024 21 8.74265 21 8.74505 21C8.74746 21 8.74986 21 8.75227 21C8.75467 21 8.75707 21 8.75947 21C8.76187 21 8.76426 21 8.76666 21C8.76906 21 8.77145 21 8.77384 21C8.77623 21 8.77862 21 8.78101 21C8.7834 21 8.78579 21 8.78817 21C8.79056 21 8.79294 21 8.79532 21C8.79771 21 8.80009 21 8.80247 21C8.80484 21 8.80722 21 8.8096 21C8.81197 21 8.81435 21 8.81672 21C8.81909 21 8.82146 21 8.82383 21C8.8262 21 8.82856 21 8.83093 21C8.83329 21 8.83566 21 8.83802 21C8.84038 21 8.84274 21 8.8451 21C8.84746 21 8.84981 21 8.85217 21C8.85452 21 8.85688 21 8.85923 21C8.86158 21 8.86393 21 8.86628 21C8.86863 21 8.87097 21 8.87332 21C8.87566 21 8.87801 21 8.88035 21C8.88269 21 8.88503 21 8.88737 21C8.88971 21 8.89204 21 8.89438 21C8.89671 21 8.89904 21 8.90138 21C8.90371 21 8.90604 21 8.90836 21C8.91069 21 8.91302 21 8.91534 21C8.91767 21 8.91999 21 8.92231 21C8.92463 21 8.92695 21 8.92927 21C8.93159 21 8.9339 21 8.93622 21C8.93853 21 8.94085 21 8.94316 21C8.94547 21 8.94778 21 8.95009 21C8.95239 21 8.9547 21 8.957 21C8.95931 21 8.96161 21 8.96391 21C8.96621 21 8.96851 21 8.97081 21C8.97311 21 8.9754 21 8.9777 21C8.97999 21 8.98228 21 8.98457 21C8.98686 21 8.98915 21 8.99144 21C8.99373 21 8.99601 21 8.9983 21C9.00058 21 9.00286 21 9.00515 21C9.00743 21 9.0097 21 9.01198 21C9.01426 21 9.01653 21 9.01881 21C9.02108 21 9.02335 21 9.02563 21C9.0279 21 9.03016 21 9.03243 21C9.0347 21 9.03696 21 9.03923 21C9.04149 21 9.04375 21 9.04601 21C9.04827 21 9.05053 21 9.05279 21C9.05505 21 9.0573 21 9.05956 21C9.06181 21 9.06406 21 9.06631 21C9.06856 21 9.07081 21 9.07306 21C9.0753 21 9.07755 21 9.07979 21C9.08204 21 9.08428 21 9.08652 21C9.08876 21 9.091 21 9.09323 21C9.09547 21 9.09771 21 9.09994 21C9.10217 21 9.1044 21 9.10663 21C9.10886 21 9.11109 21 9.11332 21C9.11555 21 9.11777 21 9.11999 21C9.12222 21 9.12444 21 9.12666 21C9.12888 21 9.1311 21 9.13331 21C9.13553 21 9.13774 21 9.13996 21C9.14217 21 9.14438 21 9.14659 21C9.1488 21 9.15101 21 9.15321 21C9.15542 21 9.15763 21 9.15983 21C9.16203 21 9.16423 21 9.16643 21C9.16863 21 9.17083 21 9.17303 21C9.17522 21 9.17742 21 9.17961 21C9.1818 21 9.18399 21 9.18618 21C9.18837 21 9.19056 21 9.19275 21C9.19493 21 9.19712 21 9.1993 21C9.20148 21 9.20366 21 9.20584 21C9.20802 21 9.2102 21 9.21238 21C9.21455 21 9.21673 21 9.2189 21C9.22107 21 9.22324 21 9.22541 21C9.22758 21 9.22975 21 9.23191 21C9.23408 21 9.23624 21 9.23841 21C9.24057 21 9.24273 21 9.24489 21C9.24705 21 9.2492 21 9.25136 21C9.25351 21 9.25567 21 9.25782 21C9.25997 21 9.26212 21 9.26427 21C9.26642 21 9.26857 21 9.27071 21C9.27286 21 9.275 21 9.27715 21C9.27929 21 9.28143 21 9.28357 21C9.28571 21 9.28784 21 9.28998 21C9.29211 21 9.29425 21 9.29638 21C9.29851 21 9.30064 21 9.30277 21C9.3049 21 9.30703 21 9.30915 21C9.31128 21 9.3134 21 9.31552 21C9.31764 21 9.31976 21 9.32188 21C9.324 21 9.32612 21 9.32823 21C9.33035 21 9.33246 21 9.33457 21C9.33668 21 9.33879 21 9.3409 21C9.34301 21 9.34512 21 9.34722 21C9.34933 21 9.35143 21 9.35353 21C9.35563 21 9.35773 21 9.35983 21C9.36193 21 9.36403 21 9.36612 21C9.36822 21 9.37031 21 9.3724 21C9.37449 21 9.37658 21 9.37867 21C9.38076 21 9.38284 21 9.38493 21C9.38701 21 9.3891 21 9.39118 21C9.39326 21 9.39534 21 9.39742 21C9.3995 21 9.40157 21 9.40365 21C9.40572 21 9.40779 21 9.40986 21C9.41194 21 9.41401 21 9.41607 21C9.41814 21 9.42021 21 9.42227 21C9.42434 21 9.4264 21 9.42846 21C9.43052 21 9.43258 21 9.43464 21C9.4367 21 9.43875 21 9.44081 21C9.44286 21 9.44491 21 9.44696 21C9.44901 21 9.45106 21 9.45311 21C9.45516 21 9.4572 21 9.45925 21C9.46129 21 9.46334 21 9.46538 21C9.46742 21 9.46946 21 9.47149 21C9.47353 21 9.47557 21 9.4776 21C9.47963 21 9.48167 21 9.4837 21C9.48573 21 9.48776 21 9.48978 21C9.49181 21 9.49384 21 9.49586 21C9.49788 21 9.49991 21 9.50193 21C9.50395 21 9.50597 21 9.50798 21C9.51 21 9.51202 21 9.51403 21C9.51604 21 9.51806 21 9.52007 21C9.52208 21 9.52408 21 9.52609 21C9.5281 21 9.5301 21 9.53211 21C9.53411 21 9.53611 21 9.53811 21C9.54011 21 9.54211 21 9.54411 21C9.54611 21 9.5481 21 9.55009 21C9.55209 21 9.55408 21 9.55607 21C9.55806 21 9.56005 21 9.56203 21C9.56402 21 9.56601 21 9.56799 21C9.56997 21 9.57195 21 9.57393 21C9.57591 21 9.57789 21 9.57987 21C9.58185 21 9.58382 21 9.58579 21C9.58777 21 9.58974 21 9.59171 21C9.59368 21 9.59565 21 9.59761 21C9.59958 21 9.60154 21 9.60351 21C9.60547 21 9.60743 21 9.60939 21C9.61135 21 9.61331 21 9.61527 21C9.61722 21 9.61918 21 9.62113 21C9.62308 21 9.62503 21 9.62698 21C9.62893 21 9.63088 21 9.63283 21C9.63477 21 9.63672 21 9.63866 21C9.6406 21 9.64254 21 9.64448 21C9.64642 21 9.64836 21 9.6503 21C9.65223 21 9.65417 21 9.6561 21C9.65803 21 9.65996 21 9.66189 21C9.66382 21 9.66575 21 9.66767 21C9.6696 21 9.67152 21 9.67345 21C9.67537 21 9.67729 21 9.67921 21C9.68113 21 9.68305 21 9.68496 21C9.68688 21 9.68879 21 9.6907 21C9.69262 21 9.69453 21 9.69644 21C9.69835 21 9.70025 21 9.70216 21C9.70406 21 9.70597 21 9.70787 21C9.70977 21 9.71167 21 9.71357 21C9.71547 21 9.71737 21 9.71926 21C9.72116 21 9.72305 21 9.72494 21C9.72684 21 9.72873 21 9.73062 21C9.7325 21 9.73439 21 9.73628 21C9.73816 21 9.74005 21 9.74193 21C9.74381 21 9.74569 21 9.74757 21C9.74945 21 9.75132 21 9.7532 21C9.75507 21 9.75695 21 9.75882 21C9.76069 21 9.76256 21 9.76443 21C9.7663 21 9.76817 21 9.77003 21C9.7719 21 9.77376 21 9.77562 21C9.77748 21 9.77934 21 9.7812 21C9.78306 21 9.78492 21 9.78677 21C9.78863 21 9.79048 21 9.79233 21C9.79418 21 9.79603 21 9.79788 21C9.79973 21 9.80157 21 9.80342 21C9.80526 21 9.80711 21 9.80895 21C9.81079 21 9.81263 21 9.81447 21C9.81631 21 9.81814 21 9.81998 21C9.82181 21 9.82364 21 9.82548 21C9.82731 21 9.82914 21 9.83096 21C9.83279 21 9.83462 21 9.83644 21C9.83827 21 9.84009 21 9.84191 21C9.84373 21 9.84555 21 9.84737 21C9.84919 21 9.851 21 9.85282 21C9.85463 21 9.85644 21 9.85826 21C9.86007 21 9.86188 21 9.86368 21C9.86549 21 9.8673 21 9.8691 21C9.87091 21 9.87271 21 9.87451 21C9.87631 21 9.87811 21 9.87991 21C9.8817 21 9.8835 21 9.88529 21C9.88709 21 9.88888 21 9.89067 21C9.89246 21 9.89425 21 9.89604 21C9.89783 21 9.89961 21 9.9014 21C9.90318 21 9.90496 21 9.90674 21C9.90852 21 9.9103 21 9.91208 21C9.91386 21 9.91563 21 9.91741 21C9.91918 21 9.92095 21 9.92272 21C9.92449 21 9.92626 21 9.92803 21C9.9298 21 9.93156 21 9.93332 21C9.93509 21 9.93685 21 9.93861 21C9.94037 21 9.94213 21 9.94389 21C9.94564 21 9.9474 21 9.94915 21C9.95091 21 9.95266 21 9.95441 21C9.95616 21 9.95791 21 9.95965 21C9.9614 21 9.96315 21 9.96489 21C9.96663 21 9.96837 21 9.97011 21C9.97185 21 9.97359 21 9.97533 21C9.97707 21 9.9788 21 9.98053 21C9.98227 21 9.984 21 9.98573 21V19ZM6 19C5.44772 19 5 18.5523 5 18H3C3 19.6569 4.34315 21 6 21V19ZM5 18V6H3V18H5ZM5 6C5 5.44772 5.44772 5 6 5V3C4.34315 3 3 4.34315 3 6H5ZM6 5H15.069V3H6V5Z" fill="#707C8E"/>
<path fill-rule="evenodd" clip-rule="evenodd" d="M12.5 20.9932H12L12.5 18.9982V20.9932Z" fill="#707C8E"/>
<path fill-rule="evenodd" clip-rule="evenodd" d="M17.8352 4.99498H17.2902L17.8352 3V4.99498Z" fill="#707C8E"/>
<path d="M4 16.4403L8.66166 10.7913L11.3863 14.6739" stroke="#707C8E" stroke-width="2"/>
<circle cx="10.5" cy="7.5" r="1.5" fill="#707C8E"/>
<path d="M15.7121 0.788748L8.71212 22.7887" stroke="#707C8E" stroke-width="2"/>
</svg>
