<svg width="24" height="24" viewBox="0 0 24 24" fill="none" xmlns="http://www.w3.org/2000/svg">
<path fill-rule="evenodd" clip-rule="evenodd" d="M9.53084 6.50812C9.89664 6.70389 10.125 7.08511 10.125 7.5V19.5C10.125 19.9149 9.89664 20.2961 9.53084 20.4919C9.16504 20.6877 8.72118 20.6662 8.37596 20.4361L4.15938 17.625H1.5C0.87868 17.625 0.375 17.1213 0.375 16.5V10.5C0.375 9.87868 0.87868 9.375 1.5 9.375H4.15938L8.37596 6.56395C8.72118 6.3338 9.16504 6.31235 9.53084 6.50812ZM7.875 9.60208L5.12404 11.4361C4.93924 11.5593 4.7221 11.625 4.5 11.625H2.625V15.375H4.5C4.7221 15.375 4.93924 15.4407 5.12404 15.5639L7.875 17.3979V9.60208Z" fill="#707C8E"/>
<path fill-rule="evenodd" clip-rule="evenodd" d="M13.682 13.5533L12.091 15.1443L14.2124 17.2656L15.8033 15.6746L17.3943 17.2656L19.5157 15.1443L17.9247 13.5533L19.5157 11.9623L17.3943 9.84099L15.8033 11.432L14.2124 9.84099L12.091 11.9623L13.682 13.5533Z" fill="#707C8E"/>
</svg>
