<svg width="16" height="16" viewBox="0 0 16 16" fill="none" xmlns="http://www.w3.org/2000/svg">
<path d="M3 7V7.75C3.14807 7.75 3.29282 7.70617 3.41603 7.62404L3 7ZM6 5H6.75C6.75 4.7234 6.59776 4.46926 6.35389 4.33874C6.11003 4.20823 5.81412 4.22253 5.58397 4.37596L6 5ZM1 7V6.25C0.585786 6.25 0.25 6.58579 0.25 7H1ZM1 11H0.25C0.25 11.4142 0.585786 11.75 1 11.75L1 11ZM3 11L3.41603 10.376C3.29282 10.2938 3.14807 10.25 3 10.25V11ZM6 13L5.58397 13.624C5.81412 13.7775 6.11003 13.7918 6.35389 13.6613C6.59776 13.5307 6.75 13.2766 6.75 13H6ZM3.41603 7.62404L6.41603 5.62404L5.58397 4.37596L2.58397 6.37596L3.41603 7.62404ZM1 7.75H3V6.25H1V7.75ZM1.75 11V7H0.25V11H1.75ZM3 10.25H1V11.75H3V10.25ZM6.41603 12.376L3.41603 10.376L2.58397 11.624L5.58397 13.624L6.41603 12.376ZM5.25 5V13H6.75V5H5.25Z" fill="#707C8E"/>
<path fill-rule="evenodd" clip-rule="evenodd" d="M9.12131 9.03553L8.06065 10.0962L9.47486 11.5104L10.5355 10.4497L11.5962 11.5104L13.0104 10.0962L11.9497 9.03553L13.0104 7.97487L11.5962 6.56066L10.5355 7.62132L9.47486 6.56066L8.06065 7.97487L9.12131 9.03553Z" fill="#707C8E"/>
</svg>
