<svg width="84" height="84" viewBox="0 0 84 84" fill="none" xmlns="http://www.w3.org/2000/svg">
<rect x="22.3125" y="42.9026" width="45.6111" height="29.8227" rx="7.01709" transform="rotate(-15 22.3125 42.9026)" fill="url(#paint0_linear_2752_5003)"/>
<rect x="10.5" y="24.535" width="55.3788" height="36.2092" rx="8.51981" fill="url(#paint1_linear_2752_5003)"/>
<rect x="10.5" y="24.5352" width="55.3788" height="36.2092" rx="8.51981" fill="url(#paint2_linear_2752_5003)"/>
<path fill-rule="evenodd" clip-rule="evenodd" d="M29.5312 13.125C30.5461 13.125 31.3687 13.9477 31.3687 14.9625V16.8H46.0688V14.9625C46.0688 13.9477 46.8914 13.125 47.9062 13.125C48.9211 13.125 49.7437 13.9477 49.7437 14.9625V16.8H51.5812C54.6257 16.8 57.0938 19.268 57.0938 22.3125V44.3625C57.0938 47.407 54.6257 49.875 51.5812 49.875H25.8562C22.8118 49.875 20.3438 47.407 20.3438 44.3625V22.3125C20.3438 19.268 22.8118 16.8 25.8563 16.8H27.6937V14.9625C27.6937 13.9477 28.5164 13.125 29.5312 13.125ZM46.0688 20.475V22.3125C46.0688 23.3273 46.8914 24.15 47.9062 24.15C48.9211 24.15 49.7437 23.3273 49.7437 22.3125V20.475H51.5812C52.5961 20.475 53.4188 21.2977 53.4188 22.3125V27.825H24.0187V22.3125C24.0187 21.2977 24.8414 20.475 25.8563 20.475H27.6937V22.3125C27.6937 23.3273 28.5164 24.15 29.5312 24.15C30.5461 24.15 31.3687 23.3273 31.3687 22.3125V20.475H46.0688ZM24.0187 31.5V44.3625C24.0187 45.3773 24.8414 46.2 25.8562 46.2H51.5812C52.5961 46.2 53.4188 45.3773 53.4188 44.3625V31.5H24.0187Z" fill="white"/>
<defs>
<linearGradient id="paint0_linear_2752_5003" x1="22.3125" y1="42.9026" x2="22.3125" y2="72.7252" gradientUnits="userSpaceOnUse">
<stop stop-color="#7D4F82"/>
<stop offset="1" stop-color="#3D83BD"/>
</linearGradient>
<linearGradient id="paint1_linear_2752_5003" x1="65.8788" y1="24.535" x2="10.5" y2="24.535" gradientUnits="userSpaceOnUse">
<stop stop-color="#85C2FB"/>
<stop offset="1" stop-color="#E63C62"/>
</linearGradient>
<linearGradient id="paint2_linear_2752_5003" x1="10.5" y1="24.5352" x2="10.5" y2="60.7444" gradientUnits="userSpaceOnUse">
<stop stop-color="#A071A5"/>
<stop offset="1" stop-color="#57A7E9"/>
</linearGradient>
</defs>
</svg>
