<svg width="84" height="84" viewBox="0 0 84 84" fill="none" xmlns="http://www.w3.org/2000/svg">
<path fill-rule="evenodd" clip-rule="evenodd" d="M22.8721 42.5114C22.8845 42.4956 22.8969 42.4797 22.9092 42.4638C22.9134 42.4797 22.9177 42.4956 22.9221 42.5114L22.8721 42.5114ZM26.3279 44.874C27.9869 44.7304 29.2887 43.334 29.2887 41.6325C29.2887 39.8356 27.8367 38.3789 26.0456 38.3789C25.3596 38.3789 24.7234 38.5925 24.1995 38.9571C24.2044 38.8553 24.2069 38.7529 24.2069 38.6499C24.2069 35.2058 21.4239 32.4138 17.9908 32.4138C15.1413 32.4138 12.7397 34.3372 12.0055 36.9606C11.3127 36.487 10.4755 36.2102 9.57396 36.2102C7.18576 36.2102 5.24975 38.1525 5.24975 40.5484C5.24975 42.8041 6.96587 44.6577 9.15975 44.8669L9.15975 44.8871L26.3279 44.887L26.3279 44.874Z" fill="url(#paint0_linear_2752_5001)"/>
<path fill-rule="evenodd" clip-rule="evenodd" d="M68.5453 32.4096C68.5572 32.3945 68.569 32.3794 68.5807 32.3643C68.5846 32.3794 68.5887 32.3945 68.5929 32.4096L68.5453 32.4096ZM71.9988 34.7716C73.6577 34.6279 74.9594 33.2315 74.9594 31.5301C74.9594 29.7332 73.5074 28.2765 71.7163 28.2765C71.0313 28.2765 70.3959 28.4895 69.8724 28.8532C69.8772 28.7523 69.8797 28.6507 69.8797 28.5486C69.8797 25.1045 67.0967 22.3125 63.6636 22.3125C60.8141 22.3125 58.4123 24.2361 57.6783 26.8596C56.985 26.3852 56.1471 26.1079 55.2446 26.1079C52.8564 26.1079 50.9204 28.0501 50.9204 30.446C50.9204 32.7018 52.6367 34.5555 54.8307 34.7645L54.8307 34.7852L71.9988 34.7852L71.9988 34.7716Z" fill="#6EB0E6"/>
<path fill-rule="evenodd" clip-rule="evenodd" d="M26.4049 55.9435C26.3681 55.8968 26.3317 55.85 26.2954 55.8029C26.2831 55.8499 26.2704 55.8968 26.2574 55.9435H26.4049ZM16.8827 62.9995C16.9148 62.9998 16.9471 63 16.9793 63C17.0116 63 17.0439 62.9998 17.076 62.9995H40.7731C40.8173 62.9998 40.8616 63 40.9059 63C40.9502 63 40.9945 62.9998 41.0387 62.9995H67.1299V62.9408C73.6492 62.3226 78.7497 56.8156 78.7497 50.1135C78.7497 42.9973 72.9995 37.2285 65.9061 37.2285C63.2277 37.2285 60.7407 38.0511 58.6825 39.4581C56.5012 31.6675 49.3685 25.9556 40.9059 25.9556C30.7093 25.9556 22.4432 34.2483 22.4432 44.4778C22.4432 44.7843 22.4507 45.089 22.4653 45.3918C20.9086 44.3078 19.0179 43.6725 16.9793 43.6725C11.6594 43.6725 7.34665 47.9991 7.34665 53.3363C7.34665 58.3889 11.2119 62.5359 16.1378 62.9636V62.9995H16.8827Z" fill="url(#paint1_linear_2752_5001)"/>
<mask id="path-4-inside-1_2752_5001" fill="white">
<path d="M37.4706 44.4786C37.4706 43.8385 37.3449 43.2047 37.1008 42.6133C36.8566 42.0219 36.4987 41.4846 36.0475 41.032C35.5964 40.5794 35.0608 40.2203 34.4713 39.9754C33.8818 39.7304 33.25 39.6044 32.612 39.6044C31.974 39.6044 31.3422 39.7304 30.7527 39.9754C30.1632 40.2203 29.6276 40.5794 29.1765 41.032C28.7253 41.4846 28.3674 42.0219 28.1232 42.6133C27.8791 43.2047 27.7534 43.8385 27.7534 44.4786L31.3214 44.4786C31.3214 44.3086 31.3548 44.1402 31.4196 43.9831C31.4845 43.826 31.5796 43.6833 31.6994 43.5631C31.8192 43.4428 31.9615 43.3475 32.1181 43.2824C32.2747 43.2173 32.4425 43.1838 32.612 43.1838C32.7815 43.1838 32.9493 43.2173 33.1059 43.2824C33.2625 43.3475 33.4048 43.4428 33.5246 43.5631C33.6444 43.6833 33.7395 43.826 33.8044 43.9831C33.8692 44.1402 33.9026 44.3086 33.9026 44.4786H37.4706Z"/>
</mask>
<path d="M37.4706 44.4786C37.4706 43.8385 37.3449 43.2047 37.1008 42.6133C36.8566 42.0219 36.4987 41.4846 36.0475 41.032C35.5964 40.5794 35.0608 40.2203 34.4713 39.9754C33.8818 39.7304 33.25 39.6044 32.612 39.6044C31.974 39.6044 31.3422 39.7304 30.7527 39.9754C30.1632 40.2203 29.6276 40.5794 29.1765 41.032C28.7253 41.4846 28.3674 42.0219 28.1232 42.6133C27.8791 43.2047 27.7534 43.8385 27.7534 44.4786L31.3214 44.4786C31.3214 44.3086 31.3548 44.1402 31.4196 43.9831C31.4845 43.826 31.5796 43.6833 31.6994 43.5631C31.8192 43.4428 31.9615 43.3475 32.1181 43.2824C32.2747 43.2173 32.4425 43.1838 32.612 43.1838C32.7815 43.1838 32.9493 43.2173 33.1059 43.2824C33.2625 43.3475 33.4048 43.4428 33.5246 43.5631C33.6444 43.6833 33.7395 43.826 33.8044 43.9831C33.8692 44.1402 33.9026 44.3086 33.9026 44.4786H37.4706Z" fill="url(#paint2_linear_2752_5001)" stroke="white" stroke-width="7.875" mask="url(#path-4-inside-1_2752_5001)"/>
<mask id="path-5-inside-2_2752_5001" fill="white">
<path d="M51.7181 44.4786C51.7181 43.8385 51.5924 43.2047 51.3482 42.6133C51.1041 42.0219 50.7462 41.4846 50.295 41.032C49.8439 40.5794 49.3083 40.2203 48.7188 39.9754C48.1293 39.7304 47.4975 39.6044 46.8595 39.6044C46.2214 39.6044 45.5896 39.7304 45.0002 39.9754C44.4107 40.2203 43.8751 40.5794 43.4239 41.032C42.9728 41.4846 42.6149 42.0219 42.3707 42.6133C42.1266 43.2047 42.0009 43.8385 42.0009 44.4786L45.5689 44.4786C45.5689 44.3086 45.6022 44.1402 45.6671 43.9831C45.732 43.826 45.827 43.6833 45.9469 43.5631C46.0667 43.4428 46.209 43.3475 46.3656 43.2824C46.5222 43.2173 46.69 43.1838 46.8595 43.1838C47.029 43.1838 47.1968 43.2173 47.3534 43.2824C47.51 43.3475 47.6522 43.4428 47.7721 43.5631C47.8919 43.6833 47.987 43.826 48.0519 43.9831C48.1167 44.1402 48.1501 44.3086 48.1501 44.4786H51.7181Z"/>
</mask>
<path d="M51.7181 44.4786C51.7181 43.8385 51.5924 43.2047 51.3482 42.6133C51.1041 42.0219 50.7462 41.4846 50.295 41.032C49.8439 40.5794 49.3083 40.2203 48.7188 39.9754C48.1293 39.7304 47.4975 39.6044 46.8595 39.6044C46.2214 39.6044 45.5896 39.7304 45.0002 39.9754C44.4107 40.2203 43.8751 40.5794 43.4239 41.032C42.9728 41.4846 42.6149 42.0219 42.3707 42.6133C42.1266 43.2047 42.0009 43.8385 42.0009 44.4786L45.5689 44.4786C45.5689 44.3086 45.6022 44.1402 45.6671 43.9831C45.732 43.826 45.827 43.6833 45.9469 43.5631C46.0667 43.4428 46.209 43.3475 46.3656 43.2824C46.5222 43.2173 46.69 43.1838 46.8595 43.1838C47.029 43.1838 47.1968 43.2173 47.3534 43.2824C47.51 43.3475 47.6522 43.4428 47.7721 43.5631C47.8919 43.6833 47.987 43.826 48.0519 43.9831C48.1167 44.1402 48.1501 44.3086 48.1501 44.4786H51.7181Z" fill="url(#paint3_linear_2752_5001)" stroke="white" stroke-width="7.875" mask="url(#path-5-inside-2_2752_5001)"/>
<mask id="path-6-inside-3_2752_5001" fill="white">
<path d="M38.5551 50.4153C38.5551 51.0554 38.6808 51.6892 38.925 52.2806C39.1691 52.8719 39.527 53.4093 39.9782 53.8619C40.4293 54.3145 40.9649 54.6736 41.5544 54.9185C42.1439 55.1635 42.7757 55.2895 43.4137 55.2895C44.0518 55.2895 44.6835 55.1635 45.273 54.9185C45.8625 54.6736 46.3981 54.3145 46.8493 53.8619C47.3004 53.4093 47.6583 52.8719 47.9025 52.2806C48.1466 51.6892 48.2723 51.0554 48.2723 50.4153L43.4137 50.4153L38.5551 50.4153Z"/>
</mask>
<path d="M38.5551 50.4153C38.5551 51.0554 38.6808 51.6892 38.925 52.2806C39.1691 52.8719 39.527 53.4093 39.9782 53.8619C40.4293 54.3145 40.9649 54.6736 41.5544 54.9185C42.1439 55.1635 42.7757 55.2895 43.4137 55.2895C44.0518 55.2895 44.6835 55.1635 45.273 54.9185C45.8625 54.6736 46.3981 54.3145 46.8493 53.8619C47.3004 53.4093 47.6583 52.8719 47.9025 52.2806C48.1466 51.6892 48.2723 51.0554 48.2723 50.4153L43.4137 50.4153L38.5551 50.4153Z" fill="url(#paint4_linear_2752_5001)" stroke="white" stroke-width="7.875" mask="url(#path-6-inside-3_2752_5001)"/>
<defs>
<linearGradient id="paint0_linear_2752_5001" x1="5.24973" y1="32.4138" x2="29.2887" y2="32.4138" gradientUnits="userSpaceOnUse">
<stop stop-color="#A071A5"/>
<stop offset="1" stop-color="#E63C62"/>
</linearGradient>
<linearGradient id="paint1_linear_2752_5001" x1="86.9835" y1="34.499" x2="24.191" y2="6.58568" gradientUnits="userSpaceOnUse">
<stop stop-color="#E63C62"/>
<stop offset="0.507812" stop-color="#859ACD"/>
<stop offset="1" stop-color="#6EB0E6"/>
</linearGradient>
<linearGradient id="paint2_linear_2752_5001" x1="37.4706" y1="39.6044" x2="27.7534" y2="39.6044" gradientUnits="userSpaceOnUse">
<stop stop-color="#A071A5"/>
<stop offset="1" stop-color="#E63C62"/>
</linearGradient>
<linearGradient id="paint3_linear_2752_5001" x1="51.7181" y1="39.6044" x2="42.0009" y2="39.6044" gradientUnits="userSpaceOnUse">
<stop stop-color="#A071A5"/>
<stop offset="1" stop-color="#E63C62"/>
</linearGradient>
<linearGradient id="paint4_linear_2752_5001" x1="38.5551" y1="55.2895" x2="48.2723" y2="55.2895" gradientUnits="userSpaceOnUse">
<stop stop-color="#A071A5"/>
<stop offset="1" stop-color="#E63C62"/>
</linearGradient>
</defs>
</svg>
