<svg width="84" height="84" viewBox="0 0 84 84" fill="none" xmlns="http://www.w3.org/2000/svg">
<rect x="22.3125" y="42.9023" width="45.6111" height="29.8227" rx="7.01709" transform="rotate(-15 22.3125 42.9023)" fill="url(#paint0_linear_2752_5004)"/>
<rect x="10.5" y="24.5347" width="55.3788" height="36.2092" rx="8.51981" fill="url(#paint1_linear_2752_5004)"/>
<rect x="10.5" y="24.535" width="55.3788" height="36.2092" rx="8.51981" fill="url(#paint2_linear_2752_5004)"/>
<path fill-rule="evenodd" clip-rule="evenodd" d="M45.8903 16.9943L45.8915 16.9968L45.8945 17.0026C45.8997 17.0127 45.9093 17.0312 45.9232 17.0576C45.951 17.1103 45.9961 17.1942 46.058 17.3049C46.182 17.5265 46.3725 17.8534 46.626 18.2503C47.1362 19.0487 47.8862 20.106 48.8464 21.1535C50.8224 23.3092 53.3673 25.0843 56.3047 25.0843L56.3047 29.7758C51.9193 29.7758 48.4791 27.4223 46.1398 25.1055L46.1398 42.6818C46.1804 43.0239 46.2012 43.372 46.2012 43.7249C46.2012 48.5687 42.2745 52.4954 37.4308 52.4954C32.587 52.4954 28.6603 48.5687 28.6603 43.7249C28.6603 38.8811 32.587 34.9545 37.4308 34.9545C38.8787 34.9545 40.2447 35.3054 41.4483 35.9267L41.4483 18.0471C41.4483 16.9592 42.1963 16.0141 43.2551 15.7641C44.3125 15.5145 45.4027 16.0239 45.8903 16.9943ZM33.4442 43.7249C33.4442 41.5232 35.229 39.7384 37.4308 39.7384C39.6325 39.7384 41.4173 41.5232 41.4173 43.7249C41.4173 45.9267 39.6325 47.7115 37.4308 47.7115C35.229 47.7115 33.4442 45.9267 33.4442 43.7249Z" fill="white"/>
<defs>
<linearGradient id="paint0_linear_2752_5004" x1="73.1832" y1="49.7802" x2="30.4613" y2="34.7112" gradientUnits="userSpaceOnUse">
<stop stop-color="#C53857"/>
<stop offset="0.507812" stop-color="#6B7FAE"/>
<stop offset="1" stop-color="#518AB8"/>
</linearGradient>
<linearGradient id="paint1_linear_2752_5004" x1="65.8788" y1="24.5347" x2="10.5" y2="24.5347" gradientUnits="userSpaceOnUse">
<stop stop-color="#85C2FB"/>
<stop offset="1" stop-color="#E63C62"/>
</linearGradient>
<linearGradient id="paint2_linear_2752_5004" x1="65.8788" y1="24.535" x2="10.5" y2="24.535" gradientUnits="userSpaceOnUse">
<stop stop-color="#85C2FB"/>
<stop offset="1" stop-color="#E63C62"/>
</linearGradient>
</defs>
</svg>
