<svg width="84" height="84" viewBox="0 0 84 84" fill="none" xmlns="http://www.w3.org/2000/svg">
<rect x="41.1617" y="14.4375" width="45.6111" height="29.8227" rx="7.01709" transform="rotate(30 41.1617 14.4375)" fill="url(#paint0_linear_2752_5000)"/>
<rect x="24.2428" y="21" width="50.1923" height="32.818" rx="7.72189" transform="rotate(15 24.2428 21)" fill="url(#paint1_linear_2752_5000)"/>
<rect x="7.875" y="34.125" width="55.3788" height="36.2092" rx="8.51981" fill="url(#paint2_linear_2752_5000)"/>
<path d="M41.6257 50.6681C43.2117 51.4112 43.2117 53.5321 41.6257 54.2752L31.9897 58.7903C30.559 59.4607 28.8757 58.4857 28.8757 56.9867V47.9566C28.8757 46.4576 30.559 45.4826 31.9897 46.153L41.6257 50.6681Z" fill="white"/>
<defs>
<linearGradient id="paint0_linear_2752_5000" x1="86.7729" y1="14.4375" x2="41.1617" y2="14.4375" gradientUnits="userSpaceOnUse">
<stop stop-color="#4B9D76"/>
<stop offset="1" stop-color="#487BA6"/>
</linearGradient>
<linearGradient id="paint1_linear_2752_5000" x1="74.4351" y1="21" x2="24.2428" y2="21" gradientUnits="userSpaceOnUse">
<stop stop-color="#5CBB8E"/>
<stop offset="1" stop-color="#5D99CA"/>
</linearGradient>
<linearGradient id="paint2_linear_2752_5000" x1="63.2538" y1="34.125" x2="7.875" y2="34.125" gradientUnits="userSpaceOnUse">
<stop stop-color="#71D2A4"/>
<stop offset="1" stop-color="#6EB0E6"/>
</linearGradient>
</defs>
</svg>
