<svg width="84" height="84" viewBox="0 0 84 84" fill="none" xmlns="http://www.w3.org/2000/svg">
<path fill-rule="evenodd" clip-rule="evenodd" d="M23.94 24.4352C19.4168 24.4352 15.75 28.1133 15.75 32.6505V60.0347C15.75 64.5719 19.4168 68.25 23.94 68.25H51.24C55.7632 68.25 59.43 64.5719 59.43 60.0347V32.6505C59.43 28.1133 55.7632 24.4352 51.24 24.4352H23.94Z" fill="url(#paint0_linear_2752_5005)"/>
<path fill-rule="evenodd" clip-rule="evenodd" d="M32.76 17.0625C28.2368 17.0625 24.57 20.7406 24.57 25.2778V52.662C24.57 57.1992 28.2368 60.8773 32.76 60.8773H60.06C64.5832 60.8773 68.25 57.1992 68.25 52.662V25.2778C68.25 20.7406 64.5832 17.0625 60.06 17.0625H32.76Z" fill="url(#paint1_linear_2752_5005)"/>
<path fill-rule="evenodd" clip-rule="evenodd" d="M49.115 30.0188C48.2231 27.3489 44.5944 27.3489 43.7026 30.0188L43.0217 32.057C42.6282 33.2348 41.5719 34.0334 40.3738 34.0588L38.3005 34.1028C35.5847 34.1603 34.4634 37.7514 36.628 39.459L38.2805 40.7627C39.2354 41.516 39.6389 42.8081 39.2919 44.0016L38.6914 46.067C37.9048 48.7724 40.8404 50.9918 43.0701 49.3773L44.7723 48.1448C45.7559 47.4326 47.0616 47.4326 48.0452 48.1448L49.7474 49.3773C51.9771 50.9918 54.9128 48.7724 54.1261 46.067L53.5256 44.0016C53.1786 42.8081 53.5821 41.516 54.537 40.7627L56.1895 39.459C58.3542 37.7514 57.2328 34.1603 54.517 34.1028L52.4437 34.0588C51.2456 34.0334 50.1893 33.2348 49.7959 32.057L49.115 30.0188Z" fill="white"/>
<defs>
<linearGradient id="paint0_linear_2752_5005" x1="59.43" y1="24.4352" x2="11.9469" y2="66.3143" gradientUnits="userSpaceOnUse">
<stop stop-color="#70C5BD"/>
<stop offset="1" stop-color="#3D82BB"/>
</linearGradient>
<linearGradient id="paint1_linear_2752_5005" x1="68.25" y1="17.0625" x2="24.57" y2="17.0625" gradientUnits="userSpaceOnUse">
<stop stop-color="#71D2A4"/>
<stop offset="1" stop-color="#6EB0E6"/>
</linearGradient>
</defs>
</svg>
