<svg width="16" height="16" viewBox="0 0 16 16" fill="none" xmlns="http://www.w3.org/2000/svg">
<path d="M4.1853 8.23579L4.66739 8.81032C4.78082 8.71514 4.86353 8.58852 4.90512 8.44641L4.1853 8.23579ZM5.29911 4.42929L5.87365 3.9472C5.69585 3.73531 5.41587 3.63849 5.14516 3.69526C4.87446 3.75204 4.65697 3.9532 4.57929 4.21867L5.29911 4.42929ZM2.5 9.64992L2.01791 9.07539C1.7006 9.34164 1.65922 9.81471 1.92547 10.132L2.5 9.64992ZM5.32827 13.0205L4.75373 13.5026C4.88159 13.655 5.06474 13.7503 5.2629 13.7677C5.46105 13.785 5.65798 13.7229 5.81036 13.595L5.32827 13.0205ZM7.01356 11.6064L6.93113 10.8609C6.78396 10.8772 6.6449 10.9367 6.53147 11.0318L7.01356 11.6064ZM10.9556 11.1705L11.0381 11.9159C11.313 11.8855 11.5489 11.7063 11.6518 11.4496C11.7547 11.1928 11.708 10.9003 11.5302 10.6884L10.9556 11.1705ZM4.90512 8.44641L6.01893 4.63992L4.57929 4.21867L3.46548 8.02516L4.90512 8.44641ZM2.98209 10.2245L4.66739 8.81032L3.70321 7.66125L2.01791 9.07539L2.98209 10.2245ZM5.9028 12.5384L3.07453 9.16783L1.92547 10.132L4.75373 13.5026L5.9028 12.5384ZM6.53147 11.0318L4.84617 12.446L5.81036 13.595L7.49565 12.1809L6.53147 11.0318ZM10.8732 10.425L6.93113 10.8609L7.09599 12.3518L11.0381 11.9159L10.8732 10.425ZM4.72458 4.91138L10.3811 11.6526L11.5302 10.6884L5.87365 3.9472L4.72458 4.91138Z" fill="#6EB0E6"/>
<path d="M12.5106 8.18337C12.7224 5.76256 10.9317 3.62842 8.51086 3.41663" stroke="#6EB0E6" stroke-width="1.5"/>
</svg>
