<svg width="28" height="28" viewBox="0 0 28 28" fill="none" xmlns="http://www.w3.org/2000/svg">
<path d="M19.553 20.7155L20.3111 20.0634L19.8944 19.5791L19.2798 19.7536L19.553 20.7155ZM20.0424 21.3477L20.8635 20.777L20.8635 20.777L20.0424 21.3477ZM21.1404 23.6815L20.1769 23.9493L20.5797 25.3986L21.7602 24.4663L21.1404 23.6815ZM24.9943 13.7961L23.995 13.7573L23.993 13.8101L23.9965 13.8629L24.9943 13.7961ZM4 13.5C4 9.91015 6.91015 7 10.5 7V5C5.80558 5 2 8.80558 2 13.5H4ZM10.5 20C6.91015 20 4 17.0899 4 13.5H2C2 18.1944 5.80558 22 10.5 22V20ZM17.5 20H10.5V22H17.5V20ZM19.2798 19.7536C18.7154 19.9139 18.1186 20 17.5 20V22C18.3051 22 19.0857 21.8878 19.8262 21.6775L19.2798 19.7536ZM20.8635 20.777C20.69 20.5273 20.5055 20.2893 20.3111 20.0634L18.795 21.3677C18.9446 21.5416 19.0869 21.7252 19.2212 21.9184L20.8635 20.777ZM22.1039 23.4138C21.8483 22.494 21.4368 21.602 20.8635 20.777L19.2212 21.9184C19.6641 22.5557 19.9805 23.2424 20.1769 23.9493L22.1039 23.4138ZM24 13.9735C24 16.2867 23.8246 17.9434 23.319 19.3003C22.826 20.6232 21.9898 21.7365 20.5207 22.8967L21.7602 24.4663C23.4532 23.1293 24.5468 21.7331 25.1931 19.9986C25.8267 18.298 26 16.3493 26 13.9735H24ZM23.9965 13.8629C23.9987 13.8963 24 13.9331 24 13.9735H26C26 13.8912 25.9974 13.8098 25.992 13.7294L23.9965 13.8629ZM24 13.5C24 13.5862 23.9983 13.672 23.995 13.7573L25.9935 13.8349C25.9978 13.7238 26 13.6121 26 13.5H24ZM17.5 7C21.0899 7 24 9.91015 24 13.5H26C26 8.80558 22.1944 5 17.5 5V7ZM10.5 7H17.5V5H10.5V7Z" fill="#B4C0D2"/>
</svg>
