<svg width="24" height="24" viewBox="0 0 24 24" fill="none" xmlns="http://www.w3.org/2000/svg">
<path fill-rule="evenodd" clip-rule="evenodd" d="M5 11.0071C5 7.68949 7.68949 5 11.0071 5C14.3248 5 17.0143 7.68949 17.0143 11.0071C17.0143 14.3248 14.3248 17.0143 11.0071 17.0143C7.68949 17.0143 5 14.3248 5 11.0071ZM11.0071 3C6.58492 3 3 6.58492 3 11.0071C3 15.4294 6.58492 19.0143 11.0071 19.0143C12.8578 19.0143 14.5619 18.3864 15.9179 17.3321L19.6429 21.0571L21.0571 19.6429L17.3321 15.9179C18.3864 14.5619 19.0143 12.8578 19.0143 11.0071C19.0143 6.58492 15.4294 3 11.0071 3Z" fill="#6EB0E6"/>
</svg>
