<svg width="24" height="24" viewBox="0 0 24 24" fill="none" xmlns="http://www.w3.org/2000/svg">
<path fill-rule="evenodd" clip-rule="evenodd" d="M12.5969 12.8588C13.1018 12.354 13.8374 12.1565 14.5272 12.3407C15.8675 12.6986 17.3482 12.3502 18.3933 11.3051C19.1098 10.5886 19.4986 9.66647 19.5574 8.72677L19.1004 9.18372C17.9289 10.3553 16.0294 10.3553 14.8578 9.18372C13.6862 8.01214 13.6862 6.11265 14.8578 4.94108L15.3147 4.48413C14.375 4.54286 13.453 4.9317 12.7365 5.6482C11.6913 6.69333 11.3429 8.17404 11.7008 9.51434C11.885 10.2041 11.6876 10.9397 11.1827 11.4446L5.66539 16.9619C5.27487 17.3524 5.27487 17.9856 5.66539 18.3761C6.05591 18.7666 6.68908 18.7666 7.0796 18.3761L12.5969 12.8588ZM14.0112 14.273C16.0129 14.8076 18.2372 14.2896 19.8075 12.7193C21.6179 10.9089 22.0295 8.22937 21.0424 6.02377C20.7898 5.45935 20.0576 5.39811 19.6204 5.83537L17.6862 7.7695C17.2957 8.16003 16.6625 8.16003 16.272 7.7695C15.8815 7.37898 15.8815 6.74581 16.272 6.35529L18.2061 4.42116C18.6434 3.9839 18.5822 3.25175 18.0177 2.99913C15.8121 2.01196 13.1326 2.42358 11.3222 4.23398C9.75187 5.80436 9.23396 8.02865 9.76852 10.0304L4.25118 15.5477C3.0796 16.7193 3.0796 18.6188 4.25118 19.7903C5.42275 20.9619 7.32224 20.9619 8.49382 19.7903L14.0112 14.273Z" fill="white"/>
</svg>
