<svg width="28" height="28" viewBox="0 0 28 28" fill="none" xmlns="http://www.w3.org/2000/svg">
<path fill-rule="evenodd" clip-rule="evenodd" d="M12.0061 3.54648C13.2406 2.83665 14.7594 2.83665 15.9939 3.54648L21.9939 6.99648C23.2349 7.71009 24 9.03252 24 10.4641V17.3359C24 18.7675 23.2349 20.0899 21.9939 20.8035L15.9939 24.2535C14.7594 24.9634 13.2406 24.9633 12.0061 24.2535L6.00611 20.8035C4.76507 20.0899 4 18.7675 4 17.3359L4 10.4641C4 9.03252 4.76507 7.71009 6.00612 6.99648L12.0061 3.54648Z" stroke="#B4C0D2" stroke-width="2"/>
<path d="M14.5 14.2681C14.5 13.9081 14.6936 13.5758 15.0068 13.3982L19.5068 10.8467C20.1734 10.4687 21 10.9502 21 11.7166V17.2649C21 17.6165 20.8153 17.9424 20.5135 18.123L16.0135 20.8157C15.3469 21.2146 14.5 20.7344 14.5 19.9576V14.2681Z" fill="#B4C0D2"/>
</svg>
