<svg width="28" height="28" viewBox="0 0 28 28" fill="none" xmlns="http://www.w3.org/2000/svg">
<path d="M23.6977 20.9982V13.0809C23.6977 12.4523 23.6977 12.1381 23.6167 11.8487C23.5449 11.5923 23.427 11.3512 23.2687 11.1371C23.09 10.8955 22.8419 10.7026 22.3458 10.3167L14.9238 4.54404C14.5393 4.24502 14.3471 4.09551 14.1349 4.03803C13.9476 3.98732 13.7502 3.98732 13.5629 4.03803C13.3506 4.09551 13.1584 4.24502 12.7739 4.54404L5.35191 10.3167C4.85578 10.7026 4.60771 10.8955 4.429 11.1371C4.2707 11.3512 4.15277 11.5923 4.08101 11.8487C4 12.1381 4 12.4523 4 13.0809V20.9982C4 22.2239 4 22.8368 4.23855 23.305C4.44838 23.7168 4.7832 24.0516 5.19502 24.2615C5.66319 24.5 6.27606 24.5 7.50181 24.5H20.1959C21.4216 24.5 22.0345 24.5 22.5027 24.2615C22.9145 24.0516 23.2493 23.7168 23.4592 23.305C23.6977 22.8368 23.6977 22.2239 23.6977 20.9982Z" stroke="#B4C0D2" stroke-width="2.18863" stroke-linecap="round" stroke-linejoin="round"/>
<path d="M11 21.1589V17.5008C11 16.9755 11 16.7128 11.1022 16.5121C11.1922 16.3357 11.3357 16.1922 11.5121 16.1022C11.7128 16 11.9755 16 12.5008 16H15.1271C15.6525 16 15.9151 16 16.1158 16.1022C16.2923 16.1922 16.4358 16.3357 16.5257 16.5121C16.6279 16.7128 16.6279 16.9755 16.6279 17.5008V21.1589" fill="#B4C0D2"/>
</svg>
