<svg width="28" height="28" viewBox="0 0 28 28" fill="none" xmlns="http://www.w3.org/2000/svg">
<path fill-rule="evenodd" clip-rule="evenodd" d="M15.9939 2.64648C14.7594 1.93665 13.2406 1.93665 12.0061 2.64648L5.00612 6.67148C3.76507 7.38508 3 8.70752 3 10.1391V18.1609C3 19.5925 3.76506 20.9149 5.00611 21.6285L12.0061 25.6535C13.2406 26.3633 14.7594 26.3633 15.9939 25.6535L22.9939 21.6285C24.2349 20.9149 25 19.5925 25 18.1609V10.1391C25 8.70752 24.2349 7.38508 22.9939 6.67148L15.9939 2.64648ZM15.0274 13.272C14.3932 13.6249 14 14.2937 14 15.0195V22.2595C14 23.0311 14.837 23.512 15.5037 23.1234L22.5088 19.0394C22.8162 18.8602 23.0052 18.5312 23.0052 18.1755V10.5329C23.0052 9.77011 22.1854 9.28818 21.5189 9.65914L15.0274 13.272Z" fill="url(#paint0_linear_0_1118)"/>
<defs>
<linearGradient id="paint0_linear_0_1118" x1="3" y1="2.11411" x2="3" y2="26.1859" gradientUnits="userSpaceOnUse">
<stop stop-color="#A071A5"/>
<stop offset="1" stop-color="#57A7E9"/>
</linearGradient>
</defs>
</svg>
