<svg width="28" height="28" viewBox="0 0 28 28" fill="none" xmlns="http://www.w3.org/2000/svg">
<path fill-rule="evenodd" clip-rule="evenodd" d="M13.3713 3.07607C13.7459 2.97464 14.1407 2.97464 14.5153 3.07607C14.9502 3.1938 15.3163 3.48124 15.6085 3.71064C15.6364 3.73254 15.6636 3.75391 15.6901 3.77456L23.1121 9.54722L23.1972 9.61326C23.6093 9.93311 23.9724 10.2149 24.243 10.5807C24.4805 10.9018 24.6573 11.2635 24.765 11.648C24.8876 12.0862 24.8871 12.5458 24.8866 13.0675L24.8865 13.1752V21.1347C24.8865 21.7115 24.8865 22.2092 24.853 22.6191C24.8177 23.0517 24.7397 23.482 24.5287 23.8961C24.2139 24.5138 23.7117 25.0161 23.094 25.3308C22.6799 25.5418 22.2496 25.6198 21.817 25.6552C21.4071 25.6887 20.9094 25.6887 20.3325 25.6886H7.55412C6.97725 25.6887 6.47959 25.6887 6.06968 25.6552C5.63705 25.6198 5.20674 25.5418 4.79268 25.3308C4.17495 25.0161 3.67272 24.5138 3.35797 23.8961C3.147 23.482 3.06895 23.0517 3.03361 22.6191C3.00012 22.2092 3.00013 21.7115 3.00015 21.1347L3.00015 13.1752L3.00008 13.0675C2.99951 12.5458 2.99901 12.0862 3.12167 11.648C3.22931 11.2635 3.4062 10.9018 3.64366 10.5807C3.91423 10.2149 4.27735 9.93311 4.6895 9.61326L4.77453 9.54722L12.1965 3.77456C12.2231 3.75391 12.2503 3.73254 12.2782 3.71064C12.5704 3.48124 12.9365 3.1938 13.3713 3.07607ZM12.6002 15.1563L12.6301 15.1563H15.2565L15.2864 15.1563H15.2865C15.5232 15.1563 15.7537 15.1563 15.949 15.1722C16.1634 15.1897 16.4164 15.2311 16.671 15.3608C17.024 15.5407 17.3109 15.8276 17.4908 16.1806C17.6205 16.4352 17.6619 16.6882 17.6794 16.9026C17.6953 17.0979 17.6953 17.3284 17.6953 17.5651V17.5652V17.5652L17.6953 17.5951V21.2532C17.6953 21.7713 17.2753 22.1912 16.7573 22.1912H11.1294C10.6113 22.1912 10.1914 21.7713 10.1914 21.2532V17.5951L10.1914 17.5652V17.5651C10.1914 17.3284 10.1913 17.0979 10.2073 16.9026C10.2248 16.6882 10.2661 16.4352 10.3959 16.1806C10.5757 15.8276 10.8627 15.5407 11.2157 15.3608C11.4703 15.2311 11.7233 15.1897 11.9377 15.1722C12.1329 15.1563 12.3635 15.1563 12.6002 15.1563H12.6002Z" fill="url(#paint0_linear_0_1118)"/>
<defs>
<linearGradient id="paint0_linear_0_1118" x1="3" y1="3" x2="3" y2="25.6886" gradientUnits="userSpaceOnUse">
<stop stop-color="#A071A5"/>
<stop offset="1" stop-color="#57A7E9"/>
</linearGradient>
</defs>
</svg>
